<svg width="395" height="540" viewBox="0 0 395 540" fill="none" xmlns="http://www.w3.org/2000/svg"><path d="M273.67.36c-1.703.273-3.815.887-4.769 1.227-2.725 1.158-14.238 12.4-14.783 14.443-.409 1.43-2.521 3.27-8.38 7.222-23.981 16.214-46.395 36.516-51.708 46.667-1.295 2.452-2.385 4.564-2.521 4.7-.136.137-1.771-.749-3.611-1.907-9.742-5.927-22.073-4.292-42.716 5.655-16.827 8.107-24.321 14.17-29.158 23.572-3.543 6.949-4.701 12.876-7.562 39.718-.613 5.518-1.704 13.353-2.453 17.372-.749 4.02-2.112 12.468-2.997 18.803-1.976 13.149-.682 10.764-13.626 25.276-3.951 4.496-9.606 11.104-12.467 14.647-2.862 3.543-7.426 9.061-10.083 12.263C44.763 256.315 4.908 315.177.752 327.576c-1.226 3.883-.953 8.107.818 11.582 1.84 3.474 15.26 16.487 20.847 20.097 8.311 5.45 13.625 6.677 29.158 6.677 6.95 0 13.966-.205 15.67-.477l3.065-.477.069 12.059c.136 11.309.204 12.331 1.907 16.759 3.066 8.107 9.47 15.124 17.577 19.212 9.606 4.905 32.769 9.946 52.867 11.581l5.586.477v3.338c0 8.176 2.385 34.473 5.518 60.838 1.567 13.081 8.244 50.755 8.993 50.755.613 0 .75.749-3.202-21.12-1.703-9.197-3.542-20.233-4.087-24.525-2.794-20.915-5.859-54.843-5.859-64.244 0-4.837.136-5.314 1.226-4.974.681.273 8.175.545 16.623.75 13.898.272 15.737.409 19.757 1.907 6.404 2.317 14.17 8.039 20.574 15.125 10.696 11.922 15.67 16.35 24.526 21.8 9.197 5.723 17.986 13.217 25.207 21.597 6.54 7.562 18.326 15.533 23.027 15.533 3.066 0 14.375-2.112 15.397-2.93 1.226-.954 1.022-4.837-.409-6.131-1.635-1.499-5.314-2.93-8.924-3.543-4.837-.817-9.334-4.905-18.804-17.236l-1.294-1.771 2.248 1.362c1.227.681 6.268 4.428 11.173 8.244 4.973 3.883 9.947 7.494 11.173 8.039 3.543 1.703 6.472 1.294 12.263-1.84 6.744-3.542 8.38-5.041 8.38-7.494 0-1.703.204-1.907 1.703-1.499 3.27.818 6.404-.408 10.9-4.155l4.36-3.679.75 3.883c2.043 9.878 9.606 30.385 17.031 46.122 4.292 9.061 11.241 20.779 12.4 20.779.408 0 .136-.818-.545-1.908-5.859-8.856-13.558-24.117-18.327-36.243-6.676-16.964-9.742-28.137-10.9-39.378l-.409-4.224 6.677 3.543c3.679 1.976 8.039 4.428 9.674 5.45 4.156 2.589 7.698 2.589 10.355-.068 3.679-3.679 2.248-8.72-4.019-14.443-4.633-4.224-12.468-10.151-18.735-14.171-2.998-1.907-4.701-3.542-4.974-4.632-.681-2.521 2.998-28.546 5.11-36.789 3.815-14.784 9.742-34.064 12.263-40.059 1.499-3.338 4.224-9.742 6.131-14.17 1.908-4.429 5.178-12.876 7.154-18.735 6.54-18.803 7.766-21.869 15.737-37.198 11.718-22.754 14.17-31.202 14.988-52.526.341-8.925.886-13.625 2.384-20.438 5.587-25.412 4.565-37.674-4.292-50.755-2.861-4.224-11.377-12.944-17.508-17.985-2.794-2.249-9.674-8.312-15.329-13.353-5.586-5.042-13.285-11.718-17.032-14.716-7.494-6.063-16.555-15.26-19.825-20.03-4.837-7.016-8.516-16.35-9.469-24.048l-.477-3.883 5.654-8.653c10.356-15.805 11.105-21.528 3.475-26.433-1.908-1.226-2.112-1.703-2.18-4.7 0-4.43-2.657-8.994-5.859-10.356-1.567-.681-2.317-1.43-2.317-2.385 0-4.632-5.109-8.107-13.966-9.401-3.747-.545-5.654-1.09-6.131-1.908-2.93-4.837-6.132-6.131-12.604-5.041zm8.244 1.431c1.907 1.09 3.338 4.293 3.338 7.767 0 3.543-3.611 11.037-6.949 14.511-1.226 1.226-1.976 2.385-1.703 2.657.749.75 1.975-.545 5.586-6.2 2.044-3.133 4.02-5.858 4.36-6.13.409-.205.75-.75.75-1.09 0-.41-.341-.478-.818-.205-.545.34-.613.136-.34-.682.272-.68.476-2.043.476-3.065v-1.84l6.336 1.09c6.813 1.158 8.244 1.772 10.424 4.224 3.61 3.883 2.384 7.903-5.791 18.871-4.701 6.404-6.608 9.606-5.586 9.606.408 0 1.158-.817 1.703-1.907.545-1.022 3.202-4.905 5.927-8.652 2.657-3.747 5.314-7.835 5.791-9.061.545-1.159 1.294-2.18 1.635-2.18 1.43 0 5.518 4.428 6.199 6.812 1.295 4.292-.681 9.266-9.742 24.322-2.998 4.973-6.336 9.81-7.562 10.696-1.158.953-1.908 1.907-1.635 2.18 1.022 1.09 5.518-4.497 11.036-13.694 3.134-5.246 6.336-11.036 7.086-12.808l1.43-3.27 2.044 1.09c2.725 1.363 4.769 4.77 4.769 7.835 0 3.27-2.861 8.993-9.674 19.416-3.202 4.837-6.608 10.287-7.63 12.127-2.317 3.883-2.589 4.087-16.691 13.216-16.487 10.628-16.623 10.628-38.56 14.171-9.743 1.567-15.67 4.837-21.12 11.718-1.703 2.18-9.333 13.285-17.032 24.73-7.63 11.445-16.486 24.458-19.552 28.954-21.597 31.066-22.618 32.701-31.339 49.052-7.562 14.102-14.715 31.883-24.049 59.475-6.267 18.394-10.287 25.275-20.915 35.767-4.087 4.087-7.289 7.562-7.085 7.834.545.545 12.535-11.309 16.078-15.873 4.02-5.178 8.925-15.738 13.489-28.954 2.248-6.541 4.429-12.672 4.905-13.626 1.976-4.224 10.083-9.061 46.327-27.251 41.626-20.915 47.893-24.866 60.974-38.219a1458.07 1458.07 0 0 0 12.74-13.149c2.929-2.997 5.109-5.586 4.905-5.791-.205-.204-6.404 5.791-13.762 13.353-18.599 18.94-21.187 20.643-64.176 42.171-28.749 14.375-40.195 20.643-43.737 23.981-2.249 2.044-2.385 1.226-.614-3.134.75-1.771 3.202-7.835 5.451-13.557 6.949-17.577 16.009-34.2 27.932-51.504 3.747-5.519 9.878-14.375 13.557-19.757 3.679-5.314 12.944-19.008 20.574-30.453 19.757-29.499 23.164-32.701 36.857-34.677 19.689-2.861 22.755-3.951 37.947-13.898 4.769-3.066 10.083-6.472 11.854-7.494 2.249-1.294 3.884-2.998 5.451-5.586 1.226-2.044 2.452-3.747 2.725-3.747.34 0 .545.885.545 2.043 0 3.475 3.883 14.375 7.085 19.757 4.769 8.176 11.445 15.397 21.869 23.709 5.859 4.7 13.216 11.104 20.302 17.713 2.929 2.725 8.652 7.698 12.671 11.036 20.507 16.964 26.706 29.295 24.594 48.984-.409 3.951-1.226 9.333-1.771 11.99-.545 2.589-1.567 7.699-2.316 11.241-.75 3.815-1.363 9.334-1.363 13.285-.068 12.672-1.362 21.937-4.564 32.02-1.567 4.973-9.266 21.256-14.852 31.338-2.862 5.11-5.11 10.901-10.56 26.57-2.316 6.745-6.676 17.918-9.674 24.798-2.998 6.949-5.927 13.83-6.472 15.329-1.635 4.633-8.448 28.205-10.492 36.38-1.703 6.745-4.36 25.003-4.837 33.314l-.204 2.93-6.677-5.859-6.744-5.859 2.316-1.363c3.202-1.907 4.633-3.951 4.633-6.744 0-3.816-1.09-4.701-6.132-5.042-10.423-.613-21.392-5.041-32.36-12.944-7.835-5.723-13.83-8.584-23.095-11.173-4.088-1.158-9.402-2.929-11.854-3.883-3.679-1.431-6.064-1.84-14.716-2.316-8.993-.545-11.309-.954-18.122-3.066-8.311-2.657-10.423-2.998-31.679-5.178-25.003-2.589-28.886-3.679-39.037-10.832l-4.973-3.475.204-3.202.205-3.202 3.406-.885c1.908-.409 7.29-1.703 12.127-2.861 4.769-1.091 10.832-2.794 13.489-3.748 2.589-.953 5.246-1.703 5.791-1.703.545 0 1.498 1.158 2.044 2.589 1.907 4.497 8.311 13.489 12.126 17.032 4.224 3.815 14.443 9.129 20.098 10.355 6.472 1.499 24.594-.136 24.594-2.18 0-.409-.545-.477-1.159-.204-.681.204-4.223.954-7.97 1.567-9.674 1.567-15.465.613-24.867-4.02-5.382-2.657-8.039-4.428-11.241-7.698-4.292-4.36-10.832-14.443-10.9-16.896-.068-1.158 1.226-1.839 8.107-4.224 23.776-8.379 53.82-23.299 94.969-47.416 6.472-3.747 15.67-8.72 20.37-10.969 9.879-4.7 27.047-10.287 36.38-11.854 10.764-1.839 12.604-2.384 6.609-2.044-14.716.886-40.332 10.083-59.952 21.597-32.429 19.075-61.587 34.472-81.14 42.852-18.258 7.766-56.886 19.212-76.03 22.414-2.384.408-8.993 1.907-14.647 3.406-27.115 6.813-44.283 9.674-59.067 9.742-19.893.068-26.706-2.997-42.307-18.803-9.537-9.606-10.287-13.353-4.837-23.776 11.105-21.324 41.694-65.811 62.405-90.814 3.474-4.156 8.039-9.81 10.287-12.604 2.248-2.793 8.04-9.537 12.876-14.988 4.837-5.45 10.151-11.717 11.854-13.966 5.655-7.425 12.536-15.533 19.894-23.504 3.951-4.292 9.878-10.9 13.08-14.647 10.764-12.603 15.737-18.326 21.869-25.207 14.034-15.669 28.409-35.426 32.973-45.305 5.587-12.126 7.358-15.056 12.059-20.233 11.786-12.74 29.363-27.115 50.142-40.809 10.082-6.676 18.939-13.83 17.236-13.898-.477 0-2.793 1.772-5.246 3.884-5.11 4.564-8.584 6.812-8.584 5.586 0-.817 11.445-11.99 13.489-13.148 2.861-1.635 10.832-2.317 13.149-1.09zm-96.128 71.057c2.453 1.227 4.497 2.725 4.633 3.338.409 2.18-5.314 12.195-13.285 23.3-9.129 12.74-9.606 13.285-28.137 34.472-7.698 8.789-15.805 18.19-18.053 20.779-2.249 2.657-7.222 8.107-11.037 12.263-6.404 6.949-13.148 14.852-15.533 18.258-.545.75-1.09 1.295-1.226 1.09-.341-.34 2.248-17.985 4.156-28.545.817-4.292 2.248-15.056 3.202-23.845 2.588-23.504 4.155-29.362 10.082-37.129 4.974-6.54 14.171-12.808 28.205-19.007 18.258-8.176 27.864-9.47 36.993-4.974zM134.827 355.44c6.336 5.042 15.124 10.764 18.803 12.195 3.679 1.362 23.231 4.224 39.309 5.723 7.426.681 12.877 1.635 17.032 2.861 11.378 3.406 12.876 3.679 22.823 4.292 8.107.477 10.628.886 14.034 2.248 2.316.954 7.222 2.589 10.901 3.611 8.72 2.384 16.146 5.995 23.776 11.513 6.949 5.042 13.693 8.584 19.961 10.424 2.725.749 4.36 1.635 4.633 2.452.885 2.862 2.997 3.884 8.243 3.884 2.725 0 4.974.272 4.974.613 0 1.294-3.475 4.701-5.451 5.45-1.975.681-2.316.477-6.54-3.338-2.384-2.18-7.834-5.995-12.058-8.448-9.538-5.518-21.937-11.513-22.959-11.173-.477.136 3.406 2.317 8.584 4.905 13.557 6.609 21.664 11.582 27.114 16.76 11.173 10.423 18.054 16.146 24.526 20.302 6.336 4.087 20.234 14.919 21.188 16.486.272.409-1.158 2.453-3.066 4.565-2.793 3.066-3.406 4.156-3.066 5.45l.409 1.635-2.589-1.635c-1.43-.954-5.518-3.27-9.061-5.246-3.542-1.975-8.311-4.905-10.559-6.472-2.249-1.567-8.244-5.382-13.353-8.448-10.219-6.199-13.898-7.289-13.898-4.155 0 1.294 1.975 3.27 9.129 9.333 5.041 4.224 10.014 7.971 11.105 8.312 2.452.885 2.52-.137.068-1.227-1.499-.681-1.635-.953-.818-1.498 2.93-1.84 8.993 1.158 10.015 5.041.954 3.611-.136 6.676-3.407 9.538-4.428 3.883-6.403 4.769-10.219 4.428-2.793-.272-4.905-1.431-13.966-7.494-13.216-8.788-15.805-10.355-16.418-9.81-.205.272.613 1.294 1.907 2.316 1.295.954 4.088 3.338 6.132 5.246 5.722 5.246 8.175 7.153 9.401 7.153.886 0 .75-.272-.477-1.09-.953-.681-1.294-1.362-.885-1.771.408-.409 2.316.477 5.314 2.452 2.52 1.704 4.905 3.134 5.245 3.134.75 0-.136 4.224-1.158 5.246-.409.409-3.474 2.18-6.812 3.951-8.244 4.292-9.198 4.02-20.03-4.632-17.304-14.034-21.596-14.716-10.9-1.771 4.973 6.063 11.377 11.513 13.489 11.513 2.657 0 7.153 1.431 8.856 2.793 1.636 1.295 1.635 1.363.409 2.18-.749.477-2.112 1.567-3.065 2.453-1.976 1.907-5.11 2.725-10.015 2.793-4.973 0-13.898-5.314-20.37-12.263-11.309-12.126-18.19-18.19-25.752-22.891-10.833-6.676-16.351-11.377-23.3-19.756-6.813-8.176-14.375-14.239-21.46-17.441-12.195-5.45-15.669-8.243-18.054-14.443-1.09-2.861-1.158-3.815-.477-7.085.409-2.112.682-3.952.477-4.088-.613-.681-1.703 3.475-1.703 6.745 0 5.45 2.385 9.946 7.358 13.83l2.521 1.907-15.67-.409c-8.584-.204-20.37-.885-26.092-1.43-11.855-1.159-31.271-4.906-39.31-7.562-12.467-4.088-20.779-10.356-24.866-18.94-2.794-5.859-3.475-10.832-3.27-22.55l.204-9.538 3.406-.545c11.378-1.907 19.962-3.679 32.02-6.744 7.494-1.84 15.806-3.816 18.394-4.292 2.657-.477 4.838-.954 4.906-.954.136-.068 2.112 1.499 4.428 3.406zm168.342 86.522c3.339 1.703 17.237 10.083 21.46 13.012 1.567 1.09 2.862 2.316 2.862 2.657 0 .409-.886.068-1.976-.681-2.112-1.567-4.701-1.908-8.039-1.158-1.839.408-2.521.136-4.769-1.772-1.43-1.294-4.973-4.224-7.834-6.608-3.339-2.657-5.314-4.769-5.314-5.586 0-1.636.068-1.636 3.61.136z" fill="#FFE7E3"/><path d="M311.481 128.985c-21.051 1.295-48.37 4.02-54.161 5.45-4.701 1.159-12.672 4.769-11.991 5.451.205.272 1.567-.205 2.998-.954 4.36-2.453 11.377-4.224 21.051-5.246 7.971-.886 37.402-3.406 46.191-3.951 2.452-.205 2.52-.273.681-.545-1.09-.205-3.27-.273-4.769-.205zM133.328 342.428c-.545.341-2.725 1.294-4.769 2.112-13.216 5.109-27.114 7.494-43.26 7.562-5.996.068-10.152.272-9.198.613.954.273 5.519.477 10.22.545 9.946.068 23.844-1.771 32.973-4.428 6.676-1.84 16.01-5.723 16.078-6.608 0-.682-.818-.614-2.044.204z" fill="#FFE7E3"/></svg>