<svg width="395" height="540" viewBox="0 0 395 540" fill="none" xmlns="http://www.w3.org/2000/svg">
<path d="M273.67 0.36084C271.967 0.633362 269.855 1.24652 268.901 1.58716C266.176 2.7453 254.663 13.9863 254.118 16.0302C253.709 17.4608 251.597 19.3002 245.738 23.2516C221.757 39.4659 199.343 59.7678 194.03 69.9188C192.735 72.3713 191.645 74.4833 191.509 74.6196C191.373 74.7558 189.738 73.8702 187.898 72.712C178.156 66.7849 165.825 68.42 145.182 78.3666C128.355 86.4737 120.861 92.537 116.024 101.939C112.481 108.888 111.323 114.815 108.462 141.657C107.849 147.175 106.758 155.01 106.009 159.029C105.26 163.049 103.897 171.497 103.012 177.832C101.036 190.981 102.33 188.596 89.3861 203.108C85.4347 207.604 79.7801 214.212 76.9188 217.755C74.0574 221.298 69.4929 226.816 66.8359 230.018C44.7627 256.315 4.90826 315.177 0.752497 327.576C-0.473794 331.459 -0.201285 335.683 1.57002 339.158C3.40946 342.632 16.8305 355.645 22.417 359.255C30.7285 364.705 36.0424 365.932 51.5754 365.932C58.5244 365.932 65.5415 365.727 67.2447 365.455L70.3104 364.978L70.3785 377.037C70.5148 388.346 70.5829 389.368 72.2861 393.796C75.3518 401.903 81.7558 408.92 89.8629 413.008C99.4689 417.913 122.632 422.954 142.73 424.589L148.316 425.066V428.404C148.316 436.58 150.701 462.877 153.834 489.242C155.401 502.323 162.078 539.997 162.827 539.997C163.44 539.997 163.577 540.746 159.625 518.877C157.922 509.68 156.083 498.644 155.538 494.352C152.744 473.437 149.679 439.509 149.679 430.108C149.679 425.271 149.815 424.794 150.905 425.134C151.586 425.407 159.08 425.679 167.528 425.884C181.426 426.156 183.265 426.293 187.285 427.791C193.689 430.108 201.455 435.83 207.859 442.916C218.555 454.838 223.529 459.266 232.385 464.716C241.582 470.439 250.371 477.933 257.592 486.313C264.132 493.875 275.918 501.846 280.619 501.846C283.685 501.846 294.994 499.734 296.016 498.916C297.242 497.962 297.038 494.079 295.607 492.785C293.972 491.286 290.293 489.855 286.683 489.242C281.846 488.425 277.349 484.337 267.879 472.006L266.585 470.235L268.833 471.597C270.06 472.278 275.101 476.025 280.006 479.841C284.979 483.724 289.953 487.335 291.179 487.88C294.722 489.583 297.651 489.174 303.442 486.04C310.186 482.498 311.822 480.999 311.822 478.546C311.822 476.843 312.026 476.639 313.525 477.047C316.795 477.865 319.929 476.639 324.425 472.892L328.785 469.213L329.535 473.096C331.578 482.974 339.141 503.481 346.566 519.218C350.858 528.279 357.807 539.997 358.966 539.997C359.374 539.997 359.102 539.179 358.421 538.089C352.562 529.233 344.863 513.972 340.094 501.846C333.418 484.882 330.352 473.709 329.194 462.468L328.785 458.244L335.462 461.787C339.141 463.763 343.501 466.215 345.136 467.237C349.292 469.826 352.834 469.826 355.491 467.169C359.17 463.49 357.739 458.449 351.472 452.726C346.839 448.502 339.004 442.575 332.737 438.555C329.739 436.648 328.036 435.013 327.763 433.923C327.082 431.402 330.761 405.377 332.873 397.134C336.688 382.35 342.615 363.07 345.136 357.075C346.635 353.737 349.36 347.333 351.267 342.905C353.175 338.476 356.445 330.029 358.421 324.17C364.961 305.367 366.187 302.301 374.158 286.972C385.876 264.218 388.328 255.77 389.146 234.446C389.487 225.521 390.032 220.821 391.53 214.008C397.117 188.596 396.095 176.334 387.238 163.253C384.377 159.029 375.861 150.309 369.73 145.268C366.936 143.019 360.056 136.956 354.401 131.915C348.815 126.873 341.116 120.197 337.369 117.199C329.875 111.136 320.814 101.939 317.544 97.1697C312.707 90.1526 309.028 80.8192 308.075 73.1208L307.598 69.2375L313.252 60.5854C323.608 44.7798 324.357 39.0571 316.727 34.1519C314.819 32.9257 314.615 32.4488 314.547 29.4512C314.547 25.0229 311.89 20.4584 308.688 19.0958C307.121 18.4146 306.371 17.6652 306.371 16.7114C306.371 12.0787 301.262 8.60425 292.405 7.30981C288.658 6.76483 286.751 6.21979 286.274 5.40228C283.344 0.565247 280.142 -0.729187 273.67 0.36084ZM281.914 1.7915C283.821 2.88153 285.252 6.08356 285.252 9.55804C285.252 13.1006 281.641 20.5947 278.303 24.0692C277.077 25.2954 276.327 26.4536 276.6 26.7261C277.349 27.4755 278.575 26.1811 282.186 20.5265C284.23 17.3926 286.206 14.6675 286.546 14.3951C286.955 14.1907 287.296 13.6457 287.296 13.3051C287.296 12.8962 286.955 12.8281 286.478 13.1006C285.933 13.4413 285.865 13.2369 286.138 12.4194C286.41 11.7381 286.614 10.3755 286.614 9.35364V7.51422L292.95 8.60425C299.763 9.76239 301.194 10.3755 303.374 12.8281C306.984 16.7114 305.758 20.7309 297.583 31.6994C292.882 38.1034 290.975 41.3053 291.997 41.3053C292.405 41.3053 293.155 40.4878 293.7 39.3978C294.245 38.3759 296.902 34.4926 299.627 30.7456C302.284 26.9986 304.941 22.9109 305.418 21.6847C305.963 20.5265 306.712 19.5046 307.053 19.5046C308.483 19.5046 312.571 23.9329 313.252 26.3173C314.547 30.6093 312.571 35.5826 303.51 50.6388C300.512 55.6121 297.174 60.4491 295.948 61.3347C294.79 62.2885 294.04 63.2423 294.313 63.5148C295.335 64.6049 299.831 59.0184 305.349 49.8212C308.483 44.5754 311.685 38.7846 312.435 37.0133L313.865 33.7432L315.909 34.8332C318.634 36.1958 320.678 39.6021 320.678 42.6679C320.678 45.938 317.817 51.6607 311.004 62.0841C307.802 66.9212 304.396 72.3714 303.374 74.2108C301.057 78.0941 300.785 78.2984 286.683 87.4275C270.196 98.0553 270.06 98.0553 248.123 101.598C238.38 103.165 232.453 106.435 227.003 113.316C225.3 115.496 217.67 126.601 209.971 138.046C202.341 149.491 193.485 162.504 190.419 167C168.822 198.066 167.801 199.701 159.08 216.052C151.518 230.154 144.365 247.935 135.031 275.527C128.764 293.921 124.744 300.802 114.116 311.294C110.029 315.381 106.827 318.856 107.031 319.128C107.576 319.673 119.566 307.819 123.109 303.255C127.129 298.077 132.034 287.517 136.598 274.301C138.846 267.76 141.027 261.629 141.503 260.675C143.479 256.451 151.586 251.614 187.83 233.424C229.456 212.509 235.723 208.558 248.804 195.205C252.96 190.981 258.682 185.054 261.544 182.056C264.473 179.059 266.653 176.47 266.449 176.265C266.244 176.061 260.045 182.056 252.687 189.618C234.088 208.558 231.5 210.261 188.511 231.789C159.762 246.164 148.316 252.432 144.774 255.77C142.525 257.814 142.389 256.996 144.16 252.636C144.91 250.865 147.362 244.801 149.611 239.079C156.56 221.502 165.62 204.879 177.543 187.575C181.29 182.056 187.421 173.2 191.1 167.818C194.779 162.504 204.044 148.81 211.674 137.365C231.431 107.866 234.838 104.664 248.531 102.688C268.22 99.8267 271.286 98.7366 286.478 88.79C291.247 85.7243 296.561 82.3179 298.332 81.296C300.581 80.0016 302.216 78.2984 303.783 75.7096C305.009 73.6658 306.235 71.9626 306.508 71.9626C306.848 71.9626 307.053 72.8482 307.053 74.0064C307.053 77.4809 310.936 88.3813 314.138 93.7633C318.907 101.939 325.583 109.16 336.007 117.472C341.866 122.172 349.223 128.576 356.309 135.185C359.238 137.91 364.961 142.883 368.98 146.221C389.487 163.185 395.686 175.516 393.574 195.205C393.165 199.156 392.348 204.538 391.803 207.195C391.258 209.784 390.236 214.894 389.487 218.436C388.737 222.251 388.124 227.77 388.124 231.721C388.056 244.393 386.762 253.658 383.56 263.741C381.993 268.714 374.294 284.997 368.708 295.079C365.846 300.189 363.598 305.98 358.148 321.649C355.832 328.394 351.472 339.567 348.474 346.447C345.476 353.396 342.547 360.277 342.002 361.776C340.367 366.409 333.554 389.981 331.51 398.156C329.807 404.901 327.15 423.159 326.673 431.47L326.469 434.4L319.792 428.541L313.048 422.682L315.364 421.319C318.566 419.412 319.997 417.368 319.997 414.575C319.997 410.759 318.907 409.874 313.865 409.533C303.442 408.92 292.473 404.492 281.505 396.589C273.67 390.866 267.675 388.005 258.41 385.416C254.322 384.258 249.008 382.487 246.556 381.533C242.877 380.102 240.492 379.693 231.84 379.217C222.847 378.672 220.531 378.263 213.718 376.151C205.407 373.494 203.295 373.153 182.039 370.973C157.036 368.384 153.153 367.294 143.002 360.141L138.029 356.666L138.233 353.464L138.438 350.262L141.844 349.377C143.752 348.968 149.134 347.674 153.971 346.516C158.74 345.425 164.803 343.722 167.46 342.768C170.049 341.815 172.706 341.065 173.251 341.065C173.796 341.065 174.749 342.223 175.295 343.654C177.202 348.151 183.606 357.143 187.421 360.686C191.645 364.501 201.864 369.815 207.519 371.041C213.991 372.54 232.113 370.905 232.113 368.861C232.113 368.452 231.568 368.384 230.954 368.657C230.273 368.861 226.731 369.611 222.984 370.224C213.31 371.791 207.519 370.837 198.117 366.204C192.735 363.547 190.078 361.776 186.876 358.506C182.584 354.146 176.044 344.063 175.976 341.61C175.908 340.452 177.202 339.771 184.083 337.386C207.859 329.007 237.903 314.087 279.052 289.97C285.524 286.223 294.722 281.25 299.422 279.001C309.301 274.301 326.469 268.714 335.802 267.147C346.566 265.308 348.406 264.763 342.411 265.103C327.695 265.989 302.079 275.186 282.459 286.7C250.03 305.775 220.872 321.172 201.319 329.552C183.061 337.318 144.433 348.764 125.289 351.966C122.905 352.374 116.296 353.873 110.642 355.372C83.5271 362.185 66.359 365.046 51.5754 365.114C31.6823 365.182 24.8695 362.117 9.2684 346.311C-0.269412 336.705 -1.01881 332.958 4.43137 322.535C15.5361 301.211 46.1252 256.724 66.8359 231.721C70.3104 227.565 74.875 221.911 77.1232 219.117C79.3714 216.324 85.1622 209.58 89.9992 204.129C94.8362 198.679 100.15 192.412 101.853 190.163C107.508 182.738 114.389 174.63 121.747 166.659C125.698 162.367 131.625 155.759 134.827 152.012C145.591 139.409 150.564 133.686 156.696 126.805C170.73 111.136 185.105 91.3788 189.669 81.5004C195.256 69.3737 197.027 66.4443 201.728 61.2666C213.514 48.5269 231.091 34.152 251.87 20.4584C261.952 13.7819 270.809 6.62854 269.106 6.56042C268.629 6.56042 266.313 8.33173 263.86 10.4437C258.75 15.0082 255.276 17.2564 255.276 16.0302C255.276 15.2126 266.721 4.03973 268.765 2.88159C271.626 1.24652 279.597 0.565247 281.914 1.7915ZM185.786 72.8483C188.239 74.0746 190.283 75.5733 190.419 76.1865C190.828 78.3665 185.105 88.3813 177.134 99.486C168.005 112.226 167.528 112.771 148.997 133.958C141.299 142.747 133.192 152.148 130.944 154.737C128.695 157.394 123.722 162.844 119.907 167C113.503 173.949 106.759 181.852 104.374 185.258C103.829 186.008 103.284 186.553 103.148 186.348C102.807 186.008 105.396 168.363 107.304 157.803C108.121 153.511 109.552 142.747 110.506 133.958C113.094 110.454 114.661 104.596 120.588 96.829C125.562 90.2888 134.759 84.0211 148.793 77.8216C167.051 69.6463 176.657 68.3519 185.786 72.8483ZM134.827 355.44C141.163 360.482 149.951 366.204 153.63 367.635C157.309 368.997 176.861 371.859 192.939 373.358C200.365 374.039 205.816 374.993 209.971 376.219C221.349 379.625 222.847 379.898 232.794 380.511C240.901 380.988 243.422 381.397 246.828 382.759C249.144 383.713 254.05 385.348 257.729 386.37C266.449 388.754 273.875 392.365 281.505 397.883C288.454 402.925 295.198 406.467 301.466 408.307C304.191 409.056 305.826 409.942 306.099 410.759C306.984 413.621 309.096 414.643 314.342 414.643C317.067 414.643 319.316 414.915 319.316 415.256C319.316 416.55 315.841 419.957 313.865 420.706C311.89 421.387 311.549 421.183 307.325 417.368C304.941 415.188 299.491 411.373 295.267 408.92C285.729 403.402 273.33 397.407 272.308 397.747C271.831 397.883 275.714 400.064 280.892 402.652C294.449 409.261 302.556 414.234 308.006 419.412C319.179 429.835 326.06 435.558 332.532 439.714C338.868 443.801 352.766 454.633 353.72 456.2C353.992 456.609 352.562 458.653 350.654 460.765C347.861 463.831 347.248 464.921 347.588 466.215L347.997 467.85L345.408 466.215C343.978 465.261 339.89 462.945 336.347 460.969C332.805 458.994 328.036 456.064 325.788 454.497C323.539 452.93 317.544 449.115 312.435 446.049C302.216 439.85 298.537 438.76 298.537 441.894C298.537 443.188 300.512 445.164 307.666 451.227C312.707 455.451 317.68 459.198 318.771 459.539C321.223 460.424 321.291 459.402 318.839 458.312C317.34 457.631 317.204 457.359 318.021 456.814C320.951 454.974 327.014 457.972 328.036 461.855C328.99 465.466 327.9 468.531 324.629 471.393C320.201 475.276 318.226 476.162 314.41 475.821C311.617 475.549 309.505 474.39 300.444 468.327C287.228 459.539 284.639 457.972 284.026 458.517C283.821 458.789 284.639 459.811 285.933 460.833C287.228 461.787 290.021 464.171 292.065 466.079C297.787 471.325 300.24 473.232 301.466 473.232C302.352 473.232 302.216 472.96 300.989 472.142C300.036 471.461 299.695 470.78 300.104 470.371C300.512 469.962 302.42 470.848 305.418 472.823C307.938 474.527 310.323 475.957 310.663 475.957C311.413 475.957 310.527 480.181 309.505 481.203C309.096 481.612 306.031 483.383 302.693 485.154C294.449 489.446 293.495 489.174 282.663 480.522C265.359 466.488 261.067 465.806 271.763 478.751C276.736 484.814 283.14 490.264 285.252 490.264C287.909 490.264 292.405 491.695 294.108 493.057C295.744 494.352 295.743 494.42 294.517 495.237C293.768 495.714 292.405 496.804 291.452 497.69C289.476 499.597 286.342 500.415 281.437 500.483C276.464 500.483 267.539 495.169 261.067 488.22C249.758 476.094 242.877 470.03 235.315 465.329C224.482 458.653 218.964 453.952 212.015 445.573C205.202 437.397 197.64 431.334 190.555 428.132C178.36 422.682 174.886 419.889 172.501 413.689C171.411 410.828 171.343 409.874 172.024 406.604C172.433 404.492 172.706 402.652 172.501 402.516C171.888 401.835 170.798 405.991 170.798 409.261C170.798 414.711 173.183 419.207 178.156 423.091L180.677 424.998L165.007 424.589C156.423 424.385 144.637 423.704 138.915 423.159C127.06 422 107.644 418.253 99.6051 415.597C87.1379 411.509 78.8263 405.241 74.7387 396.657C71.9455 390.798 71.2642 385.825 71.4686 374.107L71.673 364.569L75.0793 364.024C86.4566 362.117 95.0406 360.345 107.099 357.28C114.593 355.44 122.905 353.464 125.493 352.988C128.15 352.511 130.331 352.034 130.399 352.034C130.535 351.966 132.511 353.533 134.827 355.44ZM303.169 441.962C306.508 443.665 320.406 452.045 324.629 454.974C326.196 456.064 327.491 457.29 327.491 457.631C327.491 458.04 326.605 457.699 325.515 456.95C323.403 455.383 320.814 455.042 317.476 455.792C315.637 456.2 314.955 455.928 312.707 454.02C311.277 452.726 307.734 449.796 304.873 447.412C301.534 444.755 299.559 442.643 299.559 441.826C299.559 440.19 299.627 440.19 303.169 441.962Z" fill="#FFE7E3"/>
<path d="M311.481 128.985C290.43 130.28 263.111 133.005 257.32 134.435C252.619 135.594 244.648 139.204 245.329 139.886C245.534 140.158 246.896 139.681 248.327 138.932C252.687 136.479 259.704 134.708 269.378 133.686C277.349 132.8 306.78 130.28 315.569 129.735C318.021 129.53 318.089 129.462 316.25 129.19C315.16 128.985 312.98 128.917 311.481 128.985Z" fill="#FFE7E3"/>
<path d="M133.328 342.428C132.783 342.769 130.603 343.722 128.559 344.54C115.343 349.649 101.445 352.034 85.2984 352.102C79.3032 352.17 75.1474 352.374 76.1012 352.715C77.055 352.988 81.6195 353.192 86.3203 353.26C96.2669 353.328 110.165 351.489 119.294 348.832C125.97 346.992 135.304 343.109 135.372 342.224C135.372 341.542 134.554 341.61 133.328 342.428Z" fill="#FFE7E3"/>
</svg>
