<svg width="28" height="24" viewBox="0 0 28 24" fill="none" xmlns="http://www.w3.org/2000/svg"><path d="M27.92 3.786a.383.383 0 0 0-.143-.233c-.793-.628-2.668-3.16-3.899-2.74-1.718.587-11.16 13.01-13.254 15.748-.731-1.045-6.82-9.397-7.125-9.21-1.047.64-2.127 1.187-3.126 1.908a.443.443 0 0 0-.186.294.47.47 0 0 0-.171.5c.858 3.484 3.775 6.227 5.858 8.972 1.21 1.594 2.897 5.605 5.171 3.711.04-.032.063-.07.088-.107.446-.182.828-.536 1.228-.968 1.734-1.866 3.26-3.917 4.868-5.895 1.719-2.115 3.625-4.095 5.514-6.047 1.648-1.705 3.113-3.963 5.056-5.296.242-.168.243-.444.121-.637zM5.475 9.934a31.04 31.04 0 0 0-1.7-1.402 8.442 8.442 0 0 1 1.7 1.402zm-2.613.4a.388.388 0 0 0-.366-.106 3.56 3.56 0 0 1-.17-.627.465.465 0 0 0-.174-.3c.035-.026.067-.052.103-.078a.482.482 0 0 0 .115.282c1.316 1.558 2.8 2.948 4.139 4.485.153.177.303.355.454.533-1.422-1.348-2.676-2.85-4.1-4.19zm5.335 10.4c.132.153.265.306.4.457.157.214.316.429.48.64l.002.007c-.322-.29-.617-.699-.882-1.104zm.426-3.397c.39.345.798.673 1.227.936a.49.49 0 0 0 .012.2c.005.028.016.056.027.084a40 40 0 0 0-1.266-1.22zm1.897 4.476c0-.004 0-.008-.002-.01-.014-.033-.03-.061-.044-.092.397-.005.918-.3 1.49-.76-.505.477-1.004.812-1.444.862zM24.065 1.926c-.37.162-.68.411-.956.704.273-.39.563-.69.956-.704zm-9.18 12.023c-.22.232-.617.584-1.096 1.015.423-.422.861-.824 1.255-1.225 1.284-1.306 2.278-2.907 3.315-4.437 1.175-1.154 2.393-2.252 3.517-3.465.739-.799 1.194-2.08 2.058-2.762-.576.608-1.03 1.486-1.42 2.33-.616.649-1.16 1.382-1.732 2.093-1.815 2.26-3.903 4.359-5.896 6.45zm7.593-5.403c-.914 1.108-1.94 2.116-2.916 3.17.736-.924 1.467-1.851 2.139-2.829.052-.077.116-.185.186-.318.236-.236.472-.471.704-.711.67-.698 1.466-1.465 1.955-2.358.39-.525.817-1.045 1.3-1.358-.7 1.587-2.396 3.227-3.368 4.404z" fill="#E1CFDB"/></svg>