<svg width="164" height="150" viewBox="0 0 164 150" fill="none" xmlns="http://www.w3.org/2000/svg">
<path fill-rule="evenodd" clip-rule="evenodd" d="M91.62 3.12697C106.282 3.93532 116.634 16.5831 128.314 25.4749C140.185 34.5131 155.857 41.0513 160.18 55.3233C164.518 69.6461 153.918 83.4684 150.275 97.9827C146.046 114.834 139.142 125.849 125.137 136.148C111.188 146.407 103.136 149.707 86.4995 144.885C73.0679 140.991 56.2813 133.851 44.1537 126.893C28.9726 118.182 14.9606 114.501 6.68569 99.0888C-1.69746 83.475 3.0077 62.7866 11.9876 47.5087C20.3267 33.3212 38.0313 29.3059 52.4136 21.2902C65.3095 14.1029 76.8749 2.31403 91.62 3.12697Z" fill="#FFE7E3"/>
</svg>
