<svg width="164" height="150" viewBox="0 0 164 150" fill="none" xmlns="http://www.w3.org/2000/svg"><path fill-rule="evenodd" clip-rule="evenodd" d="M91.62 3.127c14.662.808 25.014 13.456 36.694 22.348 11.871 9.038 27.543 15.576 31.866 29.848 4.338 14.323-6.262 28.145-9.905 42.66-4.229 16.851-11.133 27.866-25.138 38.165-13.949 10.259-22.001 13.559-38.638 8.737-13.431-3.894-30.218-11.034-42.345-17.992-15.181-8.711-29.193-12.392-37.468-27.804-8.383-15.614-3.678-36.302 5.302-51.58C20.327 33.32 38.03 29.306 52.414 21.29 65.309 14.103 76.874 2.314 91.62 3.127z" fill="#FFE7E3"/></svg>