<svg width="430" height="550" viewBox="0 0 430 550" fill="none" xmlns="http://www.w3.org/2000/svg"><path d="M263.14 39.068c.201 1.305 1.451 7.509 2.663 13.858 1.284 6.369 3.379 17.65 4.611 25.1 1.232 7.451 2.87 16.027 3.561 19.029l1.279 5.506-8.548 12.134c-9.409 13.314-21.436 27.341-37.35 43.625-10.622 10.8-16.052 15.62-17.389 15.343-.365-.097-2.506-4.423-4.559-9.665-7.06-17.061-21.68-45.759-42.741-83.525-14.442-25.832-15.693-28.2-20.472-37.923-2.443-4.955-7.497-16.004-11.266-24.52C124.84-.165 125.304.74 124.656 1.116c-.648.376 8.356 21.32 16.376 38.01 3.548 7.283 12.411 24.04 19.837 37.363 24.818 44.558 36.887 68.116 44.89 87.228l4.738 11.356-4.771 2.334c-10.983 5.381-13.165 7.698-17.862 18.898-1.809 4.451-5.666 12.194-8.493 17.236-4.409 7.753-5.872 11.2-9.409 22.16-2.288 7.142-6.565 19.705-9.476 28.013-2.818 8.254-7.779 23.689-10.98 34.267-3.201 10.579-6.63 21.724-7.758 24.79-1.511 4.218-1.894 6.543-1.754 9.555.115 2.222.196 5.453.042 7.213-.08 1.779-.146 3.796-.009 4.459.113 1.048-.565.946-4.403-.23-5.482-1.769-8.285-.947-10.566 3.222-1.431 2.438-1.421 2.989.027 6.974 2.367 6.421 3.554 16.991 2.744 24.761-.989 9.914-.758 15.533.727 18.198 1.256 2.055 13.073 13.883 15.854 15.795 1.708 1.237 2.137 5.813 1.063 12.808-1.127 8.076-.083 13.286 4.088 19.403 1.797 2.669 4.821 8.091 6.727 12.12 1.979 4.048 5.365 9.879 7.596 12.976 3.76 5.304 7.655 12.758 12.27 23.69 2.449 5.817 7.818 15.384 8.842 15.656.439.117 1.306-.201 1.993-.723a165.26 165.26 0 0 1 4.244-2.709c1.666-.967 3.434-2.611 4.018-3.63l1.017-1.765 1.524 2.518c.86 1.481 2.082 4.546 2.709 6.904 1.582 6.134 5.622 13.627 7.597 14.151 3.439.913 9.697-5.253 11.211-10.957 1.593-5.996-.419-21.717-4.058-31.607-1.061-2.787-1.776-5.403-1.64-5.915.486-1.828-.392-10.907-1.613-16.633-2.524-12.021-3.161-18.765-2.324-24.571.43-3.095.831-6.668.883-7.75-.007-2.037.086-2.091 1.794-.854.927.637 2.585 1.469 3.683 1.761 3.145.835 10.72-1.146 15.645-4.065 2.446-1.542 4.552-2.392 4.581-1.915.473 4.118 4.147 15.349 6.262 18.885 2.042 3.517 3.346 4.803 5.99 6.053 1.804.87 4.175 1.97 5.268 2.573 2.298 1.08 5.763.121 7.374-2.112 1.349-1.834 3.065-15.077 2.804-21.174-.115-2.223.731-8.652 1.88-14.453 1.13-5.727 2.049-12.137 1.969-14.194l-.112-3.708 5.616-4.928c8.105-6.928 11.81-11.737 14.494-18.305 1.274-3.027 4.434-10.799 7.006-17.239a2034.39 2034.39 0 0 1 7.901-19.43c2.129-5.07 3.592-9.692 4.177-13.372.504-3.076 4.552-18.909 8.956-35.197 9.001-33.305 9.315-35.962 6.937-47.944-1.147-5.706-8.59-25.452-16.216-42.742l-3.534-8.219 10.414-9.133c19.862-17.583 44.792-37.735 69.403-56.092 20.713-15.479 49.251-40.073 46.199-39.788-.478.03-7.745 6.163-16.225 13.617-8.48 7.455-19.425 16.526-24.233 20.18-30.661 22.857-53.082 40.935-75.21 60.265-8.275 7.274-20.706 17.516-27.594 22.81-16.226 12.443-21.696 17.41-26.106 23.988-4.239 6.233-6.916 14.837-6.971 22.416-.056 6.404 2.254 18.055 5.34 26.781 2.064 5.793 2.525 8.186 2.159 11.924-.93 9.695-6.185 18.867-11.98 20.929-6.145 2.204-13.452 8.483-25.825 22.341-7.932 8.931-11.358 14.753-11.182 19.105.152 4.737 2.517 9.984 6.081 13.67 3.221 3.204 3.275 3.297.758 2.159-3.283-1.498-4.896-.439-5.822 3.933-.393 1.775-1.113 3.306-1.537 3.428-1.272.367-2.062 4.227-1.615 7.556.516 3.659.555 3.513-1.493 2.969-1.244-.33-2.357-2.035-4.235-6.761-9.07-22.761-17.346-29.343-28.84-22.923-4.61 2.611-4.883 6.296-1.322 16.479 1.57 4.409 3.984 17.732 4.189 22.561.123 5.434 4.259 11.386 12.912 18.616 4.026 3.417 8.614 7.376 10.171 8.885 1.557 1.509 4.148 3.842 5.817 5.224 2.884 2.41 3.046 2.688 2.821 6.777-.144 2.31-.817 5.732-1.469 7.595-.841 2.281-1.044 3.636-.517 4.011.473.282.787 1.461.788 2.636.021 1.101.993 7.466 2.2 14.127 1.938 10.691 2.374 16.13 1.972 23.538-.13 1.375.246 2.023.963 1.978 1.36-.108 3.333 6.913 4.925 17.434.751 5.131.76 8.343.004 12.369-.611 2.891-1.325 5.285-1.545 5.226-.292-.077-1.709-2.411-3.175-5.148-3.053-5.9-6.377-8.426-10.476-8.027-2.428.294-2.609.09-5.422-4.65-2.726-4.481-9.5-23.502-16.992-47.488-3.983-12.722-4.086-13.219-4.362-24.565-.456-15.386-4.001-45.682-4.401-37.099-.052 1.082-.021 2.734-.035 3.669.075 1.194-.227 1.741-.739 1.605-.439-.117-.834-.692-.845-1.242-.029-.478.031-3.358.13-6.385.099-3.027-.998-10.989-2.508-18.279l-2.623-12.83 2.365-8.609c1.51-5.392 2.087-8.448 1.531-8.126-.462.268-1.857 4.047-3.096 8.415-2.01 6.981-2.14 8.355-1.415 11.522.485 2.008.643 3.772.438 3.953-.258.088-1.366-.755-2.469-1.909-2.948-3.053-7.596-4.13-12.148-2.913l-3.631.993-1.199-3.45c-1.477-4.462-.657-7.846 3.349-13.201 3.428-4.647 5.597-8.69 4.72-8.923-.513-.136-7.02 9.33-8.796 12.772-1.172 2.351-1.684 2.215-2.595-.845-.818-3.114.527-8.471 3.015-11.646 2.823-3.556 4.181-6.013 3.766-6.515-.254-.224-1.802 1.478-3.506 3.766-1.631 2.306-3.218 4.155-3.511 4.077-1.243-.33-.462-7.402 1.511-13.063 1.113-3.305 4.829-15.234 8.244-26.618 3.415-11.383 8.351-26.433 10.859-33.517 2.581-7.064 5.462-15.849 6.433-19.505 2.816-10.603 6.89-20.637 12.335-30.229 2.715-4.915 6.402-12.312 8.133-16.471 4.26-10.141 6.237-12.277 16.708-17.794 10.101-5.303 12.59-7.303 27.389-22.63 14.985-15.434 26.174-28.667 35.267-41.673 8.08-11.554 29.212-40.699 39.678-54.75 3.5-4.628 6.129-8.627 5.967-8.904-.161-.278-.453-.356-.639-.248-.462.268-14.487 19.167-26.964 36.363-5.321 7.355-9.868 13.27-10.087 13.212-.585-.155-3.487-13.999-5.564-26.527-2.719-16.3-6.818-36.255-7.549-36.449-.439-.116-.58.707-.378 2.014zm41.338 153.684c7.195 16.549 15.723 38.697 16.845 43.614 2.607 11.416 2.501 12.406-9.101 56.685-9.626 37.132-10.496 40.11-14.425 49.008-2.334 5.252-6.029 14.447-8.338 20.487-2.864 7.538-5.023 12.131-6.932 14.599-2.828 3.867-13.27 13.697-14.148 13.464-.365-.097-.588-2.504-.581-5.477-.013-2.9-.539-10.946-1.21-17.856-.744-6.93-1.093-13.285-.86-14.163.564-2.12 2.363-2.112 5.837.141 1.654 1.144 3.078 1.679 3.175 1.313.253-.951-2.821-2.941-5.748-3.718l-2.487-.661 1.165-4.387c1.243-4.68 2.611-6.587 9.575-13.348 1.992-1.898 5.708-6.156 8.195-9.331 2.488-3.175 7.202-7.951 10.51-10.674 3.234-2.742 6.585-5.922 7.466-7.176 1.727-2.672 4.398-12.139 3.836-13.854-.284-.702-.974 1.307-2.042 5.328-1.815 7.425-2.394 8.132-11.259 15.563-3.03 2.561-7.243 6.922-9.375 9.644-6.903 8.891-21.45 23.267-27.584 27.196-5.208 3.392-21.532 11.191-24.866 11.949-3.905.842-11.337-.662-13.675-2.77-4.221-3.861-6.779-11.038-5.556-15.645.971-3.656 3.896-7.889 11.605-16.566 12.056-13.551 18.763-19.05 27.049-21.938 5.37-1.939 7.928-3.608 4.876-3.323-1.048.113-1.043-.199.012-2.11.623-1.166 2.256-6.134 3.537-10.96l2.331-8.775-2.784-8.097c-3.952-11.07-5.787-21.264-4.429-23.721 1.528-2.804 8.276-6.1 14.331-7.076 4.987-.789 6.853-1.624 4.878-2.149-2.049-.543-12.688 2.659-16.172 4.865-2.075 1.327-3.98 2.309-4.088 2.124-.088-.259.08-2.954.437-6.069 1.157-11.434 7.811-20.861 22.722-32.48 4.662-3.693 12.051-9.402 16.416-12.862 4.345-3.386 8.111-6.065 8.311-5.934.273.151 1.378 2.48 2.551 5.14zm-39.319 174.301c2.019 17.758 1.743 31.775-.637 43.981-1.13 5.727-2.134 10.392-2.3 10.427-.073-.02-2.569-.056-5.616-.083-3.286-.011-6.304.44-7.673 1.172l-2.149 1.308-.255 7.447c-.151 4.109.186 8.739.748 10.454 1.766 4.853-.654 3.349-4.02-2.555-2.076-3.683-3.358-7.702-4.81-15.211-2.588-12.665-2.91-17.056-1.663-22.048.855-3.217.825-3.695-.159-2.938-1.077.81-1.311.513-2.256-2.713-1.601-6.061-2.969-16.836-2.835-23.533.069-3.504-.042-7.213-.175-8.187-.236-1.472.193-1.906 2.479-2.551 5.327-1.482 24.438-11.515 28.417-14.999l4.053-3.464-1.212 6.332c-.974 5.143-1 8.189.063 17.161zm-75.486-15.663c3.841 3.525 6.029 7.081 10.297 16.668 4.409 9.938 5.331 14.724 3.389 18.2-.564.946-.632 1.79-.193 1.906.366.097 1.198-1.56 1.8-3.827l1.068-4.022 2.487.66c1.61.428 5.079 2.993 9.755 7.209 9.658 8.75 10.254 9.456 11.492 13.934 1.117 4.053 2.438 4.091 1.561.022-.814-3.425-3.187-6.873-7.682-10.885-2.138-1.977-4.056-3.895-4.178-4.319-.279-1.014 4.653-6.906 7.995-9.463 2.265-1.747 2.523-1.835 2.632-.475.381 5.346 2.606 19.088 3.432 21.578.582 1.642 1.192 6.422 1.426 10.555.234 4.133.507 8.119.551 8.835.394 3.236-13.889 9.541-18.717 8.259-3.146-.835-9.216-5.109-13.267-9.316-1.899-1.992-5.398-5.034-7.741-6.831-11.711-8.981-16.955-15.775-17.157-22.091-.081-2.057-.524-5.697-1.004-8.016-.48-2.32-.853-4.454-.795-4.674.058-.219 1.267-.054 2.657.315 3.731.991 5.689-1.073 6.73-7.059 1.323-7.633.939-10.318-1.725-12.67-1.269-1.12-3.685-2.935-5.304-3.913l-2.894-1.786 2.349-1.177c2.958-1.406 7.991-.305 11.036 2.383zm40.512 14.359c.252 6.721-.171 8.018-3.961 11.082-2.006 1.659-4.67 4.318-5.96 5.932l-2.337 2.902-3.324-2.526c-2.322-1.87-3.494-3.355-3.818-5.085-.48-2.32-.271-2.812 2.514-6.221 1.626-1.995 2.57-3.78 2.204-3.877-.439-.116-1.666.967-2.845 2.454-1.158 1.415-2.308 2.205-2.411 1.708-.176-.516.466-1.755 1.454-2.823 1.008-1.141 1.728-2.672 1.727-3.847.075-2.642 1.873-3.808 4.17-2.728 1.039.511 3.736.679 5.925.399 5.664-.688 6.503-.308 6.662 2.63zm-49.191-10.871c1.961 1.46 3.792 3.12 4.095 3.749.997 2.143.12 11.93-1.228 13.764-1.368 1.907-4.005 2.694-5.532 1.662-2.689-1.966-7.501-19.527-5.89-21.76 1.013-1.454 4.119-.472 8.555 2.585zm-36.872 1.715c1.467 3.912 1.501 4.078-.291 6.107-1.85 2.248-2.081 4.301-1.718 14.73.099 1.983-.602 7.277-1.586 11.869-1.121 5.104-1.632 9.978-1.488 12.678l.249 4.371-1.884-1.752c-8.589-7.761-9.528-10.124-8.561-21.14.708-8.266.557-7.993 2.729-5.851 1.937 1.846 1.937 1.846 4.7-.004 3.279-2.026 4.178-4.527 3.991-10.604-.092-3.782-.254-4.06-2.917-5.237-4.415-1.955-8.08-4.963-7.711-6.353.447-1.682 3.233-3.916 5.33-4.142.901-.152 3.027.099 4.637.527 2.633.699 3.048 1.201 4.52 4.801zm17.227 5.906c2.265 2.088 5.299 8.061 6.157 12.203 2.583 11.801 1.248 21.545-3.699 27.198-1.641 1.757-2.824 3.556-2.662 3.834.483.833 4.491-3.348 6.355-6.532 1.338-2.385 1.859-2.872 3.117-2.303 1.205.476 1.71 2.411 2.512 9.121.556 4.688 1.121 12.588 1.361 17.583l.254 9.07-1.887-.266c-4.857-.586-11.82-5.331-20.381-13.789-12.979-12.762-13.546-14.165-11.025-27.195l1.367-6.917 1.449 1.324c3.08 2.853 7.878-1.352 10.954-9.694 1.376-3.705 1.4-4.09-.114-6.058-.864-1.169-3.241-3.131-5.241-4.445-4.147-2.667-4.149-3.841.335-5.39 3.451-1.198 8.43-.188 11.148 2.256zm-29.012-2.225c1.6 1.051 3.767 2.331 4.733 2.822 3.171 1.625 2.338 10.954-1.243 13.526-1.559 1.151-2.037 1.181-3.452.023-.961-.804-2.031-2.967-2.463-4.882-1.117-5.228-1.839-13.718-1.18-13.543.366.097 1.932.983 3.605 2.054zm18.668 7.854c3.903 2.993 4.388 5.001 2.531 9.048-3.371 7.089-6.031 9.436-8.519 7.601-1.454-1.013-2.333-18.937-.993-20.147.745-.742 3.223.543 6.981 3.498zm111.357 56.345c.479 1.144-.658 17.516-1.473 20.588-.544 2.047-3.779 3.614-6.047 3.012-5.414-1.437-7.555-6.938-6.939-17.812.431-6.931.825-7.53 6.354-7.706 4.685-.243 7.392.476 8.105 1.918zm-102.739 2.619c1.796 1.494 5.875 3.83 9.084 5.309l5.874 2.655 1.102 4.99c2.332 10.091 14.53 47.617 17.843 54.603 1.691 3.659 1.494 5.877-.619 8.525-2.055 2.429-3.63 2.167-5.496-.833-3.087-4.891-5.869-7.978-7.771-8.483-1.317-.35-2.665-2.352-5.534-8.358-1.994-4.287-4.945-9.69-6.434-12.042-3.16-4.91-8.177-13.444-15.764-27.045-4.563-8.178-5.414-10.283-5.491-13.826-.076-2.369.13-5.21.46-6.453.331-1.244.556-4.158.588-6.342l.005-4.147 4.398 4.377c2.499 2.386 5.959 5.575 7.755 7.07zm48.305 79.68c2.488 1.835 6.559 9.804 6.034 11.779-.563 2.12-4.012 4.492-5.768 4.026-2.268-.602-8.194-16.032-6.723-17.442.837-.795 4.349.137 6.457 1.637z" fill="#FFE7E3"/><path d="M227.401 331.114c-11.113 6.756-13.344 12.504-7.845 20.697 2.93 4.3 7.214 7.63 10.003 7.744 3.248.158 9.898-3.947 13.949-8.585 4.105-4.546 4.528-5.843 3.334-9.605-1.419-4.682-8.371-12.712-11.809-13.625-.732-.195-4.187 1.315-7.632 3.374zm13.216 2.727c3.52 4.145 5.871 9.153 5.288 11.346-1.359 5.119-13.274 14.01-17.371 12.922-2.853-.758-9.375-8.048-10.027-11.196-1.054-4.585.444-7.866 5.237-11.76 2.378-1.873 5.695-4.045 7.323-4.866 3.659-1.689 5.723-.907 9.55 3.554z" fill="#FFE7E3"/></svg>