<svg width="430" height="550" viewBox="0 0 430 550" fill="none" xmlns="http://www.w3.org/2000/svg">
<path d="M263.14 39.0675C263.341 40.3734 264.591 46.5765 265.803 52.9259C267.087 59.2947 269.182 70.5754 270.414 78.0262C271.646 85.477 273.284 94.0532 273.975 97.0548L275.254 102.561L266.706 114.695C257.297 128.009 245.27 142.036 229.356 158.32C218.734 169.12 213.304 173.94 211.967 173.663C211.602 173.566 209.461 169.24 207.408 163.998C200.348 146.937 185.728 118.239 164.667 80.4727C150.225 54.6406 148.974 52.2731 144.195 42.5496C141.752 37.5952 136.698 26.5463 132.929 18.0305C124.84 -0.16547 125.304 0.740624 124.656 1.11649C124.008 1.49239 133.012 22.4362 141.032 39.1262C144.58 46.4092 153.443 63.1666 160.869 76.4894C185.687 121.047 197.756 144.605 205.759 163.717L210.497 175.073L205.726 177.407C194.743 182.788 192.561 185.105 187.864 196.305C186.055 200.756 182.198 208.499 179.371 213.541C174.962 221.294 173.499 224.741 169.962 235.701C167.674 242.843 163.397 255.406 160.486 263.714C157.668 271.968 152.707 287.403 149.506 297.981C146.305 308.56 142.876 319.705 141.748 322.771C140.237 326.989 139.854 329.314 139.994 332.326C140.109 334.548 140.19 337.779 140.036 339.539C139.956 341.318 139.89 343.335 140.027 343.998C140.14 345.046 139.462 344.944 135.624 343.768C130.142 341.999 127.339 342.821 125.058 346.99C123.627 349.428 123.637 349.979 125.085 353.964C127.452 360.385 128.639 370.955 127.829 378.725C126.84 388.639 127.071 394.258 128.556 396.923C129.812 398.978 141.629 410.806 144.41 412.718C146.118 413.955 146.547 418.531 145.473 425.526C144.346 433.602 145.39 438.812 149.561 444.929C151.358 447.598 154.382 453.02 156.288 457.049C158.267 461.097 161.653 466.928 163.884 470.025C167.644 475.329 171.539 482.783 176.154 493.715C178.603 499.532 183.972 509.099 184.996 509.371C185.435 509.488 186.302 509.17 186.989 508.648C187.657 508.199 189.547 506.979 191.233 505.939C192.899 504.972 194.667 503.328 195.251 502.309L196.268 500.544L197.792 503.062C198.652 504.543 199.874 507.608 200.501 509.966C202.083 516.1 206.123 523.593 208.098 524.117C211.537 525.03 217.795 518.864 219.309 513.16C220.902 507.164 218.89 491.443 215.251 481.553C214.19 478.766 213.475 476.15 213.611 475.638C214.097 473.81 213.219 464.731 211.998 459.005C209.474 446.984 208.837 440.24 209.674 434.434C210.104 431.339 210.505 427.766 210.557 426.684C210.55 424.647 210.643 424.593 212.351 425.83C213.278 426.467 214.936 427.299 216.034 427.591C219.179 428.426 226.754 426.445 231.679 423.526C234.125 421.984 236.231 421.134 236.26 421.611C236.733 425.729 240.407 436.96 242.522 440.496C244.564 444.013 245.868 445.299 248.512 446.549C250.316 447.419 252.687 448.519 253.78 449.122C256.078 450.202 259.543 449.243 261.154 447.01C262.503 445.176 264.219 431.933 263.958 425.836C263.843 423.613 264.689 417.184 265.838 411.383C266.968 405.656 267.887 399.246 267.807 397.189L267.695 393.481L273.311 388.553C281.416 381.625 285.121 376.816 287.805 370.248C289.079 367.221 292.239 359.449 294.811 353.009C297.383 346.568 300.961 337.811 302.712 333.579C304.841 328.509 306.304 323.887 306.889 320.207C307.393 317.131 311.441 301.298 315.845 285.01C324.846 251.705 325.16 249.048 322.782 237.066C321.635 231.36 314.192 211.614 306.566 194.324L303.032 186.105L313.446 176.972C333.308 159.389 358.238 139.237 382.849 120.88C403.562 105.401 432.1 80.8065 429.048 81.092C428.57 81.1216 421.303 87.2546 412.823 94.7094C404.343 102.164 393.398 111.235 388.59 114.889C357.929 137.746 335.508 155.824 313.38 175.154C305.105 182.428 292.674 192.67 285.786 197.964C269.56 210.407 264.09 215.374 259.68 221.952C255.441 228.185 252.764 236.789 252.709 244.368C252.653 250.772 254.963 262.423 258.049 271.149C260.113 276.942 260.574 279.335 260.208 283.073C259.278 292.768 254.023 301.94 248.228 304.002C242.083 306.206 234.776 312.485 222.403 326.343C214.471 335.274 211.045 341.096 211.221 345.448C211.373 350.185 213.738 355.432 217.302 359.118C220.523 362.322 220.577 362.415 218.06 361.277C214.777 359.779 213.164 360.838 212.238 365.21C211.845 366.985 211.125 368.516 210.701 368.638C209.429 369.005 208.639 372.865 209.086 376.194C209.602 379.853 209.641 379.707 207.593 379.163C206.349 378.833 205.236 377.128 203.358 372.402C194.288 349.641 186.012 343.059 174.518 349.479C169.908 352.09 169.635 355.775 173.196 365.958C174.766 370.367 177.18 383.69 177.385 388.519C177.508 393.953 181.644 399.905 190.297 407.135C194.323 410.552 198.911 414.511 200.468 416.02C202.025 417.529 204.616 419.862 206.285 421.244C209.169 423.654 209.331 423.932 209.106 428.021C208.962 430.331 208.289 433.753 207.637 435.616C206.796 437.897 206.593 439.252 207.12 439.627C207.593 439.909 207.907 441.088 207.908 442.263C207.929 443.364 208.901 449.729 210.108 456.39C212.046 467.081 212.482 472.52 212.08 479.928C211.95 481.303 212.326 481.951 213.043 481.906C214.403 481.798 216.376 488.819 217.968 499.34C218.719 504.471 218.728 507.683 217.972 511.709C217.361 514.6 216.647 516.994 216.427 516.935C216.135 516.858 214.718 514.524 213.252 511.787C210.199 505.887 206.875 503.361 202.776 503.76C200.348 504.054 200.167 503.85 197.354 499.11C194.628 494.629 187.854 475.608 180.362 451.622C176.379 438.9 176.276 438.403 176 427.057C175.544 411.671 171.999 381.375 171.599 389.958C171.547 391.04 171.578 392.692 171.564 393.627C171.639 394.821 171.337 395.368 170.825 395.232C170.386 395.115 169.991 394.54 169.98 393.99C169.951 393.512 170.011 390.632 170.11 387.605C170.209 384.578 169.112 376.616 167.602 369.326L164.979 356.496L167.344 347.887C168.854 342.495 169.431 339.439 168.875 339.761C168.413 340.029 167.018 343.808 165.779 348.176C163.769 355.157 163.639 356.531 164.364 359.698C164.849 361.706 165.007 363.47 164.802 363.651C164.544 363.739 163.436 362.896 162.333 361.742C159.385 358.689 154.737 357.612 150.185 358.829L146.554 359.822L145.355 356.372C143.878 351.91 144.698 348.526 148.704 343.171C152.132 338.524 154.301 334.481 153.424 334.248C152.911 334.112 146.404 343.578 144.628 347.02C143.456 349.371 142.944 349.235 142.033 346.175C141.215 343.061 142.56 337.704 145.048 334.529C147.871 330.973 149.229 328.516 148.814 328.014C148.56 327.79 147.012 329.492 145.308 331.78C143.677 334.086 142.09 335.935 141.797 335.857C140.554 335.527 141.335 328.455 143.308 322.794C144.421 319.489 148.137 307.56 151.552 296.176C154.967 284.793 159.903 269.743 162.411 262.659C164.992 255.595 167.873 246.81 168.844 243.154C171.66 232.551 175.734 222.517 181.179 212.925C183.894 208.01 187.581 200.613 189.312 196.454C193.572 186.313 195.549 184.177 206.02 178.66C216.121 173.357 218.61 171.357 233.409 156.03C248.394 140.596 259.583 127.363 268.676 114.357C276.756 102.803 297.888 73.6584 308.354 59.6076C311.854 54.9792 314.483 50.9803 314.321 50.7027C314.16 50.425 313.868 50.3473 313.682 50.4547C313.22 50.7232 299.195 69.6218 286.718 86.818C281.397 94.1725 276.85 100.088 276.631 100.03C276.046 99.8748 273.144 86.0312 271.067 73.5028C268.348 57.2027 264.249 37.2485 263.518 37.0542C263.079 36.9377 262.938 37.7615 263.14 39.0675ZM304.478 192.752C311.673 209.301 320.201 231.449 321.323 236.366C323.93 247.782 323.824 248.772 312.222 293.051C302.596 330.183 301.726 333.161 297.797 342.059C295.463 347.311 291.768 356.506 289.459 362.546C286.595 370.084 284.436 374.677 282.527 377.145C279.699 381.012 269.257 390.842 268.379 390.609C268.014 390.512 267.791 388.105 267.798 385.132C267.785 382.232 267.259 374.186 266.588 367.276C265.844 360.346 265.495 353.991 265.728 353.113C266.292 350.993 268.091 351.001 271.565 353.254C273.219 354.398 274.643 354.933 274.74 354.567C274.993 353.616 271.919 351.626 268.992 350.849L266.505 350.188L267.67 345.801C268.913 341.121 270.281 339.214 277.245 332.453C279.237 330.555 282.953 326.297 285.44 323.122C287.928 319.947 292.642 315.171 295.95 312.448C299.184 309.706 302.535 306.526 303.416 305.272C305.143 302.6 307.814 293.133 307.252 291.418C306.968 290.716 306.278 292.725 305.21 296.746C303.395 304.171 302.816 304.878 293.951 312.309C290.921 314.87 286.708 319.231 284.576 321.953C277.673 330.844 263.126 345.22 256.992 349.149C251.784 352.541 235.46 360.34 232.126 361.098C228.221 361.94 220.789 360.436 218.451 358.328C214.23 354.467 211.672 347.29 212.895 342.683C213.866 339.027 216.791 334.794 224.5 326.117C236.556 312.566 243.263 307.067 251.549 304.179C256.919 302.24 259.477 300.571 256.425 300.856C255.377 300.969 255.382 300.657 256.437 298.746C257.06 297.58 258.693 292.612 259.974 287.786L262.305 279.011L259.521 270.914C255.569 259.844 253.734 249.65 255.092 247.193C256.62 244.389 263.368 241.093 269.423 240.117C274.41 239.328 276.276 238.493 274.301 237.968C272.252 237.425 261.613 240.627 258.129 242.833C256.054 244.16 254.149 245.142 254.041 244.957C253.953 244.698 254.121 242.003 254.478 238.888C255.635 227.454 262.289 218.027 277.2 206.408C281.862 202.715 289.251 197.006 293.616 193.546C297.961 190.16 301.727 187.481 301.927 187.612C302.2 187.763 303.305 190.092 304.478 192.752ZM265.159 367.053C267.178 384.811 266.902 398.828 264.522 411.034C263.392 416.761 262.388 421.426 262.222 421.461C262.149 421.441 259.653 421.405 256.606 421.378C253.32 421.367 250.302 421.818 248.933 422.55L246.784 423.858L246.529 431.305C246.378 435.414 246.715 440.044 247.277 441.759C249.043 446.612 246.623 445.108 243.257 439.204C241.181 435.521 239.899 431.502 238.447 423.993C235.859 411.328 235.537 406.937 236.784 401.945C237.639 398.728 237.609 398.25 236.625 399.007C235.548 399.817 235.314 399.52 234.369 396.294C232.768 390.233 231.4 379.458 231.534 372.761C231.603 369.257 231.492 365.548 231.359 364.574C231.123 363.102 231.552 362.668 233.838 362.023C239.165 360.541 258.276 350.508 262.255 347.024L266.308 343.56L265.096 349.892C264.122 355.035 264.096 358.081 265.159 367.053ZM189.673 351.39C193.514 354.915 195.702 358.471 199.97 368.058C204.379 377.996 205.301 382.782 203.359 386.258C202.795 387.204 202.727 388.048 203.166 388.164C203.532 388.261 204.364 386.604 204.966 384.337L206.034 380.315L208.521 380.975C210.131 381.403 213.6 383.968 218.276 388.184C227.934 396.934 228.53 397.64 229.768 402.118C230.885 406.171 232.206 406.209 231.329 402.14C230.515 398.715 228.142 395.267 223.647 391.255C221.509 389.278 219.591 387.36 219.469 386.936C219.19 385.922 224.122 380.03 227.464 377.473C229.729 375.726 229.987 375.638 230.096 376.998C230.477 382.344 232.702 396.086 233.528 398.576C234.11 400.218 234.72 404.998 234.954 409.131C235.188 413.264 235.461 417.25 235.505 417.966C235.899 421.202 221.616 427.507 216.788 426.225C213.642 425.39 207.572 421.116 203.521 416.909C201.622 414.917 198.123 411.875 195.78 410.078C184.069 401.097 178.825 394.303 178.623 387.987C178.542 385.93 178.099 382.29 177.619 379.971C177.139 377.651 176.766 375.517 176.824 375.297C176.882 375.078 178.091 375.243 179.481 375.612C183.212 376.603 185.17 374.539 186.211 368.553C187.534 360.92 187.15 358.235 184.486 355.883C183.217 354.763 180.801 352.948 179.182 351.97L176.288 350.184L178.637 349.007C181.595 347.601 186.628 348.702 189.673 351.39ZM230.185 365.749C230.437 372.47 230.014 373.767 226.224 376.831C224.218 378.49 221.554 381.149 220.264 382.763L217.927 385.665L214.603 383.139C212.281 381.269 211.109 379.784 210.785 378.054C210.305 375.734 210.514 375.242 213.299 371.833C214.925 369.838 215.869 368.053 215.503 367.956C215.064 367.84 213.837 368.923 212.658 370.41C211.5 371.825 210.35 372.615 210.247 372.118C210.071 371.602 210.713 370.363 211.701 369.295C212.709 368.154 213.429 366.623 213.428 365.448C213.503 362.806 215.301 361.64 217.598 362.72C218.637 363.231 221.334 363.399 223.523 363.119C229.187 362.431 230.026 362.811 230.185 365.749ZM180.994 354.878C182.955 356.338 184.786 357.998 185.089 358.627C186.086 360.77 185.209 370.557 183.861 372.391C182.493 374.298 179.856 375.085 178.329 374.053C175.64 372.087 170.828 354.526 172.439 352.293C173.452 350.839 176.558 351.821 180.994 354.878ZM144.122 356.593C145.589 360.505 145.623 360.671 143.831 362.7C141.981 364.948 141.75 367.001 142.113 377.43C142.212 379.413 141.511 384.707 140.527 389.299C139.406 394.403 138.895 399.277 139.039 401.977L139.288 406.348L137.404 404.596C128.815 396.835 127.876 394.472 128.843 383.456C129.551 375.19 129.4 375.463 131.572 377.605C133.509 379.451 133.509 379.451 136.272 377.601C139.551 375.575 140.45 373.074 140.263 366.997C140.171 363.215 140.009 362.937 137.346 361.76C132.931 359.805 129.266 356.797 129.635 355.407C130.082 353.725 132.868 351.491 134.965 351.265C135.866 351.113 137.992 351.364 139.602 351.792C142.235 352.491 142.65 352.993 144.122 356.593ZM161.349 362.499C163.614 364.587 166.648 370.56 167.506 374.702C170.089 386.503 168.754 396.247 163.807 401.9C162.166 403.657 160.983 405.456 161.145 405.734C161.628 406.567 165.636 402.386 167.5 399.202C168.838 396.817 169.359 396.33 170.617 396.899C171.822 397.375 172.327 399.31 173.129 406.02C173.685 410.708 174.25 418.608 174.49 423.603L174.744 432.673L172.857 432.407C168 431.821 161.037 427.076 152.476 418.618C139.497 405.856 138.93 404.453 141.451 391.423L142.818 384.506L144.267 385.83C147.347 388.683 152.145 384.478 155.221 376.136C156.597 372.431 156.621 372.046 155.107 370.078C154.243 368.909 151.866 366.947 149.866 365.633C145.719 362.966 145.717 361.792 150.201 360.243C153.652 359.045 158.631 360.055 161.349 362.499ZM132.337 360.274C133.937 361.325 136.104 362.605 137.07 363.096C140.241 364.721 139.408 374.05 135.827 376.622C134.268 377.773 133.79 377.803 132.375 376.645C131.414 375.841 130.344 373.678 129.912 371.763C128.795 366.535 128.073 358.045 128.732 358.22C129.098 358.317 130.664 359.203 132.337 360.274ZM151.005 368.128C154.908 371.121 155.393 373.129 153.536 377.176C150.165 384.265 147.505 386.612 145.017 384.777C143.563 383.764 142.684 365.84 144.024 364.63C144.769 363.888 147.247 365.173 151.005 368.128ZM262.362 424.473C262.841 425.617 261.704 441.989 260.889 445.061C260.345 447.108 257.11 448.675 254.842 448.073C249.428 446.636 247.287 441.135 247.903 430.261C248.334 423.33 248.728 422.731 254.257 422.555C258.942 422.312 261.649 423.031 262.362 424.473ZM159.623 427.092C161.419 428.586 165.498 430.922 168.707 432.401L174.581 435.056L175.683 440.046C178.015 450.137 190.213 487.663 193.526 494.649C195.217 498.308 195.02 500.526 192.907 503.174C190.852 505.603 189.277 505.341 187.411 502.341C184.324 497.45 181.542 494.363 179.64 493.858C178.323 493.508 176.975 491.506 174.106 485.5C172.112 481.213 169.161 475.81 167.672 473.458C164.512 468.548 159.495 460.014 151.908 446.413C147.345 438.235 146.494 436.13 146.417 432.587C146.341 430.218 146.547 427.377 146.877 426.134C147.208 424.89 147.433 421.976 147.465 419.792L147.47 415.645L151.868 420.022C154.367 422.408 157.827 425.597 159.623 427.092ZM207.928 506.772C210.416 508.607 214.487 516.576 213.962 518.551C213.399 520.671 209.95 523.043 208.194 522.577C205.926 521.975 200 506.545 201.471 505.135C202.308 504.34 205.82 505.272 207.928 506.772Z" fill="#FFE7E3"/>
<path d="M227.401 331.114C216.288 337.87 214.057 343.618 219.556 351.811C222.486 356.111 226.77 359.441 229.559 359.555C232.807 359.713 239.457 355.608 243.508 350.97C247.613 346.424 248.036 345.127 246.842 341.365C245.423 336.683 238.471 328.653 235.033 327.74C234.301 327.545 230.846 329.055 227.401 331.114ZM240.617 333.841C244.137 337.986 246.488 342.994 245.905 345.187C244.546 350.306 232.631 359.197 228.534 358.109C225.681 357.351 219.159 350.061 218.507 346.913C217.453 342.328 218.951 339.047 223.744 335.153C226.122 333.28 229.439 331.108 231.067 330.287C234.726 328.598 236.79 329.38 240.617 333.841Z" fill="#FFE7E3"/>
</svg>
