<svg width="677" height="121" viewBox="0 0 677 121" fill="none" xmlns="http://www.w3.org/2000/svg"><path opacity=".6" d="M25.54 97.44c-4.64 0-8.88-1.24-12.72-3.72-3.84-2.4-6.88-5.84-9.12-10.32C1.46 78.92.34 73.56.34 67.32c0-6.16.96-12.36 2.88-18.6a82.1 82.1 0 0 1 7.92-18c3.36-5.76 7.28-10.88 11.76-15.36 4.48-4.56 9.24-8.12 14.28-10.68C42.3 2.04 47.54.72 52.9.72c.8 0 1.96.16 3.48.48 1.6.32 3.16 1.28 4.68 2.88-.48-.08-1.04-.12-1.68-.12-.56-.08-1.16-.12-1.8-.12-4.16 0-8.36 1.32-12.6 3.96-4.24 2.56-8.28 6.04-12.12 10.44-3.84 4.4-7.28 9.4-10.32 15a90.185 90.185 0 0 0-7.08 17.28c-1.76 6-2.64 11.84-2.64 17.52 0 4.16.56 8.04 1.68 11.64 1.12 3.6 2.92 6.48 5.4 8.64 2.48 2.24 5.76 3.36 9.84 3.36 4.4 0 8.52-1.32 12.36-3.96 3.84-2.64 7.32-6.16 10.44-10.56 3.12-4.48 5.8-9.44 8.04-14.88a98.157 98.157 0 0 0 5.16-16.92c1.2-5.84 1.8-11.4 1.8-16.68 0-2.32-.16-4.8-.48-7.44-.32-2.72-.88-5.04-1.68-6.96-.72-1.92-1.8-2.88-3.24-2.88-1.36 0-2.84.88-4.44 2.64-1.6 1.68-3.16 3.84-4.68 6.48a68.044 68.044 0 0 0-4.08 8.4c-1.12 2.88-1.92 5.48-2.4 7.8-2.72-.56-4.68-1.44-5.88-2.64-1.12-1.2-1.68-2.64-1.68-4.32 0-2.16.76-4.56 2.28-7.2 1.52-2.64 3.48-5.16 5.88-7.56 2.48-2.48 5.04-4.52 7.68-6.12 2.72-1.6 5.24-2.4 7.56-2.4 2.4 0 4.32.88 5.76 2.64 1.52 1.68 2.68 3.88 3.48 6.6.8 2.72 1.36 5.64 1.68 8.76.32 3.04.48 5.88.48 8.52 0 8.16-1 15.64-3 22.44-2 6.72-4.72 12.68-8.16 17.88-3.36 5.2-7.16 9.6-11.4 13.2-4.16 3.6-8.48 6.32-12.96 8.16-4.4 1.84-8.64 2.76-12.72 2.76zm57.775-6.84c-2.72 0-4.96-1.24-6.72-3.72-1.68-2.56-2.52-5.48-2.52-8.76 0-2.24.36-4.88 1.08-7.92.72-3.04 1.64-6 2.76-8.88 1.2-2.88 2.4-5.28 3.6-7.2 1.28-1.92 2.44-2.88 3.48-2.88.56 0 1.4.32 2.52.96 1.2.56 2.24 1.28 3.12 2.16-.88 1.28-1.96 3.24-3.24 5.88-1.2 2.64-2.28 5.48-3.24 8.52-.96 3.04-1.44 5.8-1.44 8.28 0 .32.04 1.08.12 2.28.16 1.2.48 2.32.96 3.36s1.32 1.56 2.52 1.56c1.36 0 2.8-.72 4.32-2.16 1.6-1.52 3.2-3.44 4.8-5.76a89.52 89.52 0 0 0 4.8-7.68c1.6-2.72 3-5.36 4.2-7.92 1.28-2.56 2.32-4.72 3.12-6.48.72.08 1.64.28 2.76.6 1.2.32 2.24.76 3.12 1.32.88.48 1.32 1.2 1.32 2.16 0 .24-.4 1.24-1.2 3-.72 1.68-1.6 3.72-2.64 6.12-.96 2.4-1.84 4.88-2.64 7.44-.72 2.48-1.08 4.68-1.08 6.6 0 1.12.2 2.12.6 3 .48.8 1.36 1.2 2.64 1.2 1.68 0 3.68-.76 6-2.28 2.32-1.52 4.72-3.72 7.2-6.6 2.48-2.88 4.68-6.32 6.6-10.32l1.8 1.44c-1.76 4.32-4.04 8.2-6.84 11.64-2.8 3.44-5.8 6.12-9 8.04-3.2 2-6.32 3-9.36 3-2.32 0-4.08-.56-5.28-1.68-1.12-1.04-1.88-2.4-2.28-4.08-.4-1.76-.64-3.52-.72-5.28v-2.4a82.711 82.711 0 0 1-4.44 6.36c-1.6 2-3.32 3.68-5.16 5.04-1.76 1.36-3.64 2.04-5.64 2.04zm66.049-.48c-2.96 0-5.36-.8-7.2-2.4-1.84-1.52-2.76-3.6-2.76-6.24 0-2.24.56-4.64 1.68-7.2 1.12-2.56 2.24-5.08 3.36-7.56 1.2-2.48 1.8-4.68 1.8-6.6 0-1.84-.6-3.36-1.8-4.56-1.2-1.28-2.6-2.32-4.2-3.12-1.76 4.4-3.76 8.68-6 12.84-2.16 4.08-3.92 7.28-5.28 9.6l-1.8-3.48c1.12-2.08 2.6-5.04 4.44-8.88 1.84-3.84 3.6-8.12 5.28-12.84-.8-.8-1.2-1.88-1.2-3.24 0-2.08.64-4.04 1.92-5.88 1.28-1.84 2.52-2.76 3.72-2.76.96 0 1.64.56 2.04 1.68.48 1.04.72 1.76.72 2.16 0 .4-.2 1.12-.6 2.16-.32 1.04-.56 1.8-.72 2.28.08.88.76 1.76 2.04 2.64 1.36.8 2.88 1.76 4.56 2.88 1.68 1.12 3.16 2.52 4.44 4.2 1.28 1.68 1.92 3.8 1.92 6.36 0 2.32-.52 4.68-1.56 7.08-1.04 2.4-2.08 4.64-3.12 6.72s-1.56 3.88-1.56 5.4c0 1.12.28 1.88.84 2.28.64.32 1.36.48 2.16.48 1.92 0 3.92-.56 6-1.68 2.08-1.2 4.12-2.72 6.12-4.56 2-1.84 3.76-3.76 5.28-5.76 1.52-2.08 2.68-3.96 3.48-5.64l2.88 2.16c-1.52 3.44-3.72 6.84-6.6 10.2-2.88 3.28-6.08 6-9.6 8.16-3.52 2.08-7.08 3.12-10.68 3.12zm50.406 7.44c.32-3.44 1.44-5.96 3.36-7.56 1.92-1.52 4.4-2.52 7.44-3s6.32-.72 9.84-.72c1.44-3.04 2.8-6.68 4.08-10.92 1.36-4.32 2.64-8.92 3.84-13.8 1.28-4.88 2.48-9.84 3.6-14.88 1.2-5.12 2.32-10.04 3.36-14.76 1.04-4.8 2.04-9.16 3-13.08s1.88-7.16 2.76-9.72c-4.08.08-7.72.24-10.92.48-3.12.24-6.08.56-8.88.96-2.8.4-5.68.88-8.64 1.44.88-4 3.4-6.88 7.56-8.64C224.33 1.6 230.69.72 239.25.72c4.24 0 8.64.16 13.2.48 4.56.32 8.76.68 12.6 1.08s6.84.76 9 1.08c-2.72 2.56-5.28 4.16-7.68 4.8-2.4.56-4.48.84-6.24.84h-7.08c-2 0-3.96.04-5.88.12-.56 2.72-1.2 6.04-1.92 9.96-.64 3.92-1.4 8.12-2.28 12.6l-2.4 13.44c-.8 4.48-1.6 8.68-2.4 12.6-.8 3.84-1.52 7.04-2.16 9.6-1.04 4.16-2.28 7.96-3.72 11.4-1.44 3.44-3.08 6.04-4.92 7.8 4.24.32 8.52.72 12.84 1.2s9.08.8 14.28.96c-3.2 2.96-6.24 4.8-9.12 5.52-2.88.8-5.24 1.2-7.08 1.2h-13.44c-3.52.08-6.6.16-9.24.24-2.64.16-5.2.4-7.68.72-2.4.32-5.12.72-8.16 1.2zm100.959-8.16c-3.12 0-5.52-.8-7.2-2.4-1.6-1.52-2.4-3.48-2.4-5.88 0-1.6.28-3.28.84-5.04l1.68-5.52c.56-1.84.84-3.6.84-5.28 0-1.76-.44-2.96-1.32-3.6-.8-.72-1.76-1.08-2.88-1.08-2.4 0-4.88 1-7.44 3-2.48 1.92-4.92 4.36-7.32 7.32-2.32 2.96-4.52 6.04-6.6 9.24s-3.88 6.08-5.4 8.64c-1.52 0-2.96-.28-4.32-.84-1.36-.48-2.52-1.36-3.48-2.64.08-.4.56-1.6 1.44-3.6.8-2.08 1.72-4.52 2.76-7.32 1.04-2.88 1.96-5.88 2.76-9 .8-3.12 1.2-5.96 1.2-8.52.56-.64 1.4-1.28 2.52-1.92 1.2-.64 2.44-.96 3.72-.96 2.8 0 4.2 1.2 4.2 3.6 0 .96-.2 2.4-.6 4.32-.32 1.84-.8 3.96-1.44 6.36 2.08-2.8 4.36-5.44 6.84-7.92 2.48-2.48 5.04-4.48 7.68-6 2.72-1.6 5.44-2.4 8.16-2.4 3.44 0 5.96 1.16 7.56 3.48 1.68 2.32 2.52 4.88 2.52 7.68 0 2.4-.4 4.64-1.2 6.72-.8 2.08-1.6 4.04-2.4 5.88-.72 1.84-1.08 3.64-1.08 5.4 0 1.28.28 2.2.84 2.76.64.48 1.32.72 2.04.72 1.92 0 3.92-.92 6-2.76 2.08-1.84 4.04-4.16 5.88-6.96 1.92-2.88 3.6-5.76 5.04-8.64l2.04 1.68c-1.68 3.92-3.6 7.52-5.76 10.8-2.08 3.2-4.44 5.8-7.08 7.8-2.56 1.92-5.44 2.88-8.64 2.88zm30.319 3.72c-4 0-7.24-.84-9.72-2.52-2.4-1.6-4.12-3.64-5.16-6.12-1.04-2.56-1.56-5.16-1.56-7.8 0-2.32.32-4.12.96-5.4.64-1.28 1.44-2.2 2.4-2.76.96-.64 1.84-1.12 2.64-1.44.88-.32 1.52-.68 1.92-1.08 2-2.08 4.04-4.48 6.12-7.2 2.16-2.8 4-5.88 5.52-9.24v-1.2c0-3.2.52-5.44 1.56-6.72 1.12-1.36 2.4-2.04 3.84-2.04.96 0 1.64.24 2.04.72.48.48.76 1.04.84 1.68 0 .48-.12 1.04-.36 1.68-.16.64-.24 1.52-.24 2.64 0 2.4.56 5.16 1.68 8.28a169 169 0 0 1 3.48 9.72c1.2 3.44 1.8 6.96 1.8 10.56 0 .96-.04 1.84-.12 2.64-.08.8-.2 1.56-.36 2.28 2.48-.64 4.92-2 7.32-4.08 2.4-2.16 4.68-5.32 6.84-9.48l1.44 1.08c-1.52 4.56-3.72 8.24-6.6 11.04-2.88 2.72-6.24 4.4-10.08 5.04-1.28 3.28-3.4 5.72-6.36 7.32-2.88 1.6-6.16 2.4-9.84 2.4zm-.84-5.28c1.6 0 3.08-.4 4.44-1.2 1.36-.8 2.44-1.96 3.24-3.48-3.28-.72-6.24-2-8.88-3.84-2.64-1.84-4.68-3.72-6.12-5.64-1.12.24-1.68 1.32-1.68 3.24 0 2.64.76 5.12 2.28 7.44 1.52 2.32 3.76 3.48 6.72 3.48zm8.64-8.28c.16-.56.24-1.2.24-1.92.08-.8.12-1.4.12-1.8-.08-3.6-.56-7.16-1.44-10.68-.88-3.52-1.76-7.12-2.64-10.8-1.44 2.48-3.12 5.16-5.04 8.04-1.92 2.88-3.72 5.2-5.4 6.96 1.28 2.16 3.16 4.2 5.64 6.12 2.48 1.92 5.32 3.28 8.52 4.08zm31.15 12.96c-3.52 0-6.36-1.04-8.52-3.12-2.16-2.08-3.24-5.24-3.24-9.48 0-3.28.6-7.36 1.8-12.24 1.28-4.88 2.88-9.92 4.8-15.12-.56-.16-1.24-.28-2.04-.36-.72-.16-1.44-.4-2.16-.72v-3.72c1.28.16 2.32.28 3.12.36l2.64.24c1.68-4.24 3.48-8.32 5.4-12.24 2-4 3.96-7.56 5.88-10.68 2-3.12 3.88-5.56 5.64-7.32 1.76-1.84 3.32-2.76 4.68-2.76.8 0 1.56.32 2.28.96.72.56 1.08 1.4 1.08 2.52 0 1.6-.84 3.88-2.52 6.84-1.6 2.96-3.6 6.44-6 10.44-2.4 3.92-4.72 8.12-6.96 12.6h3.72c3.52 0 6.68-.04 9.48-.12 2.88-.16 5.8-.4 8.76-.72v3.96c-4.4.4-8.44.72-12.12.96-3.68.24-7.2.4-10.56.48h-1.44c-1.68 3.92-3.16 7.96-4.44 12.12-1.2 4.08-1.8 8.08-1.8 12 0 3.28.52 5.6 1.56 6.96 1.04 1.36 2.68 2.04 4.92 2.04 4 0 8.08-1.8 12.24-5.4 4.24-3.68 7.92-8.64 11.04-14.88l1.68 1.2c-2.08 4.72-4.68 9-7.8 12.84-3.04 3.84-6.36 6.84-9.96 9-3.6 2.24-7.32 3.36-11.16 3.36zm30.37.12c-2.64 0-4.92-.88-6.84-2.64-2-1.76-3-4.4-3-7.92 0-2.8.64-5.84 1.92-9.12 1.28-3.28 3.04-6.52 5.28-9.72 2.24-3.2 4.8-6.08 7.68-8.64 2.88-2.64 5.96-4.76 9.24-6.36 3.28-1.6 6.56-2.4 9.84-2.4 3.44 0 6.36.88 8.76 2.64 2.4 1.76 3.6 4.08 3.6 6.96 0 2.16-.76 3.72-2.28 4.68-1.52.96-3.32 1.24-5.4.84.16-.72.28-1.44.36-2.16.16-.72.24-1.48.24-2.28 0-1.6-.32-3.04-.96-4.32-.64-1.28-2-1.92-4.08-1.92-2.24 0-4.52.76-6.84 2.28-2.32 1.52-4.56 3.52-6.72 6-2.08 2.4-3.96 5.08-5.64 8.04-1.68 2.88-3 5.72-3.96 8.52s-1.44 5.32-1.44 7.56c0 2.56.92 3.84 2.76 3.84 1.84 0 3.88-.88 6.12-2.64 2.24-1.84 4.48-4.12 6.72-6.84 2.32-2.72 4.52-5.48 6.6-8.28 2.08-2.88 3.88-5.32 5.4-7.32.24-.4.56-.6.96-.6.32.08.92.28 1.8.6.96.24 1.84.64 2.64 1.2.8.56 1.2 1.28 1.2 2.16 0 .8-.36 1.84-1.08 3.12-.64 1.2-1.44 2.56-2.4 4.08-.88 1.44-1.68 2.92-2.4 4.44-.64 1.44-.96 2.84-.96 4.2 0 1.04.28 2.04.84 3 .56.88 1.48 1.32 2.76 1.32 1.92 0 4.6-1.4 8.04-4.2 3.52-2.88 7.08-7.72 10.68-14.52l2.28 2.28c-1.92 4.32-4.24 8.16-6.96 11.52-2.64 3.28-5.44 5.84-8.4 7.68-2.96 1.92-5.96 2.88-9 2.88-3.28 0-5.72-1.04-7.32-3.12-1.6-2.08-2.48-4.32-2.64-6.72v-.6c-3.2 3.84-6.16 6.88-8.88 9.12-2.64 2.24-5.48 3.36-8.52 3.36zm52.601 27.96c-2 0-3.88-.6-5.64-1.8-1.68-1.2-2.52-3.16-2.52-5.88 0-2.56.72-4.88 2.16-6.96 1.52-2 3.48-3.88 5.88-5.64a76.42 76.42 0 0 1 7.92-4.68c2.8-1.44 5.52-2.8 8.16-4.08.88-2.16 1.72-4.48 2.52-6.96a125 125 0 0 0 2.28-8.04c-2.8 3.52-5.76 6.44-8.88 8.76-3.04 2.32-6.16 3.48-9.36 3.48-3.2 0-5.76-1.12-7.68-3.36-1.84-2.24-2.76-5.2-2.76-8.88 0-4.24 1.04-8.2 3.12-11.88 2.16-3.76 4.92-7.08 8.28-9.96 3.36-2.96 6.96-5.24 10.8-6.84 3.84-1.68 7.52-2.52 11.04-2.52 2.56 0 4.48.48 5.76 1.44 1.28.88 1.92 1.92 1.92 3.12 0 .96-.28 1.72-.84 2.28-.56.56-.92.88-1.08.96-.8-.88-1.64-1.44-2.52-1.68-.8-.32-1.76-.48-2.88-.48-3.12 0-6.12.88-9 2.64-2.88 1.76-5.44 4.04-7.68 6.84-2.16 2.72-3.88 5.56-5.16 8.52-1.28 2.96-1.92 5.64-1.92 8.04 0 1.6.36 2.84 1.08 3.72.72.8 1.6 1.2 2.64 1.2 2.24 0 4.96-1.44 8.16-4.32 3.2-2.96 6.28-6.52 9.24-10.68.16-.64.28-1.2.36-1.68.16-.56.28-1.08.36-1.56.8-3.2 1.76-5.56 2.88-7.08 1.12-1.52 2.68-2.28 4.68-2.28.4 0 .88.04 1.44.12.64.08 1.32.2 2.04.36 0 1.44-.4 3.8-1.2 7.08-.8 3.28-1.88 7.12-3.24 11.52-1.36 4.32-2.88 8.76-4.56 13.32 2.48-1.04 5-2.48 7.56-4.32 2.56-1.92 4.92-4.2 7.08-6.84 2.16-2.72 3.8-5.72 4.92-9l2.16 2.16c-1.28 3.68-3.28 7.04-6 10.08-2.64 3.04-5.52 5.68-8.64 7.92-3.12 2.16-6 3.84-8.64 5.04-2.16 5.28-4.52 10.08-7.08 14.4-2.48 4.4-5.16 7.88-8.04 10.44-2.8 2.64-5.84 3.96-9.12 3.96zm-.48-5.52c1.44 0 3.4-1.36 5.88-4.08 2.56-2.72 5.32-7.32 8.28-13.8-2.96 1.44-5.68 2.92-8.16 4.44-2.48 1.52-4.48 3.12-6 4.8-1.52 1.68-2.28 3.44-2.28 5.28 0 1.04.2 1.84.6 2.4.48.64 1.04.96 1.68.96zm65.078-24.96c-2.96 0-5.36-.8-7.2-2.4-1.84-1.52-2.76-3.6-2.76-6.24 0-2.24.56-4.64 1.68-7.2 1.12-2.56 2.24-5.08 3.36-7.56 1.2-2.48 1.8-4.68 1.8-6.6 0-1.84-.6-3.36-1.8-4.56-1.2-1.28-2.6-2.32-4.2-3.12-1.76 4.4-3.76 8.68-6 12.84-2.16 4.08-3.92 7.28-5.28 9.6l-1.8-3.48c1.12-2.08 2.6-5.04 4.44-8.88 1.84-3.84 3.6-8.12 5.28-12.84-.8-.8-1.2-1.88-1.2-3.24 0-2.08.64-4.04 1.92-5.88 1.28-1.84 2.52-2.76 3.72-2.76.96 0 1.64.56 2.04 1.68.48 1.04.72 1.76.72 2.16 0 .4-.2 1.12-.6 2.16-.32 1.04-.56 1.8-.72 2.28.08.88.76 1.76 2.04 2.64 1.36.8 2.88 1.76 4.56 2.88 1.68 1.12 3.16 2.52 4.44 4.2 1.28 1.68 1.92 3.8 1.92 6.36 0 2.32-.52 4.68-1.56 7.08-1.04 2.4-2.08 4.64-3.12 6.72s-1.56 3.88-1.56 5.4c0 1.12.28 1.88.84 2.28.64.32 1.36.48 2.16.48 1.92 0 3.92-.56 6-1.68 2.08-1.2 4.12-2.72 6.12-4.56 2-1.84 3.76-3.76 5.28-5.76 1.52-2.08 2.68-3.96 3.48-5.64l2.88 2.16c-1.52 3.44-3.72 6.84-6.6 10.2-2.88 3.28-6.08 6-9.6 8.16-3.52 2.08-7.08 3.12-10.68 3.12zm28.114 2.52c-2.64 0-4.92-.88-6.84-2.64-2-1.76-3-4.4-3-7.92 0-2.8.64-5.84 1.92-9.12 1.28-3.28 3.04-6.52 5.28-9.72 2.24-3.2 4.8-6.08 7.68-8.64 2.88-2.64 5.96-4.76 9.24-6.36 3.28-1.6 6.56-2.4 9.84-2.4 3.44 0 6.36.88 8.76 2.64 2.4 1.76 3.6 4.08 3.6 6.96 0 2.16-.76 3.72-2.28 4.68-1.52.96-3.32 1.24-5.4.84.16-.72.28-1.44.36-2.16.16-.72.24-1.48.24-2.28 0-1.6-.32-3.04-.96-4.32-.64-1.28-2-1.92-4.08-1.92-2.24 0-4.52.76-6.84 2.28-2.32 1.52-4.56 3.52-6.72 6-2.08 2.4-3.96 5.08-5.64 8.04-1.68 2.88-3 5.72-3.96 8.52s-1.44 5.32-1.44 7.56c0 2.56.92 3.84 2.76 3.84 1.84 0 3.88-.88 6.12-2.64 2.24-1.84 4.48-4.12 6.72-6.84 2.32-2.72 4.52-5.48 6.6-8.28 2.08-2.88 3.88-5.32 5.4-7.32.24-.4.56-.6.96-.6.32.08.92.28 1.8.6.96.24 1.84.64 2.64 1.2.8.56 1.2 1.28 1.2 2.16 0 .8-.36 1.84-1.08 3.12-.64 1.2-1.44 2.56-2.4 4.08-.88 1.44-1.68 2.92-2.4 4.44-.64 1.44-.96 2.84-.96 4.2 0 1.04.28 2.04.84 3 .56.88 1.48 1.32 2.76 1.32 1.92 0 4.6-1.4 8.04-4.2 3.52-2.88 7.08-7.72 10.68-14.52l2.28 2.28c-1.92 4.32-4.24 8.16-6.96 11.52-2.64 3.28-5.44 5.84-8.4 7.68-2.96 1.92-5.96 2.88-9 2.88-3.28 0-5.72-1.04-7.32-3.12-1.6-2.08-2.48-4.32-2.64-6.72v-.6c-3.2 3.84-6.16 6.88-8.88 9.12-2.64 2.24-5.48 3.36-8.52 3.36zm109.36-1.92c-3.12 0-5.44-.92-6.96-2.76-1.52-1.84-2.28-4.04-2.28-6.6 0-1.84.28-3.68.84-5.52.56-1.84 1.12-3.64 1.68-5.4.56-1.84.84-3.48.84-4.92 0-1.36-.28-2.28-.84-2.76-.48-.56-1.12-.84-1.92-.84-1.84 0-4 1.4-6.48 4.2-2.4 2.8-5.4 6.88-9 12.24a64.772 64.772 0 0 0-3.6 6.12c-1.12 2.08-2.12 3.84-3 5.28-.72 0-1.68-.12-2.88-.36-1.12-.24-2.12-.6-3-1.08-.88-.4-1.32-.96-1.32-1.68s.4-2.12 1.2-4.2c.8-2.08 1.72-4.48 2.76-7.2 1.04-2.8 1.96-5.52 2.76-8.16.8-2.72 1.2-5 1.2-6.84 0-1.12-.2-2-.6-2.64-.4-.64-1.04-.96-1.92-.96-1.68 0-3.72 1-6.12 3-2.32 2-4.8 4.64-7.44 7.92-2.56 3.2-5 6.8-7.32 10.8-2.24 3.92-4.08 7.88-5.52 11.88-.88 0-1.96-.2-3.24-.6-1.28-.32-2.4-.76-3.36-1.32-.96-.48-1.44-.92-1.44-1.32 0-.08.28-1.2.84-3.36.56-2.24 1.24-5 2.04-8.28.8-3.28 1.64-6.64 2.52-10.08.88-3.44 1.64-6.44 2.28-9 .24-.88 1.12-1.64 2.64-2.28 1.52-.72 2.84-1.08 3.96-1.08s2.08.36 2.88 1.08c.8.72 1.2 1.68 1.2 2.88 0 .8-.16 1.96-.48 3.48-.32 1.52-.72 3.24-1.2 5.16 1.68-2.24 3.44-4.44 5.28-6.6 1.92-2.24 3.88-4.24 5.88-6 2.08-1.76 4.12-3.16 6.12-4.2 2.08-1.04 4.12-1.56 6.12-1.56 2.96 0 4.96 1.08 6 3.24 1.04 2.08 1.56 4.36 1.56 6.84 0 1.04-.08 2.08-.24 3.12-.16.96-.4 1.96-.72 3-.24.96-.6 2.12-1.08 3.48 1.52-2.24 3.16-4.28 4.92-6.12 1.84-1.92 3.8-3.44 5.88-4.56 2.08-1.12 4.28-1.68 6.6-1.68 3.12 0 5.28.96 6.48 2.88 1.2 1.84 1.8 3.88 1.8 6.12 0 2.08-.36 4.28-1.08 6.6-.64 2.24-1.32 4.4-2.04 6.48-.64 2-.96 3.72-.96 5.16 0 .8.2 1.56.6 2.28.4.64 1.2.96 2.4.96 2.16 0 4.24-1 6.24-3s3.84-4.44 5.52-7.32c1.76-2.96 3.24-5.76 4.44-8.4l2.04 2.52c-1.28 3.28-2.96 6.64-5.04 10.08-2 3.36-4.36 6.16-7.08 8.4-2.72 2.32-5.84 3.48-9.36 3.48z" fill="#FFE7E3"/></svg>