<svg width="677" height="121" viewBox="0 0 677 121" fill="none" xmlns="http://www.w3.org/2000/svg">
<path opacity="0.6" d="M25.54 97.44C20.9 97.44 16.66 96.2 12.82 93.72C8.98 91.32 5.94 87.88 3.7 83.4C1.46 78.92 0.34 73.56 0.34 67.32C0.34 61.16 1.3 54.96 3.22 48.72C5.14 42.4 7.78 36.4 11.14 30.72C14.5 24.96 18.42 19.84 22.9 15.36C27.38 10.8 32.14 7.23999 37.18 4.67999C42.3 2.03999 47.54 0.719995 52.9 0.719995C53.7 0.719995 54.86 0.879995 56.38 1.2C57.98 1.52 59.54 2.48 61.06 4.07999C60.58 4 60.02 3.96 59.38 3.96C58.82 3.88 58.22 3.84 57.58 3.84C53.42 3.84 49.22 5.16 44.98 7.8C40.74 10.36 36.7 13.84 32.86 18.24C29.02 22.64 25.58 27.64 22.54 33.24C19.58 38.76 17.22 44.52 15.46 50.52C13.7 56.52 12.82 62.36 12.82 68.04C12.82 72.2 13.38 76.08 14.5 79.68C15.62 83.28 17.42 86.16 19.9 88.32C22.38 90.56 25.66 91.68 29.74 91.68C34.14 91.68 38.26 90.36 42.1 87.72C45.94 85.08 49.42 81.56 52.54 77.16C55.66 72.68 58.34 67.72 60.58 62.28C62.82 56.76 64.54 51.12 65.74 45.36C66.94 39.52 67.54 33.96 67.54 28.68C67.54 26.36 67.38 23.88 67.06 21.24C66.74 18.52 66.18 16.2 65.38 14.28C64.66 12.36 63.58 11.4 62.14 11.4C60.78 11.4 59.3 12.28 57.7 14.04C56.1 15.72 54.54 17.88 53.02 20.52C51.5 23.16 50.14 25.96 48.94 28.92C47.82 31.8 47.02 34.4 46.54 36.72C43.82 36.16 41.86 35.28 40.66 34.08C39.54 32.88 38.98 31.44 38.98 29.76C38.98 27.6 39.74 25.2 41.26 22.56C42.78 19.92 44.74 17.4 47.14 15C49.62 12.52 52.18 10.48 54.82 8.88C57.54 7.28 60.06 6.48 62.38 6.48C64.78 6.48 66.7 7.36 68.14 9.11999C69.66 10.8 70.82 13 71.62 15.72C72.42 18.44 72.98 21.36 73.3 24.48C73.62 27.52 73.78 30.36 73.78 33C73.78 41.16 72.78 48.64 70.78 55.44C68.78 62.16 66.06 68.12 62.62 73.32C59.26 78.52 55.46 82.92 51.22 86.52C47.06 90.12 42.74 92.84 38.26 94.68C33.86 96.52 29.62 97.44 25.54 97.44ZM83.3153 90.6C80.5953 90.6 78.3553 89.36 76.5953 86.88C74.9153 84.32 74.0753 81.4 74.0753 78.12C74.0753 75.88 74.4353 73.24 75.1553 70.2C75.8753 67.16 76.7953 64.2 77.9153 61.32C79.1153 58.44 80.3153 56.04 81.5153 54.12C82.7953 52.2 83.9553 51.24 84.9953 51.24C85.5553 51.24 86.3953 51.56 87.5153 52.2C88.7153 52.76 89.7553 53.48 90.6353 54.36C89.7553 55.64 88.6753 57.6 87.3953 60.24C86.1953 62.88 85.1153 65.72 84.1553 68.76C83.1953 71.8 82.7153 74.56 82.7153 77.04C82.7153 77.36 82.7553 78.12 82.8353 79.32C82.9953 80.52 83.3153 81.64 83.7953 82.68C84.2753 83.72 85.1153 84.24 86.3153 84.24C87.6753 84.24 89.1153 83.52 90.6353 82.08C92.2353 80.56 93.8353 78.64 95.4353 76.32C97.1153 73.92 98.7153 71.36 100.235 68.64C101.835 65.92 103.235 63.28 104.435 60.72C105.715 58.16 106.755 56 107.555 54.24C108.275 54.32 109.195 54.52 110.315 54.84C111.515 55.16 112.555 55.6 113.435 56.16C114.315 56.64 114.755 57.36 114.755 58.32C114.755 58.56 114.355 59.56 113.555 61.32C112.835 63 111.955 65.04 110.915 67.44C109.955 69.84 109.075 72.32 108.275 74.88C107.555 77.36 107.195 79.56 107.195 81.48C107.195 82.6 107.395 83.6 107.795 84.48C108.275 85.28 109.155 85.68 110.435 85.68C112.115 85.68 114.115 84.92 116.435 83.4C118.755 81.88 121.155 79.68 123.635 76.8C126.115 73.92 128.315 70.48 130.235 66.48L132.035 67.92C130.275 72.24 127.995 76.12 125.195 79.56C122.395 83 119.395 85.68 116.195 87.6C112.995 89.6 109.875 90.6 106.835 90.6C104.515 90.6 102.755 90.04 101.555 88.92C100.435 87.88 99.6753 86.52 99.2753 84.84C98.8753 83.08 98.6353 81.32 98.5553 79.56C98.5553 79.16 98.5553 78.76 98.5553 78.36C98.5553 77.88 98.5553 77.48 98.5553 77.16C97.1953 79.32 95.7153 81.44 94.1153 83.52C92.5153 85.52 90.7953 87.2 88.9553 88.56C87.1953 89.92 85.3153 90.6 83.3153 90.6ZM149.364 90.12C146.404 90.12 144.004 89.32 142.164 87.72C140.324 86.2 139.404 84.12 139.404 81.48C139.404 79.24 139.964 76.84 141.084 74.28C142.204 71.72 143.324 69.2 144.444 66.72C145.644 64.24 146.244 62.04 146.244 60.12C146.244 58.28 145.644 56.76 144.444 55.56C143.244 54.28 141.844 53.24 140.244 52.44C138.484 56.84 136.484 61.12 134.244 65.28C132.084 69.36 130.324 72.56 128.964 74.88L127.164 71.4C128.284 69.32 129.764 66.36 131.604 62.52C133.444 58.68 135.204 54.4 136.884 49.68C136.084 48.88 135.684 47.8 135.684 46.44C135.684 44.36 136.324 42.4 137.604 40.56C138.884 38.72 140.124 37.8 141.324 37.8C142.284 37.8 142.964 38.36 143.364 39.48C143.844 40.52 144.084 41.24 144.084 41.64C144.084 42.04 143.884 42.76 143.484 43.8C143.164 44.84 142.924 45.6 142.764 46.08C142.844 46.96 143.524 47.84 144.804 48.72C146.164 49.52 147.684 50.48 149.364 51.6C151.044 52.72 152.524 54.12 153.804 55.8C155.084 57.48 155.724 59.6 155.724 62.16C155.724 64.48 155.204 66.84 154.164 69.24C153.124 71.64 152.084 73.88 151.044 75.96C150.004 78.04 149.484 79.84 149.484 81.36C149.484 82.48 149.764 83.24 150.324 83.64C150.964 83.96 151.684 84.12 152.484 84.12C154.404 84.12 156.404 83.56 158.484 82.44C160.564 81.24 162.604 79.72 164.604 77.88C166.604 76.04 168.364 74.12 169.884 72.12C171.404 70.04 172.564 68.16 173.364 66.48L176.244 68.64C174.724 72.08 172.524 75.48 169.644 78.84C166.764 82.12 163.564 84.84 160.044 87C156.524 89.08 152.964 90.12 149.364 90.12ZM199.77 97.56C200.09 94.12 201.21 91.6 203.13 90C205.05 88.48 207.53 87.48 210.57 87C213.61 86.52 216.89 86.28 220.41 86.28C221.85 83.24 223.21 79.6 224.49 75.36C225.85 71.04 227.13 66.44 228.33 61.56C229.61 56.68 230.81 51.72 231.93 46.68C233.13 41.56 234.25 36.64 235.29 31.92C236.33 27.12 237.33 22.76 238.29 18.84C239.25 14.92 240.17 11.68 241.05 9.11999C236.97 9.2 233.33 9.36 230.13 9.6C227.01 9.84 224.05 10.16 221.25 10.56C218.45 10.96 215.57 11.44 212.61 12C213.49 8 216.01 5.12 220.17 3.36C224.33 1.6 230.69 0.719995 239.25 0.719995C243.49 0.719995 247.89 0.879995 252.45 1.2C257.01 1.52 261.21 1.88 265.05 2.28C268.89 2.68 271.89 3.04 274.05 3.36C271.33 5.92 268.77 7.52 266.37 8.16C263.97 8.72 261.89 9 260.13 9C257.49 9 255.13 9 253.05 9C251.05 9 249.09 9.04 247.17 9.11999C246.61 11.84 245.97 15.16 245.25 19.08C244.61 23 243.85 27.2 242.97 31.68C242.17 36.16 241.37 40.64 240.57 45.12C239.77 49.6 238.97 53.8 238.17 57.72C237.37 61.56 236.65 64.76 236.01 67.32C234.97 71.48 233.73 75.28 232.29 78.72C230.85 82.16 229.21 84.76 227.37 86.52C231.61 86.84 235.89 87.24 240.21 87.72C244.53 88.2 249.29 88.52 254.49 88.68C251.29 91.64 248.25 93.48 245.37 94.2C242.49 95 240.13 95.4 238.29 95.4C232.93 95.4 228.45 95.4 224.85 95.4C221.33 95.48 218.25 95.56 215.61 95.64C212.97 95.8 210.41 96.04 207.93 96.36C205.53 96.68 202.81 97.08 199.77 97.56ZM300.729 89.4C297.609 89.4 295.209 88.6 293.529 87C291.929 85.48 291.129 83.52 291.129 81.12C291.129 79.52 291.409 77.84 291.969 76.08C292.529 74.24 293.089 72.4 293.649 70.56C294.209 68.72 294.489 66.96 294.489 65.28C294.489 63.52 294.049 62.32 293.169 61.68C292.369 60.96 291.409 60.6 290.289 60.6C287.889 60.6 285.409 61.6 282.849 63.6C280.369 65.52 277.929 67.96 275.529 70.92C273.209 73.88 271.009 76.96 268.929 80.16C266.849 83.36 265.049 86.24 263.529 88.8C262.009 88.8 260.569 88.52 259.209 87.96C257.849 87.48 256.689 86.6 255.729 85.32C255.809 84.92 256.289 83.72 257.169 81.72C257.969 79.64 258.889 77.2 259.929 74.4C260.969 71.52 261.889 68.52 262.689 65.4C263.489 62.28 263.889 59.44 263.889 56.88C264.449 56.24 265.289 55.6 266.409 54.96C267.609 54.32 268.849 54 270.129 54C272.929 54 274.329 55.2 274.329 57.6C274.329 58.56 274.129 60 273.729 61.92C273.409 63.76 272.929 65.88 272.289 68.28C274.369 65.48 276.649 62.84 279.129 60.36C281.609 57.88 284.169 55.88 286.809 54.36C289.529 52.76 292.249 51.96 294.969 51.96C298.409 51.96 300.929 53.12 302.529 55.44C304.209 57.76 305.049 60.32 305.049 63.12C305.049 65.52 304.649 67.76 303.849 69.84C303.049 71.92 302.249 73.88 301.449 75.72C300.729 77.56 300.369 79.36 300.369 81.12C300.369 82.4 300.649 83.32 301.209 83.88C301.849 84.36 302.529 84.6 303.249 84.6C305.169 84.6 307.169 83.68 309.249 81.84C311.329 80 313.289 77.68 315.129 74.88C317.049 72 318.729 69.12 320.169 66.24L322.209 67.92C320.529 71.84 318.609 75.44 316.449 78.72C314.369 81.92 312.009 84.52 309.369 86.52C306.809 88.44 303.929 89.4 300.729 89.4ZM331.048 93.12C327.048 93.12 323.808 92.28 321.328 90.6C318.928 89 317.208 86.96 316.168 84.48C315.128 81.92 314.608 79.32 314.608 76.68C314.608 74.36 314.928 72.56 315.568 71.28C316.208 70 317.008 69.08 317.968 68.52C318.928 67.88 319.808 67.4 320.608 67.08C321.488 66.76 322.128 66.4 322.528 66C324.528 63.92 326.568 61.52 328.648 58.8C330.808 56 332.648 52.92 334.168 49.56V48.36C334.168 45.16 334.688 42.92 335.728 41.64C336.848 40.28 338.128 39.6 339.568 39.6C340.528 39.6 341.208 39.84 341.608 40.32C342.088 40.8 342.368 41.36 342.448 42C342.448 42.48 342.328 43.04 342.088 43.68C341.928 44.32 341.848 45.2 341.848 46.32C341.848 48.72 342.408 51.48 343.528 54.6C344.728 57.64 345.888 60.88 347.008 64.32C348.208 67.76 348.808 71.28 348.808 74.88C348.808 75.84 348.768 76.72 348.688 77.52C348.608 78.32 348.488 79.08 348.328 79.8C350.808 79.16 353.248 77.8 355.648 75.72C358.048 73.56 360.328 70.4 362.488 66.24L363.928 67.32C362.408 71.88 360.208 75.56 357.328 78.36C354.448 81.08 351.088 82.76 347.248 83.4C345.968 86.68 343.848 89.12 340.888 90.72C338.008 92.32 334.728 93.12 331.048 93.12ZM330.208 87.84C331.808 87.84 333.288 87.44 334.648 86.64C336.008 85.84 337.088 84.68 337.888 83.16C334.608 82.44 331.648 81.16 329.008 79.32C326.368 77.48 324.328 75.6 322.888 73.68C321.768 73.92 321.208 75 321.208 76.92C321.208 79.56 321.968 82.04 323.488 84.36C325.008 86.68 327.248 87.84 330.208 87.84ZM338.848 79.56C339.008 79 339.088 78.36 339.088 77.64C339.168 76.84 339.208 76.24 339.208 75.84C339.128 72.24 338.648 68.68 337.768 65.16C336.888 61.64 336.008 58.04 335.128 54.36C333.688 56.84 332.008 59.52 330.088 62.4C328.168 65.28 326.368 67.6 324.688 69.36C325.968 71.52 327.848 73.56 330.328 75.48C332.808 77.4 335.648 78.76 338.848 79.56ZM369.998 92.52C366.478 92.52 363.638 91.48 361.478 89.4C359.318 87.32 358.238 84.16 358.238 79.92C358.238 76.64 358.838 72.56 360.038 67.68C361.318 62.8 362.918 57.76 364.838 52.56C364.278 52.4 363.598 52.28 362.798 52.2C362.078 52.04 361.358 51.8 360.638 51.48V47.76C361.918 47.92 362.958 48.04 363.758 48.12C364.638 48.2 365.518 48.28 366.398 48.36C368.078 44.12 369.878 40.04 371.798 36.12C373.798 32.12 375.758 28.56 377.678 25.44C379.678 22.32 381.558 19.88 383.318 18.12C385.078 16.28 386.638 15.36 387.998 15.36C388.798 15.36 389.558 15.68 390.278 16.32C390.998 16.88 391.358 17.72 391.358 18.84C391.358 20.44 390.518 22.72 388.838 25.68C387.238 28.64 385.238 32.12 382.838 36.12C380.438 40.04 378.118 44.24 375.878 48.72C376.518 48.72 377.158 48.72 377.798 48.72C378.438 48.72 379.038 48.72 379.598 48.72C383.118 48.72 386.278 48.68 389.078 48.6C391.958 48.44 394.878 48.2 397.838 47.88V51.84C393.438 52.24 389.398 52.56 385.718 52.8C382.038 53.04 378.518 53.2 375.158 53.28C374.918 53.28 374.678 53.28 374.438 53.28C374.198 53.28 373.958 53.28 373.718 53.28C372.038 57.2 370.558 61.24 369.278 65.4C368.078 69.48 367.478 73.48 367.478 77.4C367.478 80.68 367.998 83 369.038 84.36C370.078 85.72 371.718 86.4 373.958 86.4C377.958 86.4 382.038 84.6 386.198 81C390.438 77.32 394.118 72.36 397.238 66.12L398.918 67.32C396.838 72.04 394.238 76.32 391.118 80.16C388.078 84 384.758 87 381.158 89.16C377.558 91.4 373.838 92.52 369.998 92.52ZM400.368 92.64C397.728 92.64 395.448 91.76 393.528 90C391.528 88.24 390.528 85.6 390.528 82.08C390.528 79.28 391.168 76.24 392.448 72.96C393.728 69.68 395.488 66.44 397.728 63.24C399.968 60.04 402.528 57.16 405.408 54.6C408.288 51.96 411.368 49.84 414.648 48.24C417.928 46.64 421.208 45.84 424.488 45.84C427.928 45.84 430.848 46.72 433.248 48.48C435.648 50.24 436.848 52.56 436.848 55.44C436.848 57.6 436.088 59.16 434.568 60.12C433.048 61.08 431.248 61.36 429.168 60.96C429.328 60.24 429.448 59.52 429.528 58.8C429.688 58.08 429.768 57.32 429.768 56.52C429.768 54.92 429.448 53.48 428.808 52.2C428.168 50.92 426.808 50.28 424.728 50.28C422.488 50.28 420.208 51.04 417.888 52.56C415.568 54.08 413.328 56.08 411.168 58.56C409.088 60.96 407.208 63.64 405.528 66.6C403.848 69.48 402.528 72.32 401.568 75.12C400.608 77.92 400.128 80.44 400.128 82.68C400.128 85.24 401.048 86.52 402.888 86.52C404.728 86.52 406.768 85.64 409.008 83.88C411.248 82.04 413.488 79.76 415.728 77.04C418.048 74.32 420.248 71.56 422.328 68.76C424.408 65.88 426.208 63.44 427.728 61.44C427.968 61.04 428.288 60.84 428.688 60.84C429.008 60.92 429.608 61.12 430.488 61.44C431.448 61.68 432.328 62.08 433.128 62.64C433.928 63.2 434.328 63.92 434.328 64.8C434.328 65.6 433.968 66.64 433.248 67.92C432.608 69.12 431.808 70.48 430.848 72C429.968 73.44 429.168 74.92 428.448 76.44C427.808 77.88 427.488 79.28 427.488 80.64C427.488 81.68 427.768 82.68 428.328 83.64C428.888 84.52 429.808 84.96 431.088 84.96C433.008 84.96 435.688 83.56 439.128 80.76C442.648 77.88 446.208 73.04 449.808 66.24L452.088 68.52C450.168 72.84 447.848 76.68 445.128 80.04C442.488 83.32 439.688 85.88 436.728 87.72C433.768 89.64 430.768 90.6 427.728 90.6C424.448 90.6 422.008 89.56 420.408 87.48C418.808 85.4 417.928 83.16 417.768 80.76C417.768 80.6 417.768 80.48 417.768 80.4C417.768 80.32 417.768 80.24 417.768 80.16C414.568 84 411.608 87.04 408.888 89.28C406.248 91.52 403.408 92.64 400.368 92.64ZM452.969 120.6C450.969 120.6 449.089 120 447.329 118.8C445.649 117.6 444.809 115.64 444.809 112.92C444.809 110.36 445.529 108.04 446.969 105.96C448.489 103.96 450.449 102.08 452.849 100.32C455.329 98.64 457.969 97.08 460.769 95.64C463.569 94.2 466.289 92.84 468.929 91.56C469.809 89.4 470.649 87.08 471.449 84.6C472.249 82.12 473.009 79.44 473.729 76.56C470.929 80.08 467.969 83 464.849 85.32C461.809 87.64 458.689 88.8 455.489 88.8C452.289 88.8 449.729 87.68 447.809 85.44C445.969 83.2 445.049 80.24 445.049 76.56C445.049 72.32 446.089 68.36 448.169 64.68C450.329 60.92 453.089 57.6 456.449 54.72C459.809 51.76 463.409 49.48 467.249 47.88C471.089 46.2 474.769 45.36 478.289 45.36C480.849 45.36 482.769 45.84 484.049 46.8C485.329 47.68 485.969 48.72 485.969 49.92C485.969 50.88 485.689 51.64 485.129 52.2C484.569 52.76 484.209 53.08 484.049 53.16C483.249 52.28 482.409 51.72 481.529 51.48C480.729 51.16 479.769 51 478.649 51C475.529 51 472.529 51.88 469.649 53.64C466.769 55.4 464.209 57.68 461.969 60.48C459.809 63.2 458.089 66.04 456.809 69C455.529 71.96 454.889 74.64 454.889 77.04C454.889 78.64 455.249 79.88 455.969 80.76C456.689 81.56 457.569 81.96 458.609 81.96C460.849 81.96 463.569 80.52 466.769 77.64C469.969 74.68 473.049 71.12 476.009 66.96C476.169 66.32 476.289 65.76 476.369 65.28C476.529 64.72 476.649 64.2 476.729 63.72C477.529 60.52 478.489 58.16 479.609 56.64C480.729 55.12 482.289 54.36 484.289 54.36C484.689 54.36 485.169 54.4 485.729 54.48C486.369 54.56 487.049 54.68 487.769 54.84C487.769 56.28 487.369 58.64 486.569 61.92C485.769 65.2 484.689 69.04 483.329 73.44C481.969 77.76 480.449 82.2 478.769 86.76C481.249 85.72 483.769 84.28 486.329 82.44C488.889 80.52 491.249 78.24 493.409 75.6C495.569 72.88 497.209 69.88 498.329 66.6L500.489 68.76C499.209 72.44 497.209 75.8 494.489 78.84C491.849 81.88 488.969 84.52 485.849 86.76C482.729 88.92 479.849 90.6 477.209 91.8C475.049 97.08 472.689 101.88 470.129 106.2C467.649 110.6 464.969 114.08 462.089 116.64C459.289 119.28 456.249 120.6 452.969 120.6ZM452.489 115.08C453.929 115.08 455.889 113.72 458.369 111C460.929 108.28 463.689 103.68 466.649 97.2C463.689 98.64 460.969 100.12 458.489 101.64C456.009 103.16 454.009 104.76 452.489 106.44C450.969 108.12 450.209 109.88 450.209 111.72C450.209 112.76 450.409 113.56 450.809 114.12C451.289 114.76 451.849 115.08 452.489 115.08ZM517.567 90.12C514.607 90.12 512.207 89.32 510.367 87.72C508.527 86.2 507.607 84.12 507.607 81.48C507.607 79.24 508.167 76.84 509.287 74.28C510.407 71.72 511.527 69.2 512.647 66.72C513.847 64.24 514.447 62.04 514.447 60.12C514.447 58.28 513.847 56.76 512.647 55.56C511.447 54.28 510.047 53.24 508.447 52.44C506.687 56.84 504.687 61.12 502.447 65.28C500.287 69.36 498.527 72.56 497.167 74.88L495.367 71.4C496.487 69.32 497.967 66.36 499.807 62.52C501.647 58.68 503.407 54.4 505.087 49.68C504.287 48.88 503.887 47.8 503.887 46.44C503.887 44.36 504.527 42.4 505.807 40.56C507.087 38.72 508.327 37.8 509.527 37.8C510.487 37.8 511.167 38.36 511.567 39.48C512.047 40.52 512.287 41.24 512.287 41.64C512.287 42.04 512.087 42.76 511.687 43.8C511.367 44.84 511.127 45.6 510.967 46.08C511.047 46.96 511.727 47.84 513.007 48.72C514.367 49.52 515.887 50.48 517.567 51.6C519.247 52.72 520.727 54.12 522.007 55.8C523.287 57.48 523.927 59.6 523.927 62.16C523.927 64.48 523.407 66.84 522.367 69.24C521.327 71.64 520.287 73.88 519.247 75.96C518.207 78.04 517.687 79.84 517.687 81.36C517.687 82.48 517.967 83.24 518.527 83.64C519.167 83.96 519.887 84.12 520.687 84.12C522.607 84.12 524.607 83.56 526.687 82.44C528.767 81.24 530.807 79.72 532.807 77.88C534.807 76.04 536.567 74.12 538.087 72.12C539.607 70.04 540.767 68.16 541.567 66.48L544.447 68.64C542.927 72.08 540.727 75.48 537.847 78.84C534.967 82.12 531.767 84.84 528.247 87C524.727 89.08 521.167 90.12 517.567 90.12ZM545.681 92.64C543.041 92.64 540.761 91.76 538.841 90C536.841 88.24 535.841 85.6 535.841 82.08C535.841 79.28 536.481 76.24 537.761 72.96C539.041 69.68 540.801 66.44 543.041 63.24C545.281 60.04 547.841 57.16 550.721 54.6C553.601 51.96 556.681 49.84 559.961 48.24C563.241 46.64 566.521 45.84 569.801 45.84C573.241 45.84 576.161 46.72 578.561 48.48C580.961 50.24 582.161 52.56 582.161 55.44C582.161 57.6 581.401 59.16 579.881 60.12C578.361 61.08 576.561 61.36 574.481 60.96C574.641 60.24 574.761 59.52 574.841 58.8C575.001 58.08 575.081 57.32 575.081 56.52C575.081 54.92 574.761 53.48 574.121 52.2C573.481 50.92 572.121 50.28 570.041 50.28C567.801 50.28 565.521 51.04 563.201 52.56C560.881 54.08 558.641 56.08 556.481 58.56C554.401 60.96 552.521 63.64 550.841 66.6C549.161 69.48 547.841 72.32 546.881 75.12C545.921 77.92 545.441 80.44 545.441 82.68C545.441 85.24 546.361 86.52 548.201 86.52C550.041 86.52 552.081 85.64 554.321 83.88C556.561 82.04 558.801 79.76 561.041 77.04C563.361 74.32 565.561 71.56 567.641 68.76C569.721 65.88 571.521 63.44 573.041 61.44C573.281 61.04 573.601 60.84 574.001 60.84C574.321 60.92 574.921 61.12 575.801 61.44C576.761 61.68 577.641 62.08 578.441 62.64C579.241 63.2 579.641 63.92 579.641 64.8C579.641 65.6 579.281 66.64 578.561 67.92C577.921 69.12 577.121 70.48 576.161 72C575.281 73.44 574.481 74.92 573.761 76.44C573.121 77.88 572.801 79.28 572.801 80.64C572.801 81.68 573.081 82.68 573.641 83.64C574.201 84.52 575.121 84.96 576.401 84.96C578.321 84.96 581.001 83.56 584.441 80.76C587.961 77.88 591.521 73.04 595.121 66.24L597.401 68.52C595.481 72.84 593.161 76.68 590.441 80.04C587.801 83.32 585.001 85.88 582.041 87.72C579.081 89.64 576.081 90.6 573.041 90.6C569.761 90.6 567.321 89.56 565.721 87.48C564.121 85.4 563.241 83.16 563.081 80.76C563.081 80.6 563.081 80.48 563.081 80.4C563.081 80.32 563.081 80.24 563.081 80.16C559.881 84 556.921 87.04 554.201 89.28C551.561 91.52 548.721 92.64 545.681 92.64ZM655.041 90.72C651.921 90.72 649.601 89.8 648.081 87.96C646.561 86.12 645.801 83.92 645.801 81.36C645.801 79.52 646.081 77.68 646.641 75.84C647.201 74 647.761 72.2 648.321 70.44C648.881 68.6 649.161 66.96 649.161 65.52C649.161 64.16 648.881 63.24 648.321 62.76C647.841 62.2 647.201 61.92 646.401 61.92C644.561 61.92 642.401 63.32 639.921 66.12C637.521 68.92 634.521 73 630.921 78.36C629.641 80.28 628.441 82.32 627.321 84.48C626.201 86.56 625.201 88.32 624.321 89.76C623.601 89.76 622.641 89.64 621.441 89.4C620.321 89.16 619.321 88.8 618.441 88.32C617.561 87.92 617.121 87.36 617.121 86.64C617.121 85.92 617.521 84.52 618.321 82.44C619.121 80.36 620.041 77.96 621.081 75.24C622.121 72.44 623.041 69.72 623.841 67.08C624.641 64.36 625.041 62.08 625.041 60.24C625.041 59.12 624.841 58.24 624.441 57.6C624.041 56.96 623.401 56.64 622.521 56.64C620.841 56.64 618.801 57.64 616.401 59.64C614.081 61.64 611.601 64.28 608.961 67.56C606.401 70.76 603.961 74.36 601.641 78.36C599.401 82.28 597.561 86.24 596.121 90.24C595.241 90.24 594.161 90.04 592.881 89.64C591.601 89.32 590.481 88.88 589.521 88.32C588.561 87.84 588.081 87.4 588.081 87C588.081 86.92 588.361 85.8 588.921 83.64C589.481 81.4 590.161 78.64 590.961 75.36C591.761 72.08 592.601 68.72 593.481 65.28C594.361 61.84 595.121 58.84 595.761 56.28C596.001 55.4 596.881 54.64 598.401 54C599.921 53.28 601.241 52.92 602.361 52.92C603.481 52.92 604.441 53.28 605.241 54C606.041 54.72 606.441 55.68 606.441 56.88C606.441 57.68 606.281 58.84 605.961 60.36C605.641 61.88 605.241 63.6 604.761 65.52C606.441 63.28 608.201 61.08 610.041 58.92C611.961 56.68 613.921 54.68 615.921 52.92C618.001 51.16 620.041 49.76 622.041 48.72C624.121 47.68 626.161 47.16 628.161 47.16C631.121 47.16 633.121 48.24 634.161 50.4C635.201 52.48 635.721 54.76 635.721 57.24C635.721 58.28 635.641 59.32 635.481 60.36C635.321 61.32 635.081 62.32 634.761 63.36C634.521 64.32 634.161 65.48 633.681 66.84C635.201 64.6 636.841 62.56 638.601 60.72C640.441 58.8 642.401 57.28 644.481 56.16C646.561 55.04 648.761 54.48 651.081 54.48C654.201 54.48 656.361 55.44 657.561 57.36C658.761 59.2 659.361 61.24 659.361 63.48C659.361 65.56 659.001 67.76 658.281 70.08C657.641 72.32 656.961 74.48 656.241 76.56C655.601 78.56 655.281 80.28 655.281 81.72C655.281 82.52 655.481 83.28 655.881 84C656.281 84.64 657.081 84.96 658.281 84.96C660.441 84.96 662.521 83.96 664.521 81.96C666.521 79.96 668.361 77.52 670.041 74.64C671.801 71.68 673.281 68.88 674.481 66.24L676.521 68.76C675.241 72.04 673.561 75.4 671.481 78.84C669.481 82.2 667.121 85 664.401 87.24C661.681 89.56 658.561 90.72 655.041 90.72Z" fill="#FFE7E3"/>
</svg>
