<svg width="183" height="72" viewBox="0 0 183 72" fill="none" xmlns="http://www.w3.org/2000/svg"><circle cx="40.313" cy="35.945" r="34.945" fill="#E1CFDB"/><circle cx="43.589" cy="35.945" r="34.672" stroke="#FFE7E3" stroke-width=".546"/><path d="M60.654 60.654a34.945 34.945 0 1 1 2.688-46.4" stroke="#3C3C3C" stroke-width=".546"/><path d="M22.324 36.28c-1.065 0-1.87-.175-2.41-.524-.542-.35-.822-.926-.84-1.73 0-.175.097-.262.289-.262.157 0 .393.044.707.131.332.07.953.105 1.861.105 1.538 0 2.953-.157 4.246-.472 1.293-.332 2.411-.768 3.355-1.31.96-.56 1.703-1.18 2.227-1.861.525-.699.787-1.424.787-2.175 0-.682-.21-1.223-.63-1.625-.401-.42-.943-.734-1.624-.944a9.268 9.268 0 0 0-2.202-.445 26.333 26.333 0 0 0-2.332-.105c-.332 0-.664.009-.996.026h-.944c-.384 1.328-.76 2.7-1.127 4.115a130.892 130.892 0 0 1-1.153 4.167c-.524 0-.978-.14-1.363-.42-.384-.279-.576-.62-.576-1.021 0-.158.026-.359.078-.603.07-.262.166-.568.289-.918.104-.332.28-.882.524-1.65.262-.77.568-1.678.917-2.726.35-1.049.734-2.15 1.153-3.303.437-1.17.883-2.315 1.337-3.433a46.258 46.258 0 0 1 1.389-3.014c-.699.157-1.276.34-1.73.55-.454.21-.812.394-1.074.55-.262.158-.463.237-.603.237-.105 0-.245-.062-.42-.184a3.342 3.342 0 0 1-.445-.42c-.122-.156-.183-.296-.183-.418a30.535 30.535 0 0 1 2.935-1.023c1.013-.297 2.236-.445 3.67-.445.628 0 1.318.052 2.07.157.75.087 1.467.28 2.149.577a3.94 3.94 0 0 1 1.677 1.284c.454.559.681 1.31.681 2.254 0 .751-.166 1.406-.497 1.965a4.692 4.692 0 0 1-1.285 1.416 8.735 8.735 0 0 1-1.782.97c-.646.244-1.284.445-1.913.602 1.083.14 1.983.367 2.7.682.733.297 1.31.646 1.73 1.048.436.402.742.821.916 1.258.193.42.289.83.289 1.232 0 1.03-.271 1.957-.813 2.778-.541.821-1.258 1.538-2.149 2.149a13.109 13.109 0 0 1-2.909 1.52c-1.048.42-2.097.734-3.145.944-1.048.21-1.992.314-2.83.314zm1.756-12.187c.979-.035 1.94-.148 2.883-.34a10.594 10.594 0 0 0 2.543-.84c.768-.384 1.38-.873 1.834-1.467.454-.611.682-1.363.682-2.254 0-.838-.227-1.485-.682-1.94-.454-.454-1.048-.768-1.782-.943a10.165 10.165 0 0 0-2.359-.262h-.105a32.303 32.303 0 0 0-1.625 3.827 85.288 85.288 0 0 0-1.389 4.22zm14.006 11.06c-1.118 0-1.983-.306-2.595-.917-.594-.594-.89-1.345-.89-2.254 0-.769.191-1.581.576-2.438a9.946 9.946 0 0 1 1.599-2.437 8.793 8.793 0 0 1 2.201-1.86c.804-.472 1.608-.708 2.411-.708.455 0 .883.122 1.285.367.419.227.628.69.628 1.389a3.29 3.29 0 0 1-.576 1.86c-.385.577-.9 1.092-1.546 1.547a9.651 9.651 0 0 1-2.15 1.127c-.768.28-1.546.463-2.332.55-.018.07-.035.149-.053.236v.367c0 .087.01.245.027.472.035.21.113.437.236.681.122.245.323.454.602.63.28.174.664.261 1.154.261.733 0 1.467-.2 2.201-.603a8.855 8.855 0 0 0 2.097-1.65 9.62 9.62 0 0 0 1.651-2.28l.524.419a9.716 9.716 0 0 1-1.835 2.751 8.247 8.247 0 0 1-2.463 1.835 6.184 6.184 0 0 1-2.752.655zm-1.1-4.744c.454-.052.96-.21 1.52-.471a8.106 8.106 0 0 0 1.598-.996 6.054 6.054 0 0 0 1.284-1.31c.332-.49.498-.98.498-1.468 0-.193-.035-.324-.105-.394-.07-.07-.183-.104-.34-.104-.402 0-.822.148-1.258.445-.437.28-.865.655-1.285 1.127a9.036 9.036 0 0 0-1.127 1.52 9.398 9.398 0 0 0-.786 1.651zm8.46 4.823a2.136 2.136 0 0 1-1.494-.577c-.437-.384-.655-.96-.655-1.73 0-.611.14-1.275.42-1.991.279-.717.663-1.424 1.152-2.123a10.807 10.807 0 0 1 1.678-1.887 8.499 8.499 0 0 1 2.018-1.39c.716-.349 1.433-.523 2.149-.523.751 0 1.389.192 1.913.576.524.384.786.891.786 1.52 0 .472-.166.813-.498 1.022-.332.21-.725.271-1.179.184.035-.157.061-.315.079-.472.035-.157.052-.323.052-.498 0-.35-.07-.664-.21-.944-.14-.279-.436-.419-.89-.419-.49 0-.988.166-1.495.498a7.2 7.2 0 0 0-1.467 1.31 10.86 10.86 0 0 0-1.232 1.756c-.367.63-.655 1.25-.865 1.861-.21.612-.314 1.162-.314 1.651 0 .56.2.84.602.84.402 0 .848-.193 1.337-.577.49-.402.978-.9 1.468-1.494a34.41 34.41 0 0 0 1.441-1.809c.454-.629.848-1.162 1.18-1.598.052-.088.122-.131.21-.131.069.017.2.06.392.13.21.053.402.14.577.263.175.122.262.28.262.471 0 .175-.079.402-.236.682-.14.262-.314.559-.524.89a10.4 10.4 0 0 0-.524.97c-.14.315-.21.62-.21.918 0 .227.061.446.184.655.122.192.323.288.602.288.42 0 1.005-.305 1.756-.917.77-.629 1.547-1.686 2.333-3.171l.498.498a11.25 11.25 0 0 1-1.52 2.516c-.577.716-1.188 1.275-1.835 1.677-.646.42-1.302.63-1.965.63-.717 0-1.25-.228-1.6-.682a2.673 2.673 0 0 1-.576-1.468v-.131c-.699.839-1.345 1.503-1.94 1.992-.576.49-1.196.734-1.86.734zm12.17-.446c-.595 0-1.084-.27-1.468-.812-.367-.56-.55-1.197-.55-1.913 0-.49.078-1.066.235-1.73.158-.664.358-1.31.603-1.94a10.94 10.94 0 0 1 .786-1.572c.28-.42.533-.63.76-.63.123 0 .306.07.55.21.263.123.49.28.682.472-.192.28-.428.708-.707 1.285a16.491 16.491 0 0 0-.708 1.86c-.21.664-.315 1.267-.315 1.809 0 .07.01.236.027.498.035.262.104.506.21.733.104.228.288.341.55.341.297 0 .611-.157.943-.472.35-.331.7-.75 1.049-1.258.367-.524.716-1.083 1.048-1.677.35-.594.655-1.17.917-1.73.28-.559.507-1.03.682-1.415.157.018.358.061.602.131.263.07.49.166.682.288a.507.507 0 0 1 .288.472c0 .053-.087.271-.262.655-.157.367-.35.813-.576 1.337-.21.524-.402 1.066-.577 1.625-.157.542-.236 1.022-.236 1.441 0 .245.044.463.131.656.105.174.297.262.577.262.367 0 .803-.166 1.31-.498.507-.332 1.03-.813 1.573-1.442.541-.629 1.022-1.38 1.441-2.254l.393.315a9.94 9.94 0 0 1-1.494 2.542c-.611.751-1.266 1.337-1.965 1.756-.7.437-1.38.655-2.045.655-.506 0-.89-.122-1.153-.367a1.727 1.727 0 0 1-.498-.89 6.54 6.54 0 0 1-.157-1.154v-.524c-.297.472-.62.935-.97 1.389-.35.437-.725.804-1.127 1.1-.384.298-.795.446-1.232.446zm11.961.42c-.769 0-1.389-.228-1.86-.682-.472-.454-.708-1.144-.708-2.07 0-.717.13-1.608.393-2.674.28-1.065.629-2.166 1.048-3.302a2.588 2.588 0 0 0-.445-.079 2.495 2.495 0 0 1-.472-.157v-.812c.28.035.507.06.681.078l.577.053c.367-.926.76-1.817 1.18-2.673.436-.874.864-1.652 1.284-2.333.436-.681.847-1.214 1.231-1.599.385-.402.725-.602 1.023-.602.174 0 .34.07.498.21.157.121.235.305.235.55 0 .349-.183.847-.55 1.493a59.73 59.73 0 0 1-1.31 2.28 36.68 36.68 0 0 0-1.52 2.753h.812c.769 0 1.459-.01 2.07-.027a36.842 36.842 0 0 0 1.914-.157v.865c-.961.087-1.844.157-2.647.21-.804.052-1.573.087-2.307.104h-.314c-.367.856-.69 1.739-.97 2.647a9.26 9.26 0 0 0-.393 2.621c0 .717.114 1.223.34 1.52.228.297.586.446 1.075.446.874 0 1.765-.393 2.673-1.18.927-.803 1.73-1.886 2.412-3.25l.367.263a12.262 12.262 0 0 1-1.704 2.804c-.664.839-1.39 1.494-2.175 1.966-.787.489-1.6.734-2.438.734zm6.424 6.132c-.437 0-.848-.14-1.232-.419-.367-.262-.55-.69-.55-1.284 0-.56.165-1.066.497-1.52a6.2 6.2 0 0 1 1.285-1.232 15.867 15.867 0 0 1 1.677-1.022c.612-.297 1.197-.577 1.756-.839a27.57 27.57 0 0 0 .629-1.913c.245-.786.454-1.512.629-2.175a13.888 13.888 0 0 1-1.73 1.991c-.611.577-1.293.865-2.044.865-.315 0-.647-.06-.996-.183a2.108 2.108 0 0 1-.891-.682c-.227-.331-.34-.768-.34-1.31 0-.454.078-1.005.235-1.651.175-.647.385-1.276.63-1.887.261-.63.532-1.145.812-1.546.28-.42.524-.63.733-.63.105 0 .254.044.446.132.21.07.41.174.603.314.192.122.314.262.367.42-.158.21-.332.515-.524.917a11.85 11.85 0 0 0-.55 1.31c-.176.472-.324.935-.447 1.39a5.357 5.357 0 0 0-.157 1.179c0 .262.053.489.157.681.105.192.306.288.603.288.385 0 .778-.157 1.18-.471a6.55 6.55 0 0 0 1.205-1.206c.402-.49.76-.987 1.075-1.494.035-.122.07-.314.105-.576a4.9 4.9 0 0 1 .183-.813c.088-.297.236-.568.446-.812.227-.245.541-.367.943-.367.14 0 .271.008.393.026.123.017.271.044.446.079 0 .262-.096.777-.288 1.546a45.126 45.126 0 0 1-.708 2.62 49.917 49.917 0 0 1-.996 2.988c.734-.297 1.494-.786 2.28-1.467.804-.7 1.45-1.686 1.94-2.962l.445.367a6.34 6.34 0 0 1-1.205 2.28 8.38 8.38 0 0 1-1.783 1.651 12.12 12.12 0 0 1-2.018 1.127 26.325 26.325 0 0 1-1.546 3.145c-.542.961-1.118 1.721-1.73 2.28-.611.577-1.266.865-1.965.865zm-.263-.97c.332 0 .796-.349 1.39-1.048.594-.699 1.197-1.747 1.808-3.145-.56.28-1.127.603-1.704.97a8.225 8.225 0 0 0-1.415 1.206c-.384.419-.576.847-.576 1.284 0 .175.034.34.104.498a.423.423 0 0 0 .394.236zm16.175-4.088c.088-.262.341-.865.76-1.808a456.12 456.12 0 0 0 1.73-3.722c.734-1.572 1.599-3.433 2.595-5.582.996-2.15 2.105-4.57 3.328-7.26.07-.14.123-.288.158-.446.052-.157.078-.297.078-.419a.566.566 0 0 0-.157-.42c-.105-.104-.306-.157-.603-.157-.734 0-1.337.228-1.808.682a4.096 4.096 0 0 0-1.022 1.625 6.176 6.176 0 0 0-.315 1.913c0 .157.009.34.026.55.018.21.044.446.079.708-.42 0-.769-.122-1.048-.367a2.65 2.65 0 0 1-.603-.943 3.157 3.157 0 0 1-.21-1.075c0-.559.157-1.1.472-1.625.332-.524.76-.996 1.284-1.415a6.193 6.193 0 0 1 1.73-1.022 5.38 5.38 0 0 1 1.913-.367c.647 0 1.197.183 1.651.55.455.35.804.996 1.049 1.94.244.926.366 2.262.366 4.01a46.14 46.14 0 0 1-.131 3.46 126.101 126.101 0 0 1-.235 3.249 30.638 30.638 0 0 0-.131 2.595 40.24 40.24 0 0 1 1.284-3.277 63.007 63.007 0 0 1 1.677-3.459 88.266 88.266 0 0 1 1.756-3.25 119.989 119.989 0 0 1 1.546-2.647c.472-.769.83-1.337 1.075-1.703.245-.385.463-.673.655-.865.192-.193.454-.289.786-.289.245 0 .629.096 1.154.289-.158.332-.341.864-.551 1.598a74.828 74.828 0 0 0-.681 2.516 90.14 90.14 0 0 0-.786 3.46 83.958 83.958 0 0 0-.708 3.774 85.362 85.362 0 0 0-.524 3.643 28.351 28.351 0 0 0-.184 3.014c0 .454.018.812.053 1.075.052.262.113.489.183.68.087.21.184.473.288.787-.751 0-1.327-.113-1.729-.34-.385-.228-.647-.595-.787-1.101-.122-.49-.183-1.145-.183-1.966 0-1.94.218-3.975.655-6.107.454-2.149.979-4.359 1.573-6.63a26.31 26.31 0 0 0-1.52 2.49 61.004 61.004 0 0 0-1.547 3.04 100.852 100.852 0 0 0-1.441 3.17 77.401 77.401 0 0 0-1.206 2.884c-.349.873-.62 1.607-.812 2.201a5.43 5.43 0 0 1-.341.105.679.679 0 0 1-.21.026c-.611 0-1.004-.367-1.179-1.1-.157-.752-.236-1.774-.236-3.067 0-.681.009-1.406.026-2.175.018-.786.044-1.581.079-2.385a109.348 109.348 0 0 0 .105-4.744c0-.262-.009-.524-.026-.786v-.76c-1.328 3.093-2.455 5.74-3.381 7.941-.909 2.184-1.686 3.966-2.333 5.347-.646 1.362-1.24 2.358-1.782 2.987-.542.647-1.11.97-1.704.97zm22.126-1.048a2.135 2.135 0 0 1-1.494-.577c-.437-.384-.655-.96-.655-1.73 0-.611.139-1.275.419-1.991.279-.717.664-1.424 1.153-2.123a10.792 10.792 0 0 1 1.677-1.887 8.49 8.49 0 0 1 2.019-1.39c.716-.349 1.432-.523 2.149-.523.751 0 1.389.192 1.913.576.524.384.786.891.786 1.52 0 .472-.166.813-.498 1.022-.332.21-.725.271-1.179.184.035-.157.061-.315.078-.472.035-.157.053-.323.053-.498 0-.35-.07-.664-.21-.944-.14-.279-.437-.419-.891-.419-.489 0-.987.166-1.494.498a7.202 7.202 0 0 0-1.468 1.31 10.86 10.86 0 0 0-1.231 1.756c-.367.63-.656 1.25-.865 1.861-.21.612-.315 1.162-.315 1.651 0 .56.201.84.603.84.402 0 .847-.193 1.337-.577.489-.402.978-.9 1.467-1.494.507-.594.988-1.197 1.442-1.809a79.51 79.51 0 0 1 1.179-1.598c.053-.088.123-.131.21-.131.07.017.201.06.393.13.21.053.402.14.577.263.174.122.262.28.262.471 0 .175-.079.402-.236.682-.14.262-.315.559-.524.89-.193.315-.367.639-.524.97-.14.315-.21.62-.21.918 0 .227.061.446.183.655.123.192.324.288.603.288.419 0 1.005-.305 1.756-.917.769-.629 1.546-1.686 2.333-3.171l.498.498a11.25 11.25 0 0 1-1.52 2.516c-.577.716-1.189 1.275-1.835 1.677-.647.42-1.302.63-1.966.63-.716 0-1.249-.228-1.598-.682-.35-.454-.542-.944-.577-1.468v-.131c-.699.839-1.345 1.503-1.939 1.992-.577.49-1.197.734-1.861.734zm19.01-.708c-.682 0-1.206-.175-1.573-.524-.349-.332-.524-.76-.524-1.284 0-.35.061-.717.184-1.101l.366-1.206c.123-.401.184-.786.184-1.153 0-.384-.096-.646-.288-.786a.91.91 0 0 0-.629-.236c-.525 0-1.066.218-1.625.655a9.845 9.845 0 0 0-1.599 1.599 28.28 28.28 0 0 0-1.442 2.018 55.946 55.946 0 0 0-1.179 1.887c-.332 0-.646-.061-.943-.183a1.613 1.613 0 0 1-.76-.577c.017-.087.122-.35.314-.786.175-.455.376-.987.603-1.599a21.66 21.66 0 0 0 .603-1.966c.174-.681.262-1.301.262-1.86.122-.14.305-.28.55-.42.262-.14.533-.21.813-.21.611 0 .917.263.917.787 0 .21-.044.524-.131.943-.07.402-.175.865-.315 1.39.455-.612.953-1.189 1.494-1.73a8.11 8.11 0 0 1 1.678-1.31c.594-.35 1.188-.525 1.782-.525.751 0 1.301.253 1.651.76.367.507.55 1.066.55 1.678 0 .524-.087 1.013-.262 1.467-.175.454-.349.883-.524 1.284a3.23 3.23 0 0 0-.236 1.18c0 .28.061.48.184.603a.727.727 0 0 0 .445.157c.419 0 .856-.201 1.311-.603a7.553 7.553 0 0 0 1.284-1.52c.419-.63.786-1.258 1.101-1.887l.445.367a15.059 15.059 0 0 1-1.258 2.359c-.454.699-.97 1.266-1.546 1.703a3.066 3.066 0 0 1-1.887.63zm5.652.262c-.769 0-1.346-.227-1.73-.681-.384-.454-.577-1.005-.577-1.651 0-.402.07-.909.21-1.52.14-.612.332-1.25.577-1.914.262-.681.559-1.319.891-1.913.332-.594.69-1.074 1.074-1.441.385-.385.769-.577 1.153-.577.21 0 .394.061.551.184.157.122.236.314.236.576 0 .227-.14.568-.42 1.022-.262.455-.576.979-.943 1.573-.35.594-.664 1.214-.944 1.86-.262.63-.393 1.232-.393 1.809 0 .56.096.935.289 1.127.209.175.506.262.891.262.594 0 1.24-.297 1.939-.891.699-.594 1.424-1.634 2.175-3.119l.394.42c-.612 1.537-1.39 2.734-2.333 3.59-.944.856-1.957 1.284-3.04 1.284zm3.092-11.82c-.332 0-.637-.078-.917-.236-.262-.174-.393-.436-.393-.786 0-.42.227-.777.681-1.075.455-.296.926-.445 1.416-.445.314 0 .576.07.786.21.227.14.341.393.341.76s-.201.725-.603 1.074c-.402.332-.839.498-1.311.498zm4.171 12.502c-.908 0-1.66-.289-2.254-.865-.576-.56-.865-1.424-.865-2.595 0-.856.166-1.695.498-2.516a7.82 7.82 0 0 1 1.337-2.201 6.806 6.806 0 0 1 1.861-1.573c.699-.384 1.406-.576 2.123-.576.734 0 1.258.183 1.572.55.332.367.498.795.498 1.284 0 .49-.122.97-.367 1.442-.227.454-.541.681-.943.681-.332 0-.603-.166-.813-.498.175-.122.358-.35.551-.681.192-.332.288-.76.288-1.285 0-.14-.035-.244-.105-.314-.07-.088-.201-.131-.393-.131-.437 0-.9.2-1.389.603-.472.384-.917.89-1.337 1.52a9.88 9.88 0 0 0-.996 1.965c-.244.682-.367 1.31-.367 1.887 0 .49.123.944.367 1.363.262.402.76.603 1.494.603.664 0 1.354-.192 2.071-.577.716-.384 1.389-.917 2.018-1.598a8.292 8.292 0 0 0 1.52-2.49l.524.472a9.404 9.404 0 0 1-1.756 2.856 8.639 8.639 0 0 1-2.463 1.94c-.892.49-1.783.734-2.674.734zm7.758-.682c-.594 0-1.083-.27-1.467-.812-.367-.56-.551-1.197-.551-1.913 0-.49.079-1.066.236-1.73.157-.664.358-1.31.603-1.94.262-.629.524-1.153.786-1.572.28-.42.533-.63.76-.63.122 0 .306.07.55.21.263.123.49.28.682.472-.192.28-.428.708-.708 1.285a16.396 16.396 0 0 0-.707 1.86c-.21.664-.315 1.267-.315 1.809 0 .07.009.236.026.498.035.262.105.506.21.733.105.228.288.341.55.341.297 0 .612-.157.944-.472a7.978 7.978 0 0 0 1.048-1.258c.367-.524.717-1.083 1.049-1.677.349-.594.655-1.17.917-1.73.279-.559.507-1.03.681-1.415.158.018.359.061.603.131.262.07.489.166.682.288a.507.507 0 0 1 .288.472c0 .053-.088.271-.262.655l-.577 1.337c-.21.524-.402 1.066-.576 1.625-.158.542-.236 1.022-.236 1.441 0 .245.043.463.131.656.105.174.297.262.576.262.367 0 .804-.166 1.311-.498.506-.332 1.031-.813 1.572-1.442.542-.629 1.022-1.38 1.442-2.254l.393.315a9.943 9.943 0 0 1-1.494 2.542c-.612.751-1.267 1.337-1.966 1.756-.699.437-1.38.655-2.044.655-.507 0-.891-.122-1.153-.367a1.722 1.722 0 0 1-.498-.89 6.52 6.52 0 0 1-.157-1.154v-.524c-.297.472-.621.935-.97 1.389a6.057 6.057 0 0 1-1.127 1.1c-.384.298-.795.446-1.232.446zm14.426-.105c-.647 0-1.171-.174-1.573-.524-.402-.332-.603-.786-.603-1.363 0-.489.123-1.013.367-1.572.245-.56.489-1.11.734-1.651.262-.542.393-1.022.393-1.442 0-.402-.131-.734-.393-.996a3.226 3.226 0 0 0-.917-.681 27.453 27.453 0 0 1-1.311 2.804 57.65 57.65 0 0 1-1.153 2.097l-.393-.76c.245-.454.568-1.1.97-1.94a29.02 29.02 0 0 0 1.153-2.804c-.175-.175-.262-.41-.262-.707 0-.455.14-.883.419-1.285.28-.402.55-.602.813-.602.209 0 .358.122.445.366.105.228.157.385.157.472 0 .087-.043.245-.131.472-.07.227-.122.393-.157.498.018.192.166.384.446.577.297.174.629.384.996.628.366.245.69.55.969.918.28.367.42.83.42 1.389 0 .506-.114 1.022-.341 1.546a28.737 28.737 0 0 1-.682 1.468c-.227.454-.34.847-.34 1.18 0 .244.061.41.183.497.14.07.297.105.472.105.419 0 .856-.122 1.31-.367.455-.262.9-.594 1.337-.996a9.62 9.62 0 0 0 1.153-1.258 7.84 7.84 0 0 0 .76-1.232l.629.472c-.332.751-.812 1.494-1.441 2.228A9.163 9.163 0 0 1 170.48 34c-.769.454-1.546.681-2.332.681zm7.712.472c-1.118 0-1.983-.306-2.594-.917-.594-.594-.891-1.345-.891-2.254 0-.769.192-1.581.576-2.438a9.953 9.953 0 0 1 1.599-2.437 8.805 8.805 0 0 1 2.201-1.86c.804-.472 1.608-.708 2.412-.708.454 0 .882.122 1.284.367.419.227.629.69.629 1.389 0 .664-.192 1.284-.577 1.86-.384.577-.9 1.092-1.546 1.547a9.668 9.668 0 0 1-2.149 1.127c-.769.28-1.547.463-2.333.55a5.18 5.18 0 0 0-.052.236v.367c0 .087.009.245.026.472.035.21.114.437.236.681.122.245.323.454.603.63.279.174.664.261 1.153.261.734 0 1.468-.2 2.201-.603a8.792 8.792 0 0 0 2.097-1.65 9.621 9.621 0 0 0 1.651-2.28l.524.419a9.706 9.706 0 0 1-1.834 2.751 8.246 8.246 0 0 1-2.464 1.835 6.183 6.183 0 0 1-2.752.655zm-1.101-4.744c.455-.052.961-.21 1.521-.471a8.084 8.084 0 0 0 1.598-.996 6.061 6.061 0 0 0 1.285-1.31c.332-.49.497-.98.497-1.468 0-.193-.034-.324-.104-.394-.07-.07-.184-.104-.341-.104-.402 0-.821.148-1.258.445-.437.28-.865.655-1.284 1.127a8.99 8.99 0 0 0-1.127 1.52 9.468 9.468 0 0 0-.787 1.651zM23.052 56.747c-.76 0-1.487-.131-2.181-.393a3.891 3.891 0 0 1-1.671-1.2c-.433-.537-.649-1.205-.649-2.004 0-.708.157-1.258.472-1.651a2.442 2.442 0 0 1 1.18-.846c.47-.157.93-.236 1.375-.236-.42.446-.74.905-.963 1.376-.21.472-.314.924-.314 1.357 0 .445.11.865.334 1.258.235.38.583.688 1.041.924.46.249 1.03.373 1.71.373.59 0 1.16-.098 1.71-.295.564-.196 1.023-.491 1.377-.884.367-.394.55-.885.55-1.475 0-.537-.157-.995-.472-1.376a4.37 4.37 0 0 0-1.18-1.041c-.484-.315-.995-.61-1.532-.885a17.604 17.604 0 0 1-1.534-.924 4.753 4.753 0 0 1-1.199-1.14c-.301-.432-.452-.95-.452-1.553 0-.537.131-1.107.393-1.71a6.36 6.36 0 0 1 1.16-1.73c.498-.537 1.1-.97 1.808-1.297.708-.34 1.494-.51 2.36-.51.904 0 1.54.19 1.906.57.367.38.55.877.55 1.493 0 .485-.085 1.002-.255 1.553-.17.55-.38 1.074-.63 1.572-.235.498-.464.924-.687 1.278-.288-.065-.505-.177-.649-.334-.144-.17-.216-.393-.216-.668 0-.276.052-.583.157-.924.118-.341.25-.695.393-1.062.158-.367.289-.72.393-1.061.118-.354.177-.662.177-.924 0-.236-.072-.42-.216-.55-.13-.131-.406-.197-.825-.197-.63 0-1.206.138-1.73.413a5.153 5.153 0 0 0-1.376 1.042c-.38.419-.675.864-.885 1.336-.21.459-.314.878-.314 1.258 0 .472.15.878.452 1.219.301.328.688.629 1.16.904.485.275.989.55 1.513.826a11.65 11.65 0 0 1 1.514.924c.485.34.878.747 1.18 1.218.3.472.451 1.049.451 1.73s-.157 1.284-.471 1.809a3.956 3.956 0 0 1-1.239 1.316 5.807 5.807 0 0 1-1.75.826 6.42 6.42 0 0 1-1.926.295zm8.362-.806c-.577 0-1.042-.17-1.396-.511-.354-.34-.53-.858-.53-1.553 0-.537.098-1.206.294-2.005.21-.8.472-1.625.787-2.477a1.936 1.936 0 0 0-.334-.059 1.86 1.86 0 0 1-.354-.118v-.609c.21.026.38.046.51.06l.433.038c.275-.694.57-1.363.885-2.005a22.5 22.5 0 0 1 .963-1.749c.328-.511.635-.91.924-1.2.288-.3.544-.451.766-.451.131 0 .256.052.374.157.118.092.177.23.177.413 0 .262-.138.635-.413 1.12-.262.485-.59 1.055-.983 1.71-.393.642-.773 1.33-1.14 2.064h.609c.577 0 1.095-.006 1.553-.02a27.8 27.8 0 0 0 1.435-.117v.648c-.72.066-1.382.118-1.985.158-.603.039-1.18.065-1.73.078h-.236a19.876 19.876 0 0 0-.727 1.986A6.947 6.947 0 0 0 31 53.464c0 .538.085.918.256 1.14.17.223.439.334.805.334.656 0 1.324-.294 2.006-.884.694-.603 1.297-1.415 1.808-2.438l.275.197a9.197 9.197 0 0 1-1.278 2.103c-.498.63-1.041 1.12-1.631 1.475-.59.367-1.2.55-1.828.55zm4.975.02c-.433 0-.806-.145-1.12-.433-.328-.288-.492-.72-.492-1.297 0-.459.105-.957.314-1.494a7.6 7.6 0 0 1 .865-1.592 8.102 8.102 0 0 1 1.258-1.416c.472-.432.977-.78 1.514-1.041a3.648 3.648 0 0 1 1.612-.393c.563 0 1.041.144 1.434.432.394.288.59.668.59 1.14 0 .354-.124.61-.373.767-.25.157-.544.203-.885.137.026-.118.046-.236.06-.354.025-.117.039-.242.039-.373a1.56 1.56 0 0 0-.158-.708c-.105-.21-.327-.314-.668-.314-.367 0-.74.124-1.12.373a5.42 5.42 0 0 0-1.101.983 8.09 8.09 0 0 0-.924 1.317 7.8 7.8 0 0 0-.649 1.396c-.157.458-.236.871-.236 1.238 0 .42.151.63.452.63.302 0 .636-.145 1.003-.433a8.148 8.148 0 0 0 1.1-1.12c.38-.446.741-.898 1.082-1.357.34-.472.635-.871.884-1.2.04-.065.092-.097.158-.097.052.013.15.045.294.098a1.3 1.3 0 0 1 .433.197c.13.091.196.21.196.353 0 .131-.059.302-.176.511-.105.197-.236.42-.394.669a7.788 7.788 0 0 0-.393.727 1.689 1.689 0 0 0-.157.688c0 .17.046.334.138.491.091.145.242.217.452.217.314 0 .753-.23 1.317-.688.576-.472 1.16-1.265 1.75-2.379l.373.374a8.409 8.409 0 0 1-1.14 1.887c-.433.537-.892.956-1.377 1.258-.484.314-.976.471-1.474.471-.537 0-.937-.17-1.199-.51a1.997 1.997 0 0 1-.432-1.101v-.099c-.524.63-1.01 1.127-1.455 1.494-.432.367-.897.55-1.395.55zm9.068-.158c-.485 0-.82-.229-1.003-.688-.183-.458-.275-1.035-.275-1.73 0-.183.007-.49.02-.923l.04-1.396c.025-.38.071-.642.137-.786.065-.157.275-.236.629-.236.301 0 .485.059.55.177.079.105.118.308.118.61 0 .248-.013.556-.04.923-.012.354-.032.714-.058 1.081-.013.367-.02.682-.02.944 0 .393.033.661.098.806.066.13.164.196.295.196.223 0 .472-.124.747-.373.275-.262.55-.596.826-1.003.288-.42.563-.865.825-1.336.276-.472.511-.924.708-1.357.013-.904.111-1.5.295-1.788.183-.302.413-.453.688-.453.314 0 .537.105.668.315.144.21.223.393.236.55l-.138.374c-.091.249-.183.55-.275.904-.091.34-.137.662-.137.963 0 .288.059.524.177.708.13.183.34.275.629.275.327 0 .622-.111.884-.334.262-.236.491-.537.688-.904.21-.367.393-.76.55-1.18.17-.419.322-.819.453-1.199-.04-.065-.08-.13-.118-.196a1.023 1.023 0 0 1-.04-.315c0-.34.099-.662.295-.963.21-.315.44-.472.688-.472.118 0 .203.04.256.118.065.066.098.15.098.256 0 .144-.033.314-.098.51-.066.197-.099.335-.099.414 0 .13.105.268.315.412.223.145.472.315.747.511.275.197.517.446.727.747.223.289.334.649.334 1.081 0 .38-.078.767-.236 1.16-.157.38-.314.74-.471 1.081-.158.328-.236.616-.236.865 0 .17.046.288.137.354a.78.78 0 0 0 .354.079c.315 0 .636-.099.963-.295a4.96 4.96 0 0 0 .944-.747 7.35 7.35 0 0 0 .845-.963 5.93 5.93 0 0 0 .57-.924l.354.216a8.797 8.797 0 0 1-1.022 1.71 6.2 6.2 0 0 1-1.455 1.415c-.537.38-1.107.57-1.71.57-.485 0-.878-.13-1.18-.393a1.293 1.293 0 0 1-.451-1.022c0-.367.085-.76.255-1.18.184-.419.36-.831.53-1.238.171-.419.256-.78.256-1.08 0-.302-.098-.551-.294-.748a2.414 2.414 0 0 0-.688-.51 23.09 23.09 0 0 1-.511 1.297 7.903 7.903 0 0 1-.669 1.277c-.249.394-.55.721-.904.983-.354.25-.76.374-1.219.374-.406 0-.773-.105-1.1-.315a1.98 1.98 0 0 1-.688-.825 12.474 12.474 0 0 1-1.14 1.73 7.23 7.23 0 0 1-1.317 1.356c-.46.353-.905.53-1.337.53zm15.123-.137c-.59 0-.996-.197-1.219-.59a2.56 2.56 0 0 1-.314-1.258c0-.42.065-.845.196-1.278a5.51 5.51 0 0 1 .531-1.238 3.56 3.56 0 0 1 .767-.904c.288-.236.576-.354.865-.354.091 0 .196.02.314.059.131.026.223.072.275.138a6.323 6.323 0 0 0-.491.727c-.157.288-.308.596-.452.924a6.373 6.373 0 0 0-.315.963 3.898 3.898 0 0 0-.118.904c0 .262.046.478.138.649.105.17.282.255.53.255.25 0 .544-.137.885-.412a7.868 7.868 0 0 0 1.003-.983c-.42-.38-.721-.793-.905-1.239-.183-.458-.275-1.009-.275-1.65 0-.276.066-.59.197-.944.144-.354.367-.662.668-.924.315-.262.734-.393 1.258-.393.564 0 .957.157 1.18.471.235.315.353.688.353 1.12 0 .486-.13 1.03-.393 1.632-.249.603-.55 1.173-.904 1.71.157.08.34.118.55.118.197 0 .433-.045.708-.137a2.62 2.62 0 0 0 .806-.452c.262-.223.472-.518.629-.885l.354.256c-.289.668-.675 1.16-1.16 1.474-.472.301-.937.452-1.396.452-.17 0-.34-.013-.51-.04a4.043 4.043 0 0 1-.472-.137 7.68 7.68 0 0 1-1.534 1.376c-.576.393-1.16.59-1.75.59zm3.106-3.027c.314-.459.583-.95.806-1.475.222-.524.334-1.009.334-1.454 0-.302-.046-.518-.138-.649a.457.457 0 0 0-.413-.216c-.249 0-.504.177-.766.53-.262.355-.393.8-.393 1.337 0 .275.045.61.137 1.003.105.393.25.7.433.924zm1.81 7.901a.692.692 0 0 1-.335-.098.968.968 0 0 1-.295-.196c-.091-.079-.144-.144-.157-.197.328-.956.61-1.789.845-2.496a35.055 35.055 0 0 0 1.002-3.912 65.86 65.86 0 0 0 .355-2.32c.13-.877.275-1.932.432-3.164.026-.157.059-.269.098-.334.04-.079.164-.118.374-.118.406 0 .7.111.884.334.184.21.276.446.276.708 0 .13-.027.36-.08.688-.038.327-.104.714-.196 1.16.25-.38.531-.741.846-1.082.327-.34.688-.616 1.08-.825a2.548 2.548 0 0 1 1.278-.334c.642 0 1.173.216 1.593.648.419.433.629 1.003.629 1.71 0 .511-.118 1.055-.354 1.632a6.039 6.039 0 0 1-.963 1.612c-.42.498-.924.904-1.514 1.218a3.94 3.94 0 0 1-1.946.492c-.42 0-.754-.053-1.002-.157-.25-.105-.374-.223-.374-.354 0-.092.046-.145.138-.158.105-.026.216-.039.334-.039a3.872 3.872 0 0 0 1.67-.393 4.44 4.44 0 0 0 1.318-.963c.367-.406.648-.839.845-1.297.196-.46.295-.911.295-1.357 0-.393-.092-.734-.276-1.022-.17-.288-.445-.432-.825-.432-.328 0-.662.105-1.002.314-.328.21-.636.478-.924.806a7.008 7.008 0 0 0-.767 1.003 6.8 6.8 0 0 0-.511.904 68.275 68.275 0 0 0-.688 2.575c-.197.865-.387 1.664-.57 2.398a19.912 19.912 0 0 1-.55 1.867c-.197.511-.407.858-.63 1.042a.5.5 0 0 1-.334.138zm10.517-4.874c-.59 0-.996-.197-1.218-.59a2.56 2.56 0 0 1-.315-1.258c0-.42.066-.845.197-1.278.13-.445.308-.858.53-1.238a3.58 3.58 0 0 1 .767-.904c.288-.236.576-.354.865-.354.092 0 .196.02.314.059.131.026.223.072.275.138a6.323 6.323 0 0 0-.49.727c-.158.288-.309.596-.453.924a6.362 6.362 0 0 0-.314.963 3.898 3.898 0 0 0-.118.904c0 .262.045.478.137.649.105.17.282.255.53.255.25 0 .545-.137.885-.412a7.869 7.869 0 0 0 1.003-.983c-.42-.38-.72-.793-.904-1.239-.184-.458-.275-1.009-.275-1.65 0-.276.065-.59.196-.944.144-.354.367-.662.668-.924.315-.262.734-.393 1.258-.393.564 0 .957.157 1.18.471.236.315.354.688.354 1.12 0 .486-.131 1.03-.393 1.632-.25.603-.55 1.173-.905 1.71.157.08.341.118.55.118.197 0 .433-.045.708-.137a2.62 2.62 0 0 0 .806-.452c.262-.223.472-.518.63-.885l.353.256c-.288.668-.675 1.16-1.16 1.474-.471.301-.937.452-1.395.452-.17 0-.341-.013-.511-.04a4.04 4.04 0 0 1-.472-.137 7.682 7.682 0 0 1-1.533 1.376c-.577.393-1.16.59-1.75.59zm3.106-3.027c.314-.459.583-.95.806-1.475.223-.524.334-1.009.334-1.454 0-.302-.046-.518-.138-.649a.457.457 0 0 0-.412-.216c-.25 0-.505.177-.767.53-.262.355-.393.8-.393 1.337 0 .275.046.61.137 1.003.105.393.25.7.433.924zm4.601 2.987c-.616 0-1.048-.203-1.297-.609-.236-.42-.354-.91-.354-1.474 0-.642.118-1.396.354-2.26.236-.866.543-1.77.924-2.713.393-.957.819-1.887 1.277-2.791a29.97 29.97 0 0 1 1.415-2.477c.472-.734.905-1.317 1.298-1.75.406-.445.734-.668.983-.668.17 0 .314.092.432.275.118.17.21.38.275.63.079.235.118.458.118.668 0 .353-.092.819-.275 1.395a13.2 13.2 0 0 1-.747 1.868 19.764 19.764 0 0 1-1.14 2.103 16.812 16.812 0 0 1-1.455 2.024c-.524.643-1.087 1.2-1.69 1.671l-.157.983a7 7 0 0 0-.06.865c0 .472.08.819.237 1.042.157.21.36.314.609.314.328 0 .662-.15 1.002-.452a6.073 6.073 0 0 0 1.003-1.18c.328-.484.61-.982.845-1.493l.472.255c-.564 1.167-1.193 2.09-1.887 2.772-.695.668-1.422 1.002-2.182 1.002zm.472-5.326c.445-.485.865-1.01 1.258-1.573.406-.577.773-1.16 1.1-1.75.341-.59.636-1.16.885-1.71s.439-1.041.57-1.474c.144-.445.223-.8.236-1.061v-.06c-.105 0-.275.152-.511.453-.223.288-.492.688-.806 1.199a28.097 28.097 0 0 0-.983 1.75 39.41 39.41 0 0 0-.963 2.083c-.301.72-.563 1.435-.786 2.143z" fill="#3C3C3C"/><path d="m94.114 44.903.092 1.745 1.688.452-1.632.627.092 1.745-1.1-1.358-1.631.626.951-1.466-1.1-1.358 1.688.453.952-1.466zm6.121-1.449.092 1.745 1.688.453-1.632.626.092 1.745-1.1-1.358-1.631.626.951-1.465-1.1-1.358 1.689.452.951-1.466zm-4.345-4.346.09 1.745 1.689.453-1.632.626.092 1.746-1.1-1.359-1.632.627.952-1.466-1.1-1.358 1.688.452.952-1.466zm4.86-1.612.068 1.288 1.246.334-1.205.463.068 1.288-.812-1.002-1.204.462.702-1.082-.812-1.003 1.247.334.702-1.082z" fill="#E1CFDB"/><circle r=".954" transform="scale(1 -1) rotate(30 46.896 87.294)" fill="#FFE7E3" stroke="#3C3C3C" stroke-width=".546"/><circle r="1.567" transform="scale(1 -1) rotate(30 55.05 98.067)" fill="#FFE7E3" stroke="#3C3C3C" stroke-width=".546"/><circle r="1.567" transform="scale(1 -1) rotate(30 63.31 85.558)" fill="#FFE7E3" stroke="#3C3C3C" stroke-width=".546"/><circle r=".954" transform="scale(1 -1) rotate(30 70.853 98.62)" fill="#FFE7E3" stroke="#3C3C3C" stroke-width=".546"/></svg>