<svg width="183" height="72" viewBox="0 0 183 72" fill="none" xmlns="http://www.w3.org/2000/svg">
<circle cx="40.3129" cy="35.9448" r="34.9448" fill="#E1CFDB"/>
<circle cx="43.5889" cy="35.9448" r="34.6718" stroke="#FFE7E3" stroke-width="0.546012"/>
<path d="M60.6545 60.6545C55.6455 65.6635 49.2325 69.0319 42.2656 70.3132C35.2988 71.5945 28.107 70.7282 21.6436 67.8292C15.1802 64.9302 9.75056 60.1353 6.07429 54.0802C2.39802 48.0251 0.648794 40.9957 1.05848 33.9238C1.46816 26.8519 4.01741 20.0715 8.36829 14.4815C12.7192 8.89136 18.6662 4.75556 25.4211 2.62229C32.176 0.489017 39.4197 0.459015 46.192 2.53626C52.9644 4.61351 58.9455 8.69991 63.3425 14.2538" stroke="#3C3C3C" stroke-width="0.546012"/>
<path d="M22.3244 36.2801C21.2586 36.2801 20.4549 36.1054 19.9132 35.756C19.3716 35.4065 19.092 34.8299 19.0746 34.0262C19.0746 33.8515 19.1707 33.7641 19.3628 33.7641C19.5201 33.7641 19.756 33.8078 20.0705 33.8952C20.4025 33.9651 21.0227 34 21.9313 34C23.4689 34 24.8841 33.8427 26.1771 33.5282C27.47 33.1963 28.5883 32.7595 29.5318 32.2178C30.4928 31.6587 31.2353 31.0384 31.7595 30.357C32.2837 29.6581 32.5458 28.933 32.5458 28.1817C32.5458 27.5003 32.3361 26.9586 31.9168 26.5568C31.5149 26.1374 30.9733 25.8229 30.2918 25.6133C29.6279 25.3861 28.894 25.2376 28.0903 25.1677C27.304 25.0978 26.5265 25.0629 25.7577 25.0629C25.4258 25.0629 25.0938 25.0716 24.7618 25.0891C24.4298 25.0891 24.1153 25.0891 23.8183 25.0891C23.4339 26.417 23.0583 27.7886 22.6913 29.2038C22.3244 30.6191 21.94 32.0081 21.5382 33.371C21.014 33.371 20.5597 33.2312 20.1753 32.9517C19.7909 32.6721 19.5987 32.3314 19.5987 31.9295C19.5987 31.7723 19.6249 31.5713 19.6773 31.3267C19.7472 31.0646 19.8433 30.7589 19.9656 30.4094C20.0705 30.0774 20.2452 29.5271 20.4898 28.7583C20.7519 27.9895 21.0577 27.0809 21.4071 26.0326C21.7566 24.9842 22.141 23.8835 22.5603 22.7303C22.9971 21.5597 23.4426 20.4152 23.8969 19.297C24.3687 18.1787 24.8317 17.1741 25.286 16.283C24.5871 16.4402 24.0105 16.6237 23.5562 16.8334C23.1019 17.043 22.7438 17.2265 22.4817 17.3838C22.2196 17.541 22.0186 17.6196 21.8789 17.6196C21.774 17.6196 21.6343 17.5585 21.4595 17.4362C21.3023 17.3139 21.1538 17.1741 21.014 17.0168C20.8917 16.8596 20.8305 16.7198 20.8305 16.5975C21.774 16.2131 22.7525 15.8724 23.7659 15.5754C24.7793 15.2783 26.0024 15.1298 27.4351 15.1298C28.0641 15.1298 28.7543 15.1822 29.5056 15.2871C30.2569 15.3744 30.9733 15.5666 31.6547 15.8637C32.3361 16.1432 32.8952 16.5713 33.332 17.1479C33.7863 17.707 34.0134 18.4583 34.0134 19.4018C34.0134 20.1531 33.8475 20.8083 33.5155 21.3675C33.201 21.9091 32.7729 22.3809 32.2313 22.7827C31.6896 23.1671 31.0956 23.4904 30.4491 23.7524C29.8026 23.9971 29.1649 24.198 28.5359 24.3552C29.6191 24.495 30.519 24.7222 31.2353 25.0367C31.9692 25.3337 32.5458 25.6831 32.9651 26.085C33.4019 26.4869 33.7077 26.9062 33.8824 27.343C34.0746 27.7624 34.1707 28.173 34.1707 28.5748C34.1707 29.6057 33.8999 30.5317 33.3582 31.3529C32.8166 32.1741 32.1002 32.8905 31.2091 33.502C30.3355 34.1136 29.3658 34.6203 28.3 35.0221C27.2516 35.4415 26.2033 35.756 25.1549 35.9656C24.1066 36.1753 23.1631 36.2801 22.3244 36.2801ZM24.0804 24.0932C25.0588 24.0582 26.0198 23.9446 26.9633 23.7524C27.9068 23.5602 28.7543 23.2807 29.5056 22.9138C30.2744 22.5294 30.8859 22.0401 31.3402 21.4461C31.7945 20.8346 32.0216 20.0832 32.0216 19.1921C32.0216 18.3535 31.7945 17.707 31.3402 17.2527C30.8859 16.7984 30.2918 16.4839 29.558 16.3092C28.8241 16.1345 28.0379 16.0471 27.1992 16.0471C27.1817 16.0471 27.1643 16.0471 27.1468 16.0471C27.1293 16.0471 27.1119 16.0471 27.0944 16.0471C26.5003 17.2178 25.9587 18.4933 25.4694 19.8736C24.9802 21.2364 24.5172 22.6429 24.0804 24.0932ZM38.086 35.1532C36.9678 35.1532 36.1029 34.8474 35.4914 34.2359C34.8973 33.6418 34.6003 32.8905 34.6003 31.9819C34.6003 31.2132 34.7925 30.4007 35.1769 29.5445C35.5787 28.6709 36.1116 27.8585 36.7756 27.1071C37.4395 26.3384 38.1734 25.7181 38.9771 25.2463C39.7808 24.7746 40.5846 24.5387 41.3883 24.5387C41.8426 24.5387 42.2707 24.661 42.6725 24.9056C43.0919 25.1328 43.3015 25.5958 43.3015 26.2947C43.3015 26.9586 43.1093 27.5789 42.7249 28.1555C42.3405 28.7321 41.8251 29.2475 41.1786 29.7018C40.5321 30.1561 39.8158 30.5317 39.0295 30.8288C38.2607 31.1083 37.4832 31.2918 36.697 31.3791C36.6795 31.449 36.662 31.5277 36.6445 31.615C36.6445 31.6849 36.6445 31.8072 36.6445 31.9819C36.6445 32.0693 36.6533 32.2266 36.6708 32.4537C36.7057 32.6634 36.7843 32.8905 36.9066 33.1351C37.0289 33.3797 37.2299 33.5894 37.5094 33.7641C37.789 33.9388 38.1734 34.0262 38.6626 34.0262C39.3964 34.0262 40.1303 33.8253 40.8641 33.4234C41.6154 33.0041 42.3143 32.4537 42.9608 31.7723C43.6248 31.0908 44.1751 30.3308 44.612 29.4921L45.1361 29.9115C44.6644 30.9598 44.0528 31.8771 43.3015 32.6634C42.5677 33.4496 41.7465 34.0612 40.8379 34.498C39.9468 34.9348 39.0295 35.1532 38.086 35.1532ZM36.9853 30.4094C37.4395 30.357 37.9462 30.1998 38.5054 29.9377C39.0645 29.6756 39.5974 29.3436 40.1041 28.9417C40.6282 28.5399 41.0563 28.1031 41.3883 27.6313C41.7203 27.1421 41.8863 26.6529 41.8863 26.1636C41.8863 25.9714 41.8513 25.8404 41.7814 25.7705C41.7115 25.7006 41.598 25.6657 41.4407 25.6657C41.0388 25.6657 40.6195 25.8142 40.1827 26.1112C39.7459 26.3908 39.3178 26.7664 38.8985 27.2382C38.4791 27.6925 38.1035 28.1992 37.7715 28.7583C37.4395 29.3174 37.1774 29.8678 36.9853 30.4094ZM45.4459 35.2318C44.8693 35.2318 44.3714 35.0396 43.952 34.6552C43.5152 34.2708 43.2968 33.6942 43.2968 32.9254C43.2968 32.3139 43.4366 31.65 43.7162 30.9336C43.9957 30.2172 44.3801 29.5096 44.8693 28.8107C45.3586 28.1118 45.9177 27.4828 46.5467 26.9237C47.1757 26.3471 47.8484 25.8841 48.5647 25.5346C49.2811 25.1852 49.9975 25.0105 50.7138 25.0105C51.4652 25.0105 52.1029 25.2027 52.6271 25.587C53.1512 25.9714 53.4133 26.4781 53.4133 27.1071C53.4133 27.5789 53.2473 27.9196 52.9154 28.1293C52.5834 28.3389 52.1903 28.4001 51.736 28.3127C51.7709 28.1555 51.7971 27.9982 51.8146 27.841C51.8495 27.6837 51.867 27.5177 51.867 27.343C51.867 26.9936 51.7971 26.6791 51.6574 26.3995C51.5176 26.12 51.2205 25.9802 50.7663 25.9802C50.277 25.9802 49.7791 26.1462 49.2724 26.4781C48.7657 26.8101 48.2764 27.2469 47.8047 27.7886C47.3504 28.3127 46.9398 28.8981 46.5729 29.5445C46.206 30.1735 45.9177 30.7938 45.708 31.4053C45.4983 32.0169 45.3935 32.5673 45.3935 33.0565C45.3935 33.6156 45.5944 33.8952 45.9963 33.8952C46.3982 33.8952 46.8437 33.703 47.3329 33.3186C47.8222 32.9167 48.3114 32.4187 48.8006 31.8247C49.3073 31.2306 49.7878 30.6278 50.2421 30.0163C50.6964 29.3873 51.0895 28.8544 51.4215 28.4176C51.4739 28.3302 51.5438 28.2865 51.6311 28.2865C51.701 28.304 51.8321 28.3477 52.0243 28.4176C52.2339 28.47 52.4261 28.5574 52.6009 28.6797C52.7756 28.802 52.8629 28.9592 52.8629 29.1514C52.8629 29.3261 52.7843 29.5533 52.6271 29.8328C52.4873 30.0949 52.3126 30.392 52.1029 30.7239C51.9107 31.0384 51.736 31.3617 51.5787 31.6936C51.4389 32.0081 51.3691 32.3139 51.3691 32.6109C51.3691 32.8381 51.4302 33.0565 51.5525 33.2662C51.6748 33.4584 51.8758 33.5545 52.1553 33.5545C52.5747 33.5545 53.16 33.2487 53.9113 32.6372C54.6801 32.0081 55.4576 30.9511 56.2439 29.4659L56.7418 29.9639C56.3225 30.9074 55.8158 31.7461 55.2217 32.4799C54.6451 33.1963 54.0336 33.7554 53.3871 34.1573C52.7406 34.5766 52.0854 34.7863 51.4215 34.7863C50.7051 34.7863 50.1722 34.5591 49.8228 34.1048C49.4733 33.6506 49.2811 33.1613 49.2462 32.6372C49.2462 32.6022 49.2462 32.576 49.2462 32.5585C49.2462 32.5411 49.2462 32.5236 49.2462 32.5061C48.5473 33.3448 47.9008 34.0087 47.3067 34.498C46.7301 34.9872 46.1099 35.2318 45.4459 35.2318ZM57.6155 34.7863C57.0214 34.7863 56.5322 34.5154 56.1478 33.9738C55.7809 33.4147 55.5974 32.7769 55.5974 32.0606C55.5974 31.5713 55.6761 30.9947 55.8333 30.3308C55.9906 29.6668 56.1915 29.0204 56.4361 28.3914C56.6982 27.7624 56.9603 27.2382 57.2224 26.8188C57.5019 26.3995 57.7553 26.1898 57.9824 26.1898C58.1047 26.1898 58.2882 26.2597 58.5328 26.3995C58.7949 26.5218 59.022 26.6791 59.2142 26.8713C59.022 27.1508 58.7862 27.5789 58.5066 28.1555C58.2445 28.7321 58.0086 29.3523 57.799 30.0163C57.5893 30.6802 57.4845 31.283 57.4845 31.8247C57.4845 31.8946 57.4932 32.0606 57.5107 32.3227C57.5456 32.5847 57.6155 32.8293 57.7203 33.0565C57.8252 33.2836 58.0086 33.3972 58.2707 33.3972C58.5678 33.3972 58.8823 33.24 59.2142 32.9254C59.5637 32.5935 59.9131 32.1741 60.2626 31.6674C60.6295 31.1433 60.9789 30.5841 61.3109 29.9901C61.6604 29.396 61.9661 28.8194 62.2282 28.2603C62.5078 27.7012 62.7349 27.2294 62.9096 26.8451C63.0669 26.8625 63.2678 26.9062 63.5124 26.9761C63.7745 27.046 64.0017 27.1421 64.1939 27.2644C64.3861 27.3692 64.4822 27.5265 64.4822 27.7361C64.4822 27.7886 64.3948 28.007 64.2201 28.3914C64.0628 28.7583 63.8706 29.2038 63.6435 29.728C63.4338 30.2522 63.2416 30.7938 63.0669 31.3529C62.9096 31.8946 62.831 32.3751 62.831 32.7944C62.831 33.039 62.8747 33.2574 62.9621 33.4496C63.0669 33.6243 63.2591 33.7117 63.5386 33.7117C63.9056 33.7117 64.3424 33.5457 64.8491 33.2137C65.3558 32.8818 65.8799 32.4013 66.4216 31.7723C66.9632 31.1433 67.4437 30.392 67.8631 29.5183L68.2562 29.8328C67.8718 30.7763 67.3738 31.6238 66.7623 32.3751C66.1508 33.1264 65.4956 33.7117 64.7967 34.131C64.0978 34.5679 63.4163 34.7863 62.7524 34.7863C62.2457 34.7863 61.8613 34.664 61.5992 34.4193C61.3546 34.1922 61.1886 33.8952 61.1012 33.5282C61.0139 33.1439 60.9615 32.7595 60.944 32.3751C60.944 32.2877 60.944 32.2003 60.944 32.113C60.944 32.0081 60.944 31.9208 60.944 31.8509C60.647 32.3227 60.3237 32.7857 59.9743 33.24C59.6248 33.6768 59.2492 34.0437 58.8473 34.3407C58.4629 34.6377 58.0523 34.7863 57.6155 34.7863ZM69.5773 35.2056C68.8085 35.2056 68.1882 34.9785 67.7165 34.5242C67.2447 34.0699 67.0088 33.3797 67.0088 32.4537C67.0088 31.7373 67.1399 30.8462 67.402 29.7804C67.6815 28.7146 68.031 27.6138 68.4503 26.4781C68.328 26.4432 68.1795 26.417 68.0048 26.3995C67.8475 26.3646 67.6903 26.3121 67.533 26.2423V25.4298C67.8126 25.4647 68.0397 25.4909 68.2144 25.5084C68.4066 25.5259 68.5988 25.5434 68.791 25.5608C69.1579 24.6348 69.5511 23.7437 69.9704 22.8876C70.4072 22.0139 70.8353 21.2364 71.2546 20.555C71.6914 19.8736 72.102 19.3407 72.4864 18.9563C72.8708 18.5544 73.2115 18.3535 73.5086 18.3535C73.6833 18.3535 73.8493 18.4234 74.0065 18.5631C74.1638 18.6854 74.2424 18.8689 74.2424 19.1135C74.2424 19.463 74.0589 19.9609 73.692 20.6074C73.3426 21.2539 72.9058 22.0139 72.3816 22.8876C71.8574 23.7437 71.3507 24.661 70.8615 25.6395C71.0013 25.6395 71.141 25.6395 71.2808 25.6395C71.4206 25.6395 71.5516 25.6395 71.674 25.6395C72.4427 25.6395 73.1329 25.6307 73.7444 25.6133C74.3734 25.5783 75.0112 25.5259 75.6577 25.456V26.3209C74.6967 26.4082 73.8143 26.4781 73.0106 26.5306C72.2069 26.583 71.4381 26.6179 70.7042 26.6354C70.6518 26.6354 70.5994 26.6354 70.547 26.6354C70.4946 26.6354 70.4422 26.6354 70.3897 26.6354C70.0228 27.4915 69.6996 28.3739 69.42 29.2825C69.1579 30.1735 69.0269 31.0472 69.0269 31.9033C69.0269 32.6197 69.1405 33.1264 69.3676 33.4234C69.5947 33.7204 69.9529 33.869 70.4422 33.869C71.3158 33.869 72.2069 33.4758 73.1154 32.6896C74.0415 31.8858 74.8452 30.8026 75.5266 29.4397L75.8935 29.7018C75.4393 30.7327 74.8714 31.6674 74.19 32.5061C73.526 33.3448 72.8009 34 72.0147 34.4718C71.2284 34.961 70.4159 35.2056 69.5773 35.2056ZM76.0006 41.3384C75.5638 41.3384 75.1532 41.1986 74.7688 40.9191C74.4019 40.657 74.2184 40.2289 74.2184 39.6348C74.2184 39.0757 74.3844 38.569 74.7164 38.1147C75.0484 37.6779 75.4765 37.2673 76.0006 36.8829C76.5248 36.516 77.0839 36.1753 77.678 35.8608C78.2895 35.5638 78.8748 35.2842 79.4339 35.0221C79.6261 34.5154 79.8358 33.8777 80.063 33.1089C80.3076 32.3227 80.5172 31.5975 80.692 30.9336C80.1503 31.6849 79.5737 32.3489 78.9622 32.9254C78.3507 33.502 77.6692 33.7903 76.9179 33.7903C76.6034 33.7903 76.2714 33.7292 75.922 33.6069C75.5725 33.4671 75.2755 33.24 75.0309 32.9254C74.8038 32.5935 74.6902 32.1567 74.6902 31.615C74.6902 31.1607 74.7688 30.6104 74.9261 29.9639C75.1008 29.3174 75.3105 28.6884 75.5551 28.0769C75.8172 27.4479 76.088 26.9324 76.3675 26.5306C76.6471 26.1112 76.8917 25.9015 77.1014 25.9015C77.2062 25.9015 77.3547 25.9452 77.5469 26.0326C77.7566 26.1025 77.9575 26.2073 78.1497 26.3471C78.3419 26.4694 78.4642 26.6092 78.5166 26.7664C78.3594 26.9761 78.1847 27.2819 77.9925 27.6837C77.8003 28.0681 77.6168 28.5049 77.4421 28.9942C77.2674 29.4659 77.1189 29.9289 76.9965 30.3832C76.8917 30.8375 76.8393 31.2306 76.8393 31.5626C76.8393 31.8247 76.8917 32.0518 76.9965 32.244C77.1014 32.4362 77.3023 32.5323 77.5993 32.5323C77.9837 32.5323 78.3769 32.3751 78.7787 32.0606C79.1981 31.7461 79.5999 31.3442 79.9843 30.855C80.3862 30.3657 80.7444 29.8678 81.0589 29.3611C81.0938 29.2388 81.1288 29.0466 81.1637 28.7845C81.1987 28.5224 81.2598 28.2516 81.3472 27.972C81.4345 27.675 81.5831 27.4042 81.7927 27.1596C82.0199 26.9149 82.3344 26.7926 82.7362 26.7926C82.876 26.7926 83.0071 26.8014 83.1294 26.8188C83.2517 26.8363 83.4002 26.8625 83.5749 26.8975C83.5749 27.1596 83.4788 27.675 83.2866 28.4438C83.1119 29.1951 82.876 30.0687 82.579 31.0646C82.2819 32.0606 81.95 33.0565 81.5831 34.0524C82.3169 33.7554 83.0769 33.2662 83.8632 32.5847C84.6669 31.8858 85.3134 30.8987 85.8026 29.6232L86.2482 29.9901C85.9861 30.8637 85.5842 31.6238 85.0426 32.2702C84.5184 32.9167 83.9244 33.4671 83.2604 33.9214C82.5965 34.3757 81.9238 34.7513 81.2423 35.0483C80.7706 36.184 80.2552 37.2324 79.696 38.1934C79.1544 39.1544 78.5778 39.9144 77.9663 40.4735C77.3547 41.0501 76.6995 41.3384 76.0006 41.3384ZM75.7385 40.3687C76.0705 40.3687 76.5335 40.0192 77.1276 39.3203C77.7217 38.6214 78.3245 37.5731 78.936 36.1753C78.3769 36.4549 77.809 36.7781 77.2324 37.145C76.6733 37.5294 76.2016 37.9313 75.8172 38.3506C75.4328 38.77 75.2406 39.198 75.2406 39.6348C75.2406 39.8096 75.2755 39.9756 75.3454 40.1328C75.4328 40.2901 75.5638 40.3687 75.7385 40.3687ZM91.9133 36.2801C92.0007 36.0181 92.254 35.4153 92.6734 34.4718C93.1102 33.5457 93.6868 32.3052 94.4031 30.7501C95.137 29.1776 96.0019 27.3168 96.9978 25.1677C97.9937 23.0186 99.1032 20.5987 100.326 17.9079C100.396 17.7681 100.449 17.6196 100.484 17.4624C100.536 17.3051 100.562 17.1654 100.562 17.043C100.562 16.8683 100.51 16.7285 100.405 16.6237C100.3 16.5189 100.099 16.4665 99.8021 16.4665C99.0683 16.4665 98.4655 16.6936 97.9937 17.1479C97.5394 17.5847 97.1987 18.1263 96.9716 18.7728C96.7619 19.4193 96.6571 20.057 96.6571 20.686C96.6571 20.8433 96.6658 21.0267 96.6833 21.2364C96.7008 21.4461 96.727 21.682 96.7619 21.9441C96.3426 21.9441 95.9931 21.8217 95.7136 21.5771C95.4515 21.315 95.2506 21.0005 95.1108 20.6336C94.971 20.2492 94.9011 19.891 94.9011 19.5591C94.9011 19 95.0584 18.4583 95.3729 17.9341C95.7048 17.41 96.1329 16.9382 96.6571 16.5189C97.1813 16.0821 97.7578 15.7414 98.3869 15.4967C99.0333 15.2521 99.6711 15.1298 100.3 15.1298C100.947 15.1298 101.497 15.3133 101.951 15.6802C102.406 16.0296 102.755 16.6761 103 17.6196C103.244 18.5457 103.366 19.8823 103.366 21.6295C103.366 22.7653 103.323 23.9184 103.235 25.0891C103.166 26.2423 103.087 27.3255 103 28.3389C102.912 29.3523 102.869 30.2172 102.869 30.9336C103.218 29.9027 103.646 28.8107 104.153 27.6575C104.677 26.4869 105.236 25.3337 105.83 24.198C106.424 23.0448 107.009 21.9615 107.586 20.9481C108.163 19.9347 108.678 19.0524 109.132 18.3011C109.604 17.5323 109.962 16.9644 110.207 16.5975C110.452 16.2131 110.67 15.9248 110.862 15.7326C111.054 15.5404 111.316 15.4443 111.648 15.4443C111.893 15.4443 112.277 15.5404 112.802 15.7326C112.644 16.0646 112.461 16.5975 112.251 17.3313C112.042 18.0477 111.814 18.8864 111.57 19.8474C111.308 20.8957 111.046 22.0489 110.784 23.3069C110.521 24.5474 110.286 25.8054 110.076 27.0809C109.866 28.3564 109.691 29.5707 109.552 30.7239C109.429 31.8596 109.368 32.8643 109.368 33.7379C109.368 34.1922 109.386 34.5504 109.421 34.8125C109.473 35.0746 109.534 35.3017 109.604 35.4939C109.691 35.7036 109.788 35.9656 109.892 36.2801C109.141 36.2801 108.565 36.1666 108.163 35.9394C107.778 35.7123 107.516 35.3454 107.376 34.8387C107.254 34.3494 107.193 33.6942 107.193 32.873C107.193 30.9336 107.411 28.8981 107.848 26.7664C108.302 24.6173 108.827 22.4071 109.421 20.1357C108.931 20.8346 108.425 21.6645 107.901 22.6255C107.376 23.5865 106.861 24.5999 106.354 25.6657C105.848 26.7315 105.367 27.7886 104.913 28.8369C104.459 29.8678 104.057 30.8288 103.707 31.7199C103.358 32.5935 103.087 33.3273 102.895 33.9214C102.737 33.9738 102.624 34.0087 102.554 34.0262C102.502 34.0437 102.432 34.0524 102.344 34.0524C101.733 34.0524 101.34 33.6855 101.165 32.9517C101.008 32.2003 100.929 31.1782 100.929 29.8853C100.929 29.2038 100.938 28.4787 100.955 27.7099C100.973 26.9237 100.999 26.1287 101.034 25.325C101.069 24.5038 101.095 23.6913 101.113 22.8876C101.13 22.0838 101.139 21.315 101.139 20.5812C101.139 20.3191 101.13 20.057 101.113 19.7949C101.113 19.5329 101.113 19.2795 101.113 19.0349C99.7846 22.1275 98.6577 24.7746 97.7316 26.9761C96.8231 29.1601 96.0456 30.9423 95.3991 32.3227C94.7526 33.6855 94.1585 34.6814 93.6169 35.3104C93.0752 35.9569 92.5074 36.2801 91.9133 36.2801ZM114.039 35.2318C113.462 35.2318 112.964 35.0396 112.545 34.6552C112.108 34.2708 111.89 33.6942 111.89 32.9254C111.89 32.3139 112.029 31.65 112.309 30.9336C112.588 30.2172 112.973 29.5096 113.462 28.8107C113.951 28.1118 114.51 27.4828 115.139 26.9237C115.768 26.3471 116.441 25.8841 117.158 25.5346C117.874 25.1852 118.59 25.0105 119.307 25.0105C120.058 25.0105 120.696 25.2027 121.22 25.587C121.744 25.9714 122.006 26.4781 122.006 27.1071C122.006 27.5789 121.84 27.9196 121.508 28.1293C121.176 28.3389 120.783 28.4001 120.329 28.3127C120.364 28.1555 120.39 27.9982 120.407 27.841C120.442 27.6837 120.46 27.5177 120.46 27.343C120.46 26.9936 120.39 26.6791 120.25 26.3995C120.11 26.12 119.813 25.9802 119.359 25.9802C118.87 25.9802 118.372 26.1462 117.865 26.4781C117.358 26.8101 116.869 27.2469 116.397 27.7886C115.943 28.3127 115.533 28.8981 115.166 29.5445C114.799 30.1735 114.51 30.7938 114.301 31.4053C114.091 32.0169 113.986 32.5673 113.986 33.0565C113.986 33.6156 114.187 33.8952 114.589 33.8952C114.991 33.8952 115.436 33.703 115.926 33.3186C116.415 32.9167 116.904 32.4187 117.393 31.8247C117.9 31.2306 118.381 30.6278 118.835 30.0163C119.289 29.3873 119.682 28.8544 120.014 28.4176C120.067 28.3302 120.137 28.2865 120.224 28.2865C120.294 28.304 120.425 28.3477 120.617 28.4176C120.827 28.47 121.019 28.5574 121.194 28.6797C121.368 28.802 121.456 28.9592 121.456 29.1514C121.456 29.3261 121.377 29.5533 121.22 29.8328C121.08 30.0949 120.905 30.392 120.696 30.7239C120.503 31.0384 120.329 31.3617 120.172 31.6936C120.032 32.0081 119.962 32.3139 119.962 32.6109C119.962 32.8381 120.023 33.0565 120.145 33.2662C120.268 33.4584 120.469 33.5545 120.748 33.5545C121.167 33.5545 121.753 33.2487 122.504 32.6372C123.273 32.0081 124.05 30.9511 124.837 29.4659L125.335 29.9639C124.915 30.9074 124.409 31.7461 123.815 32.4799C123.238 33.1963 122.626 33.7554 121.98 34.1573C121.333 34.5766 120.678 34.7863 120.014 34.7863C119.298 34.7863 118.765 34.5591 118.416 34.1048C118.066 33.6506 117.874 33.1613 117.839 32.6372C117.839 32.6022 117.839 32.576 117.839 32.5585C117.839 32.5411 117.839 32.5236 117.839 32.5061C117.14 33.3448 116.494 34.0087 115.9 34.498C115.323 34.9872 114.703 35.2318 114.039 35.2318ZM133.049 34.5242C132.367 34.5242 131.843 34.3494 131.476 34C131.127 33.668 130.952 33.24 130.952 32.7158C130.952 32.3663 131.013 31.9994 131.136 31.615C131.258 31.2132 131.38 30.8113 131.502 30.4094C131.625 30.0076 131.686 29.6232 131.686 29.2562C131.686 28.8719 131.59 28.6098 131.398 28.47C131.223 28.3127 131.013 28.2341 130.769 28.2341C130.244 28.2341 129.703 28.4525 129.144 28.8893C128.602 29.3087 128.069 29.8416 127.545 30.488C127.038 31.1345 126.558 31.8072 126.103 32.5061C125.649 33.205 125.256 33.834 124.924 34.3931C124.592 34.3931 124.278 34.332 123.981 34.2097C123.684 34.1048 123.43 33.9126 123.221 33.6331C123.238 33.5457 123.343 33.2836 123.535 32.8468C123.71 32.3925 123.911 31.8596 124.138 31.2481C124.365 30.6191 124.566 29.9639 124.741 29.2825C124.915 28.601 125.003 27.9808 125.003 27.4216C125.125 27.2819 125.308 27.1421 125.553 27.0023C125.815 26.8625 126.086 26.7926 126.366 26.7926C126.977 26.7926 127.283 27.0547 127.283 27.5789C127.283 27.7886 127.239 28.1031 127.152 28.5224C127.082 28.9243 126.977 29.3873 126.837 29.9115C127.292 29.2999 127.79 28.7233 128.331 28.1817C128.873 27.64 129.432 27.2032 130.009 26.8713C130.603 26.5218 131.197 26.3471 131.791 26.3471C132.542 26.3471 133.092 26.6004 133.442 27.1071C133.809 27.6138 133.992 28.173 133.992 28.7845C133.992 29.3087 133.905 29.7979 133.73 30.2522C133.555 30.7065 133.381 31.1345 133.206 31.5364C133.049 31.9383 132.97 32.3314 132.97 32.7158C132.97 32.9953 133.031 33.1963 133.154 33.3186C133.293 33.4234 133.442 33.4758 133.599 33.4758C134.018 33.4758 134.455 33.2749 134.91 32.873C135.364 32.4712 135.792 31.9645 136.194 31.3529C136.613 30.7239 136.98 30.0949 137.295 29.4659L137.74 29.8328C137.373 30.689 136.954 31.4752 136.482 32.1916C136.028 32.8905 135.512 33.4584 134.936 33.8952C134.377 34.3145 133.748 34.5242 133.049 34.5242ZM138.701 34.7863C137.932 34.7863 137.355 34.5591 136.971 34.1048C136.587 33.6506 136.394 33.1002 136.394 32.4537C136.394 32.0518 136.464 31.5451 136.604 30.9336C136.744 30.3221 136.936 29.6843 137.181 29.0204C137.443 28.3389 137.74 27.7012 138.072 27.1071C138.404 26.5131 138.762 26.0326 139.146 25.6657C139.531 25.2813 139.915 25.0891 140.299 25.0891C140.509 25.0891 140.693 25.1502 140.85 25.2725C141.007 25.3948 141.086 25.587 141.086 25.8491C141.086 26.0763 140.946 26.417 140.666 26.8713C140.404 27.3255 140.09 27.8497 139.723 28.4438C139.373 29.0378 139.059 29.6581 138.779 30.3046C138.517 30.9336 138.386 31.5364 138.386 32.113C138.386 32.6721 138.482 33.0478 138.675 33.24C138.884 33.4147 139.181 33.502 139.566 33.502C140.16 33.502 140.806 33.205 141.505 32.6109C142.204 32.0169 142.929 30.9773 143.68 29.4921L144.074 29.9115C143.462 31.449 142.684 32.6459 141.741 33.502C140.797 34.3582 139.784 34.7863 138.701 34.7863ZM141.793 22.9662C141.461 22.9662 141.156 22.8876 140.876 22.7303C140.614 22.5556 140.483 22.2935 140.483 21.9441C140.483 21.5247 140.71 21.1665 141.164 20.8695C141.619 20.5725 142.09 20.424 142.58 20.424C142.894 20.424 143.156 20.4938 143.366 20.6336C143.593 20.7734 143.707 21.0267 143.707 21.3937C143.707 21.7606 143.506 22.1188 143.104 22.4682C142.702 22.8002 142.265 22.9662 141.793 22.9662ZM145.964 35.4677C145.056 35.4677 144.304 35.1794 143.71 34.6028C143.134 34.0437 142.845 33.1788 142.845 32.0081C142.845 31.152 143.011 30.3133 143.343 29.4921C143.675 28.6709 144.121 27.9371 144.68 27.2906C145.239 26.6267 145.859 26.1025 146.541 25.7181C147.24 25.3337 147.947 25.1415 148.664 25.1415C149.398 25.1415 149.922 25.325 150.236 25.6919C150.568 26.0588 150.734 26.4869 150.734 26.9761C150.734 27.4653 150.612 27.9458 150.367 28.4176C150.14 28.8719 149.826 29.099 149.424 29.099C149.092 29.099 148.821 28.933 148.611 28.601C148.786 28.4787 148.969 28.2516 149.162 27.9196C149.354 27.5876 149.45 27.1596 149.45 26.6354C149.45 26.4956 149.415 26.3908 149.345 26.3209C149.275 26.2335 149.144 26.1898 148.952 26.1898C148.515 26.1898 148.052 26.3908 147.563 26.7926C147.091 27.177 146.646 27.6837 146.226 28.3127C145.824 28.9243 145.492 29.5795 145.23 30.2784C144.986 30.9598 144.863 31.5888 144.863 32.1654C144.863 32.6546 144.986 33.1089 145.23 33.5282C145.492 33.9301 145.99 34.131 146.724 34.131C147.388 34.131 148.078 33.9388 148.795 33.5545C149.511 33.1701 150.184 32.6372 150.813 31.9557C151.442 31.2568 151.949 30.4269 152.333 29.4659L152.857 29.9377C152.438 31.0035 151.852 31.9557 151.101 32.7944C150.367 33.6156 149.546 34.2621 148.638 34.7338C147.746 35.2231 146.855 35.4677 145.964 35.4677ZM153.722 34.7863C153.128 34.7863 152.639 34.5154 152.255 33.9738C151.888 33.4147 151.704 32.7769 151.704 32.0606C151.704 31.5713 151.783 30.9947 151.94 30.3308C152.097 29.6668 152.298 29.0204 152.543 28.3914C152.805 27.7624 153.067 27.2382 153.329 26.8188C153.609 26.3995 153.862 26.1898 154.089 26.1898C154.211 26.1898 154.395 26.2597 154.639 26.3995C154.902 26.5218 155.129 26.6791 155.321 26.8713C155.129 27.1508 154.893 27.5789 154.613 28.1555C154.351 28.7321 154.115 29.3523 153.906 30.0163C153.696 30.6802 153.591 31.283 153.591 31.8247C153.591 31.8946 153.6 32.0606 153.617 32.3227C153.652 32.5847 153.722 32.8293 153.827 33.0565C153.932 33.2836 154.115 33.3972 154.377 33.3972C154.674 33.3972 154.989 33.24 155.321 32.9254C155.67 32.5935 156.02 32.1741 156.369 31.6674C156.736 31.1433 157.086 30.5841 157.418 29.9901C157.767 29.396 158.073 28.8194 158.335 28.2603C158.614 27.7012 158.842 27.2294 159.016 26.8451C159.174 26.8625 159.375 26.9062 159.619 26.9761C159.881 27.046 160.108 27.1421 160.301 27.2644C160.493 27.3692 160.589 27.5265 160.589 27.7361C160.589 27.7886 160.501 28.007 160.327 28.3914C160.169 28.7583 159.977 29.2038 159.75 29.728C159.54 30.2522 159.348 30.7938 159.174 31.3529C159.016 31.8946 158.938 32.3751 158.938 32.7944C158.938 33.039 158.981 33.2574 159.069 33.4496C159.174 33.6243 159.366 33.7117 159.645 33.7117C160.012 33.7117 160.449 33.5457 160.956 33.2137C161.462 32.8818 161.987 32.4013 162.528 31.7723C163.07 31.1433 163.55 30.392 163.97 29.5183L164.363 29.8328C163.978 30.7763 163.481 31.6238 162.869 32.3751C162.257 33.1264 161.602 33.7117 160.903 34.131C160.204 34.5679 159.523 34.7863 158.859 34.7863C158.352 34.7863 157.968 34.664 157.706 34.4193C157.461 34.1922 157.295 33.8952 157.208 33.5282C157.121 33.1439 157.068 32.7595 157.051 32.3751C157.051 32.2877 157.051 32.2003 157.051 32.113C157.051 32.0081 157.051 31.9208 157.051 31.8509C156.754 32.3227 156.43 32.7857 156.081 33.24C155.732 33.6768 155.356 34.0437 154.954 34.3407C154.57 34.6377 154.159 34.7863 153.722 34.7863ZM168.148 34.6814C167.501 34.6814 166.977 34.5067 166.575 34.1573C166.173 33.8253 165.972 33.371 165.972 32.7944C165.972 32.3052 166.095 31.781 166.339 31.2219C166.584 30.6628 166.828 30.1124 167.073 29.5707C167.335 29.0291 167.466 28.5486 167.466 28.1293C167.466 27.7274 167.335 27.3954 167.073 27.1333C166.811 26.8538 166.505 26.6267 166.156 26.4519C165.771 27.4129 165.334 28.3477 164.845 29.2562C164.374 30.1473 163.989 30.8462 163.692 31.3529L163.299 30.5929C163.544 30.1386 163.867 29.4921 164.269 28.6534C164.671 27.8148 165.055 26.88 165.422 25.8491C165.247 25.6744 165.16 25.4385 165.16 25.1415C165.16 24.6872 165.3 24.2591 165.579 23.8573C165.859 23.4554 166.129 23.2545 166.392 23.2545C166.601 23.2545 166.75 23.3768 166.837 23.6214C166.942 23.8485 166.994 24.0058 166.994 24.0932C166.994 24.1805 166.951 24.3378 166.863 24.5649C166.793 24.7921 166.741 24.958 166.706 25.0629C166.724 25.2551 166.872 25.4473 167.152 25.6395C167.449 25.8142 167.781 26.0239 168.148 26.2685C168.514 26.5131 168.838 26.8188 169.117 27.1858C169.397 27.5527 169.537 28.0157 169.537 28.5748C169.537 29.0815 169.423 29.597 169.196 30.1211C168.969 30.6453 168.742 31.1345 168.514 31.5888C168.287 32.0431 168.174 32.4362 168.174 32.7682C168.174 33.0128 168.235 33.1788 168.357 33.2662C168.497 33.336 168.654 33.371 168.829 33.371C169.248 33.371 169.685 33.2487 170.139 33.0041C170.594 32.742 171.039 32.41 171.476 32.0081C171.913 31.6063 172.297 31.1869 172.629 30.7501C172.961 30.2959 173.215 29.8853 173.389 29.5183L174.018 29.9901C173.686 30.7414 173.206 31.484 172.577 32.2178C171.948 32.9342 171.249 33.5282 170.48 34C169.711 34.4543 168.934 34.6814 168.148 34.6814ZM175.86 35.1532C174.742 35.1532 173.877 34.8474 173.266 34.2359C172.672 33.6418 172.375 32.8905 172.375 31.9819C172.375 31.2132 172.567 30.4007 172.951 29.5445C173.353 28.6709 173.886 27.8585 174.55 27.1071C175.214 26.3384 175.948 25.7181 176.751 25.2463C177.555 24.7746 178.359 24.5387 179.163 24.5387C179.617 24.5387 180.045 24.661 180.447 24.9056C180.866 25.1328 181.076 25.5958 181.076 26.2947C181.076 26.9586 180.884 27.5789 180.499 28.1555C180.115 28.7321 179.599 29.2475 178.953 29.7018C178.306 30.1561 177.59 30.5317 176.804 30.8288C176.035 31.1083 175.257 31.2918 174.471 31.3791C174.454 31.449 174.436 31.5277 174.419 31.615C174.419 31.6849 174.419 31.8072 174.419 31.9819C174.419 32.0693 174.428 32.2266 174.445 32.4537C174.48 32.6634 174.559 32.8905 174.681 33.1351C174.803 33.3797 175.004 33.5894 175.284 33.7641C175.563 33.9388 175.948 34.0262 176.437 34.0262C177.171 34.0262 177.905 33.8253 178.638 33.4234C179.39 33.0041 180.089 32.4537 180.735 31.7723C181.399 31.0908 181.949 30.3308 182.386 29.4921L182.91 29.9115C182.439 30.9598 181.827 31.8771 181.076 32.6634C180.342 33.4496 179.521 34.0612 178.612 34.498C177.721 34.9348 176.804 35.1532 175.86 35.1532ZM174.759 30.4094C175.214 30.357 175.72 30.1998 176.28 29.9377C176.839 29.6756 177.372 29.3436 177.878 28.9417C178.402 28.5399 178.831 28.1031 179.163 27.6313C179.495 27.1421 179.66 26.6529 179.66 26.1636C179.66 25.9714 179.626 25.8404 179.556 25.7705C179.486 25.7006 179.372 25.6657 179.215 25.6657C178.813 25.6657 178.394 25.8142 177.957 26.1112C177.52 26.3908 177.092 26.7664 176.673 27.2382C176.253 27.6925 175.878 28.1992 175.546 28.7583C175.214 29.3174 174.952 29.8678 174.759 30.4094Z" fill="#3C3C3C"/>
<path d="M23.0524 56.7469C22.2923 56.7469 21.565 56.6158 20.8705 56.3537C20.1891 56.0916 19.6321 55.692 19.1997 55.1547C18.7673 54.6174 18.551 53.9491 18.551 53.1497C18.551 52.4421 18.7083 51.8917 19.0228 51.4986C19.3373 51.0924 19.7304 50.8106 20.2022 50.6534C20.6739 50.4961 21.1326 50.4175 21.5781 50.4175C21.1588 50.863 20.8377 51.3217 20.615 51.7934C20.4053 52.2652 20.3005 52.7173 20.3005 53.1497C20.3005 53.5953 20.4118 54.0146 20.6346 54.4077C20.8705 54.7878 21.2178 55.0957 21.6764 55.3316C22.1351 55.5806 22.7051 55.7051 23.3865 55.7051C23.9762 55.7051 24.5463 55.6068 25.0966 55.4102C25.6601 55.2137 26.1188 54.9188 26.4726 54.5257C26.8395 54.1325 27.023 53.6411 27.023 53.0514C27.023 52.5142 26.8657 52.0555 26.5512 51.6755C26.2498 51.2824 25.8567 50.9351 25.3718 50.6337C24.887 50.3192 24.3759 50.0244 23.8386 49.7492C23.3013 49.4609 22.7903 49.1529 22.3054 48.8253C21.8206 48.4977 21.4209 48.1177 21.1064 47.6852C20.805 47.2528 20.6543 46.7352 20.6543 46.1324C20.6543 45.5951 20.7853 45.0251 21.0474 44.4223C21.3226 43.8064 21.7092 43.2298 22.2071 42.6925C22.7051 42.1552 23.3079 41.7228 24.0155 41.3952C24.7232 41.0545 25.5094 40.8841 26.3743 40.8841C27.2785 40.8841 27.9141 41.0741 28.281 41.4541C28.6479 41.8342 28.8314 42.3321 28.8314 42.948C28.8314 43.4329 28.7462 43.9505 28.5758 44.5009C28.4055 45.0513 28.1958 45.5754 27.9468 46.0734C27.7109 46.5714 27.4816 46.9973 27.2588 47.3511C26.9705 47.2856 26.7543 47.1742 26.6102 47.0169C26.466 46.8466 26.394 46.6238 26.394 46.3486C26.394 46.0734 26.4464 45.7655 26.5512 45.4247C26.6691 45.084 26.8002 44.7302 26.9443 44.3633C27.1016 43.9964 27.2326 43.6426 27.3375 43.3018C27.4554 42.948 27.5144 42.6401 27.5144 42.378C27.5144 42.1421 27.4423 41.9587 27.2982 41.8276C27.1671 41.6966 26.8919 41.6311 26.4726 41.6311C25.8436 41.6311 25.267 41.7686 24.7428 42.0438C24.2186 42.319 23.76 42.6663 23.3669 43.0856C22.9868 43.505 22.692 43.9505 22.4823 44.4223C22.2727 44.8809 22.1678 45.3003 22.1678 45.6803C22.1678 46.152 22.3185 46.5583 22.6199 46.899C22.9213 47.2266 23.3079 47.528 23.7797 47.8032C24.2645 48.0784 24.769 48.3536 25.2932 48.6287C25.8305 48.9039 26.335 49.2119 26.8067 49.5526C27.2916 49.8933 27.6847 50.2995 27.9861 50.7713C28.2875 51.2431 28.4382 51.8196 28.4382 52.5011C28.4382 53.1825 28.281 53.7853 27.9665 54.3095C27.6651 54.8336 27.2523 55.2726 26.7281 55.6264C26.2039 55.9934 25.6208 56.2685 24.9787 56.452C24.3497 56.6486 23.7076 56.7469 23.0524 56.7469ZM31.4139 55.9409C30.8373 55.9409 30.3721 55.7706 30.0183 55.4299C29.6645 55.0892 29.4875 54.5715 29.4875 53.877C29.4875 53.3397 29.5858 52.6714 29.7824 51.8721C29.9921 51.0727 30.2541 50.2471 30.5686 49.3953C30.4769 49.3691 30.3655 49.3495 30.2345 49.3364C30.1165 49.3102 29.9986 49.2709 29.8807 49.2184V48.6091C30.0903 48.6353 30.2607 48.655 30.3917 48.6681C30.5359 48.6812 30.68 48.6943 30.8242 48.7074C31.0994 48.0128 31.3942 47.3445 31.7087 46.7024C32.0363 46.0472 32.3574 45.4641 32.6719 44.953C32.9995 44.4419 33.3074 44.0422 33.5957 43.7539C33.884 43.4525 34.1396 43.3018 34.3623 43.3018C34.4934 43.3018 34.6179 43.3543 34.7358 43.4591C34.8538 43.5508 34.9127 43.6884 34.9127 43.8719C34.9127 44.134 34.7751 44.5074 34.4999 44.9923C34.2378 45.4772 33.9102 46.0472 33.5171 46.7024C33.124 47.3445 32.744 48.0325 32.377 48.7663C32.4819 48.7663 32.5867 48.7663 32.6915 48.7663C32.7964 48.7663 32.8947 48.7663 32.9864 48.7663C33.563 48.7663 34.0806 48.7598 34.5392 48.7467C35.011 48.7205 35.4893 48.6812 35.9742 48.6287V49.2774C35.2534 49.3429 34.5917 49.3953 33.9889 49.4347C33.3861 49.474 32.8095 49.5002 32.2591 49.5133C32.2198 49.5133 32.1805 49.5133 32.1412 49.5133C32.1018 49.5133 32.0625 49.5133 32.0232 49.5133C31.748 50.1554 31.5056 50.8172 31.2959 51.4986C31.0994 52.1669 31.0011 52.8221 31.0011 53.4642C31.0011 54.0015 31.0863 54.3815 31.2566 54.6043C31.427 54.8271 31.6956 54.9385 32.0625 54.9385C32.7178 54.9385 33.3861 54.6436 34.0675 54.0539C34.762 53.4511 35.3648 52.6387 35.8759 51.6165L36.1511 51.8131C35.8104 52.5862 35.3845 53.2873 34.8734 53.9163C34.3754 54.5453 33.8316 55.0367 33.2419 55.3906C32.6522 55.7575 32.0429 55.9409 31.4139 55.9409ZM36.3886 55.9606C35.9562 55.9606 35.5827 55.8164 35.2682 55.5282C34.9406 55.2399 34.7768 54.8074 34.7768 54.2308C34.7768 53.7722 34.8816 53.2742 35.0913 52.7369C35.301 52.1997 35.5893 51.6689 35.9562 51.1448C36.3231 50.6206 36.7425 50.1488 37.2142 49.7295C37.686 49.2971 38.1905 48.9498 38.7278 48.6877C39.265 48.4256 39.8023 48.2946 40.3396 48.2946C40.9031 48.2946 41.3814 48.4387 41.7745 48.727C42.1676 49.0153 42.3642 49.3953 42.3642 49.8671C42.3642 50.2209 42.2397 50.4764 41.9907 50.6337C41.7417 50.791 41.4469 50.8368 41.1062 50.7713C41.1324 50.6534 41.1521 50.5354 41.1652 50.4175C41.1914 50.2995 41.2045 50.1751 41.2045 50.044C41.2045 49.7819 41.1521 49.546 41.0472 49.3364C40.9424 49.1267 40.7196 49.0219 40.3789 49.0219C40.012 49.0219 39.6385 49.1464 39.2585 49.3953C38.8785 49.6443 38.5115 49.9719 38.1577 50.3782C37.817 50.7713 37.5091 51.2103 37.2339 51.6951C36.9587 52.1669 36.7425 52.6321 36.5852 53.0908C36.428 53.5494 36.3493 53.9622 36.3493 54.3291C36.3493 54.7484 36.5 54.9581 36.8014 54.9581C37.1028 54.9581 37.437 54.814 37.8039 54.5257C38.1708 54.2243 38.5377 53.8508 38.9047 53.4053C39.2847 52.9597 39.6451 52.5076 39.9858 52.049C40.3265 51.5772 40.6213 51.1775 40.8703 50.8499C40.9096 50.7844 40.962 50.7516 41.0276 50.7516C41.08 50.7647 41.1783 50.7975 41.3224 50.8499C41.4797 50.8892 41.6238 50.9548 41.7548 51.0465C41.8859 51.1382 41.9514 51.2562 41.9514 51.4003C41.9514 51.5313 41.8924 51.7017 41.7745 51.9114C41.6697 52.1079 41.5386 52.3307 41.3814 52.5797C41.2372 52.8156 41.1062 53.058 40.9882 53.307C40.8834 53.5429 40.831 53.7722 40.831 53.995C40.831 54.1653 40.8769 54.3291 40.9686 54.4864C41.0603 54.6305 41.211 54.7026 41.4207 54.7026C41.7352 54.7026 42.1742 54.4733 42.7377 54.0146C43.3143 53.5429 43.8974 52.75 44.4871 51.6362L44.8606 52.0097C44.5461 52.7173 44.166 53.3463 43.7205 53.8967C43.2881 54.4339 42.8294 54.8533 42.3445 55.1547C41.8597 55.4692 41.3683 55.6264 40.8703 55.6264C40.333 55.6264 39.9334 55.4561 39.6713 55.1154C39.4092 54.7747 39.265 54.4077 39.2388 54.0146C39.2388 53.9884 39.2388 53.9687 39.2388 53.9556C39.2388 53.9425 39.2388 53.9294 39.2388 53.9163C38.7147 54.5453 38.2298 55.0433 37.7842 55.4102C37.3518 55.7771 36.8866 55.9606 36.3886 55.9606ZM45.4569 55.8033C44.972 55.8033 44.6378 55.574 44.4544 55.1154C44.2709 54.6567 44.1792 54.0801 44.1792 53.3856C44.1792 53.2021 44.1857 52.8942 44.1989 52.4617C44.212 52.0162 44.2251 51.551 44.2382 51.0661C44.2644 50.6861 44.3102 50.424 44.3758 50.2799C44.4413 50.1226 44.6509 50.044 45.0048 50.044C45.3062 50.044 45.4896 50.103 45.5551 50.2209C45.6338 50.3257 45.6731 50.5289 45.6731 50.8303C45.6731 51.0792 45.66 51.3872 45.6338 51.7541C45.6207 52.1079 45.601 52.4683 45.5748 52.8352C45.5617 53.2021 45.5551 53.5166 45.5551 53.7787C45.5551 54.1719 45.5879 54.4405 45.6534 54.5846C45.7189 54.7157 45.8172 54.7812 45.9483 54.7812C46.171 54.7812 46.42 54.6567 46.6952 54.4077C46.9704 54.1457 47.2456 53.8115 47.5208 53.4053C47.8091 52.9859 48.0843 52.5404 48.3464 52.0686C48.6215 51.5969 48.8574 51.1448 49.054 50.7123C49.0671 49.8081 49.1654 49.2119 49.3488 48.9236C49.5323 48.6222 49.7616 48.4715 50.0368 48.4715C50.3513 48.4715 50.5741 48.5763 50.7051 48.786C50.8493 48.9957 50.9279 49.1791 50.941 49.3364C50.941 49.3364 50.8951 49.4609 50.8034 49.7098C50.7117 49.9588 50.62 50.2602 50.5282 50.614C50.4365 50.9548 50.3906 51.2758 50.3906 51.5772C50.3906 51.8655 50.4496 52.1014 50.5675 52.2848C50.6986 52.4683 50.9082 52.56 51.1965 52.56C51.5241 52.56 51.819 52.4486 52.0811 52.2259C52.3432 51.99 52.5725 51.6886 52.7691 51.3217C52.9787 50.9548 53.1622 50.5616 53.3194 50.1423C53.4898 49.723 53.6405 49.3233 53.7715 48.9432C53.7322 48.8777 53.6929 48.8122 53.6536 48.7467C53.6274 48.6681 53.6143 48.5632 53.6143 48.4322C53.6143 48.0915 53.7126 47.7704 53.9091 47.469C54.1188 47.1545 54.3481 46.9973 54.5971 46.9973C54.715 46.9973 54.8002 47.0366 54.8526 47.1152C54.9182 47.1807 54.9509 47.2659 54.9509 47.3707C54.9509 47.5149 54.9182 47.6852 54.8526 47.8818C54.7871 48.0784 54.7544 48.216 54.7544 48.2946C54.7544 48.4256 54.8592 48.5632 55.0689 48.7074C55.2916 48.8515 55.5406 49.0219 55.8158 49.2184C56.091 49.415 56.3334 49.664 56.5431 49.9654C56.7659 50.2537 56.8773 50.614 56.8773 51.0465C56.8773 51.4265 56.7986 51.8131 56.6414 52.2062C56.4841 52.5862 56.3269 52.9466 56.1696 53.2873C56.0124 53.6149 55.9337 53.9032 55.9337 54.1522C55.9337 54.3226 55.9796 54.4405 56.0713 54.506C56.1762 54.5584 56.2941 54.5846 56.4252 54.5846C56.7397 54.5846 57.0607 54.4864 57.3883 54.2898C57.7159 54.0932 58.0304 53.8443 58.3318 53.5429C58.6463 53.2415 58.9281 52.9204 59.1771 52.5797C59.426 52.239 59.6161 51.931 59.7471 51.6558L60.1009 51.8721C59.8519 52.4355 59.5112 53.0056 59.0788 53.5822C58.6594 54.1457 58.1746 54.6174 57.6242 54.9974C57.0869 55.3775 56.5169 55.5675 55.9141 55.5675C55.4292 55.5675 55.0361 55.4364 54.7347 55.1743C54.4333 54.9123 54.2826 54.5715 54.2826 54.1522C54.2826 53.7853 54.3678 53.3922 54.5381 52.9728C54.7216 52.5535 54.8985 52.1407 55.0689 51.7345C55.2392 51.3151 55.3244 50.9548 55.3244 50.6534C55.3244 50.352 55.2261 50.103 55.0295 49.9064C54.833 49.6967 54.6037 49.5264 54.3416 49.3953C54.1974 49.8016 54.0271 50.234 53.8305 50.6927C53.647 51.1382 53.4243 51.5641 53.1622 51.9703C52.9132 52.3635 52.6118 52.6911 52.258 52.9532C51.9042 53.2021 51.4979 53.3266 51.0393 53.3266C50.6331 53.3266 50.2661 53.2218 49.9385 53.0121C49.624 52.7894 49.3947 52.5142 49.2506 52.1866C48.9229 52.7894 48.5429 53.3659 48.1105 53.9163C47.6911 54.4667 47.2522 54.9188 46.7935 55.2726C46.3348 55.6264 45.8893 55.8033 45.4569 55.8033ZM60.5799 55.6657C59.9902 55.6657 59.584 55.4692 59.3612 55.0761C59.1515 54.696 59.0467 54.2767 59.0467 53.818C59.0467 53.3987 59.1122 52.9728 59.2432 52.5404C59.3743 52.0948 59.5512 51.682 59.774 51.302C60.0098 50.922 60.2654 50.6206 60.5406 50.3978C60.8289 50.1619 61.1172 50.044 61.4055 50.044C61.4972 50.044 61.602 50.0637 61.72 50.103C61.851 50.1292 61.9427 50.1751 61.9951 50.2406C61.8379 50.4371 61.6741 50.6796 61.5037 50.9679C61.3465 51.2562 61.1958 51.5641 61.0516 51.8917C60.9206 52.2062 60.8158 52.5273 60.7371 52.8549C60.6585 53.1825 60.6192 53.4839 60.6192 53.7591C60.6192 54.0212 60.6651 54.2374 60.7568 54.4077C60.8616 54.5781 61.0385 54.6633 61.2875 54.6633C61.5365 54.6633 61.8313 54.5257 62.1721 54.2505C62.5259 53.9622 62.86 53.6346 63.1745 53.2677C62.7552 52.8876 62.4538 52.4749 62.2703 52.0293C62.0869 51.5707 61.9951 51.0203 61.9951 50.3782C61.9951 50.103 62.0607 49.7885 62.1917 49.4347C62.3359 49.0808 62.5586 48.7729 62.86 48.5108C63.1745 48.2487 63.5939 48.1177 64.118 48.1177C64.6815 48.1177 65.0747 48.2749 65.2974 48.5894C65.5333 48.9039 65.6512 49.2774 65.6512 49.7098C65.6512 50.1947 65.5202 50.7385 65.2581 51.3413C65.0091 51.9441 64.7077 52.5142 64.3539 53.0514C64.5112 53.1301 64.6946 53.1694 64.9043 53.1694C65.1009 53.1694 65.3367 53.1235 65.6119 53.0318C65.8871 52.9401 66.1558 52.7894 66.4178 52.5797C66.6799 52.3569 66.8896 52.0621 67.0469 51.6951L67.4007 51.9507C67.1124 52.619 66.7258 53.1104 66.2409 53.4249C65.7692 53.7263 65.304 53.877 64.8453 53.877C64.675 53.877 64.5046 53.8639 64.3343 53.8377C64.1639 53.7984 64.0067 53.7525 63.8625 53.7001C63.417 54.2243 62.9059 54.6829 62.3293 55.0761C61.7527 55.4692 61.1696 55.6657 60.5799 55.6657ZM63.6856 52.6387C64.0001 52.18 64.2687 51.6886 64.4915 51.1644C64.7143 50.6403 64.8257 50.1554 64.8257 49.7098C64.8257 49.4084 64.7798 49.1922 64.6881 49.0612C64.5963 48.917 64.4588 48.845 64.2753 48.845C64.0263 48.845 63.7708 49.0219 63.5087 49.3757C63.2466 49.7295 63.1156 50.1751 63.1156 50.7123C63.1156 50.9875 63.1614 51.3217 63.2532 51.7148C63.358 52.1079 63.5021 52.4159 63.6856 52.6387ZM65.4954 60.5405C65.3905 60.5405 65.2792 60.5078 65.1612 60.4423C65.0433 60.3898 64.945 60.3243 64.8664 60.2457C64.7746 60.1671 64.7222 60.1016 64.7091 60.0491C65.0367 59.0925 65.3185 58.2604 65.5543 57.5528C65.7771 56.8582 65.9671 56.1965 66.1244 55.5675C66.2816 54.9516 66.4258 54.3095 66.5568 53.6411C66.6748 52.9597 66.7927 52.1866 66.9106 51.3217C67.0417 50.4437 67.1858 49.3888 67.3431 48.157C67.3693 47.9997 67.402 47.8884 67.4414 47.8228C67.4807 47.7442 67.6052 47.7049 67.8148 47.7049C68.2211 47.7049 68.5159 47.8163 68.6994 48.0391C68.8828 48.2487 68.9746 48.4846 68.9746 48.7467C68.9746 48.8777 68.9484 49.1071 68.8959 49.4347C68.8566 49.7623 68.7911 50.1488 68.6994 50.5944C68.9484 50.2144 69.2301 49.854 69.5446 49.5133C69.8722 49.1726 70.2326 48.8974 70.6257 48.6877C71.0188 48.4649 71.4447 48.3536 71.9034 48.3536C72.5455 48.3536 73.0762 48.5698 73.4955 49.0022C73.9149 49.4347 74.1246 50.0047 74.1246 50.7123C74.1246 51.2234 74.0066 51.7672 73.7707 52.3438C73.548 52.9073 73.2269 53.4446 72.8076 53.9556C72.3882 54.4536 71.8837 54.8598 71.294 55.1743C70.7043 55.5019 70.0557 55.6657 69.348 55.6657C68.9287 55.6657 68.5945 55.6133 68.3456 55.5085C68.0966 55.4037 67.9721 55.2857 67.9721 55.1547C67.9721 55.063 68.0179 55.0105 68.1097 54.9974C68.2145 54.9712 68.3259 54.9581 68.4438 54.9581C69.0597 54.945 69.6167 54.814 70.1146 54.565C70.6257 54.316 71.0647 53.995 71.4316 53.6018C71.7985 53.1956 72.0803 52.7631 72.2768 52.3045C72.4734 51.8458 72.5717 51.3937 72.5717 50.9482C72.5717 50.5551 72.48 50.2144 72.2965 49.9261C72.1261 49.6378 71.851 49.4936 71.4709 49.4936C71.1433 49.4936 70.8092 49.5985 70.4685 49.8081C70.1408 50.0178 69.8329 50.2864 69.5446 50.614C69.2563 50.9285 69.0008 51.2627 68.778 51.6165C68.5552 51.9572 68.3849 52.2586 68.2669 52.5207C68.0179 53.3856 67.7886 54.2439 67.579 55.0957C67.3824 55.9606 67.1924 56.76 67.0089 57.4938C66.8255 58.2276 66.642 58.8501 66.4585 59.3612C66.262 59.8722 66.0523 60.2195 65.8295 60.403C65.7247 60.4947 65.6133 60.5405 65.4954 60.5405ZM76.0133 55.6657C75.4236 55.6657 75.0173 55.4692 74.7946 55.0761C74.5849 54.696 74.4801 54.2767 74.4801 53.818C74.4801 53.3987 74.5456 52.9728 74.6766 52.5404C74.8077 52.0948 74.9846 51.682 75.2073 51.302C75.4432 50.922 75.6988 50.6206 75.9739 50.3978C76.2622 50.1619 76.5505 50.044 76.8388 50.044C76.9306 50.044 77.0354 50.0637 77.1533 50.103C77.2844 50.1292 77.3761 50.1751 77.4285 50.2406C77.2713 50.4371 77.1075 50.6796 76.9371 50.9679C76.7799 51.2562 76.6292 51.5641 76.485 51.8917C76.354 52.2062 76.2491 52.5273 76.1705 52.8549C76.0919 53.1825 76.0526 53.4839 76.0526 53.7591C76.0526 54.0212 76.0984 54.2374 76.1902 54.4077C76.295 54.5781 76.4719 54.6633 76.7209 54.6633C76.9699 54.6633 77.2647 54.5257 77.6054 54.2505C77.9592 53.9622 78.2934 53.6346 78.6079 53.2677C78.1886 52.8876 77.8872 52.4749 77.7037 52.0293C77.5203 51.5707 77.4285 51.0203 77.4285 50.3782C77.4285 50.103 77.494 49.7885 77.6251 49.4347C77.7692 49.0808 77.992 48.7729 78.2934 48.5108C78.6079 48.2487 79.0272 48.1177 79.5514 48.1177C80.1149 48.1177 80.508 48.2749 80.7308 48.5894C80.9667 48.9039 81.0846 49.2774 81.0846 49.7098C81.0846 50.1947 80.9536 50.7385 80.6915 51.3413C80.4425 51.9441 80.1411 52.5142 79.7873 53.0514C79.9445 53.1301 80.128 53.1694 80.3377 53.1694C80.5342 53.1694 80.7701 53.1235 81.0453 53.0318C81.3205 52.9401 81.5891 52.7894 81.8512 52.5797C82.1133 52.3569 82.323 52.0621 82.4802 51.6951L82.834 51.9507C82.5458 52.619 82.1592 53.1104 81.6743 53.4249C81.2026 53.7263 80.7374 53.877 80.2787 53.877C80.1084 53.877 79.938 53.8639 79.7676 53.8377C79.5973 53.7984 79.44 53.7525 79.2959 53.7001C78.8503 54.2243 78.3393 54.6829 77.7627 55.0761C77.1861 55.4692 76.603 55.6657 76.0133 55.6657ZM79.119 52.6387C79.4335 52.18 79.7021 51.6886 79.9249 51.1644C80.1477 50.6403 80.2591 50.1554 80.2591 49.7098C80.2591 49.4084 80.2132 49.1922 80.1215 49.0612C80.0297 48.917 79.8921 48.845 79.7087 48.845C79.4597 48.845 79.2042 49.0219 78.9421 49.3757C78.68 49.7295 78.5489 50.1751 78.5489 50.7123C78.5489 50.9875 78.5948 51.3217 78.6865 51.7148C78.7914 52.1079 78.9355 52.4159 79.119 52.6387ZM83.72 55.6264C83.1041 55.6264 82.6716 55.4233 82.4226 55.0171C82.1868 54.5977 82.0688 54.1063 82.0688 53.5429C82.0688 52.9007 82.1868 52.1472 82.4226 51.2824C82.6585 50.4175 82.9665 49.5133 83.3465 48.5698C83.7396 47.6132 84.1655 46.6828 84.6242 45.7786C85.0959 44.8613 85.5677 44.0357 86.0394 43.3018C86.5112 42.568 86.9436 41.9849 87.3367 41.5524C87.743 41.1069 88.0706 40.8841 88.3196 40.8841C88.4899 40.8841 88.6341 40.9758 88.752 41.1593C88.87 41.3297 88.9617 41.5393 89.0272 41.7883C89.1058 42.0242 89.1451 42.247 89.1451 42.4566C89.1451 42.8104 89.0534 43.2756 88.87 43.8522C88.6996 44.4157 88.4506 45.0382 88.123 45.7196C87.8085 46.401 87.4285 47.1021 86.9829 47.8228C86.5505 48.5305 86.0656 49.2053 85.5284 49.8474C85.0042 50.4896 84.4407 51.0465 83.8379 51.5182C83.7855 51.8458 83.7331 52.1735 83.6807 52.5011C83.6413 52.8156 83.6217 53.1039 83.6217 53.3659C83.6217 53.8377 83.7003 54.185 83.8576 54.4077C84.0148 54.6174 84.2179 54.7222 84.4669 54.7222C84.7945 54.7222 85.1287 54.5715 85.4694 54.2701C85.8232 53.9556 86.1574 53.5625 86.4719 53.0908C86.7995 52.6059 87.0812 52.1079 87.3171 51.5969L87.7888 51.8524C87.2254 53.0187 86.5964 53.9425 85.9018 54.624C85.2073 55.2923 84.48 55.6264 83.72 55.6264ZM84.1917 50.2995C84.6373 49.8147 85.0566 49.2905 85.4497 48.727C85.856 48.1504 86.2229 47.5673 86.5505 46.9776C86.8912 46.3879 87.186 45.8179 87.435 45.2675C87.684 44.7171 87.874 44.2257 88.0051 43.7933C88.1492 43.3477 88.2278 42.9939 88.2409 42.7318C88.2409 42.7187 88.2409 42.7122 88.2409 42.7122C88.2409 42.6991 88.2409 42.6859 88.2409 42.6728C88.1361 42.6728 87.9658 42.8235 87.7299 43.1249C87.5071 43.4132 87.2385 43.8129 86.924 44.324C86.6095 44.8351 86.2819 45.4182 85.9411 46.0734C85.6135 46.7286 85.2925 47.4231 84.978 48.157C84.6766 48.8777 84.4145 49.5919 84.1917 50.2995Z" fill="#3C3C3C"/>
<path d="M94.1142 44.9032L94.2057 46.6482L95.8936 47.1005L94.2622 47.7267L94.3537 49.4717L93.254 48.1137L91.6226 48.74L92.5743 47.2744L91.4747 45.9164L93.1625 46.3687L94.1142 44.9032Z" fill="#E1CFDB"/>
<path d="M100.235 43.4543L100.327 45.1994L102.015 45.6516L100.383 46.2779L100.475 48.0229L99.375 46.6649L97.7436 47.2911L98.6953 45.8256L97.5956 44.4676L99.2835 44.9199L100.235 43.4543Z" fill="#E1CFDB"/>
<path d="M95.8892 39.1081L95.9807 40.8535L97.6689 41.3059L96.0372 41.9322L96.1287 43.6776L95.0288 42.3193L93.3971 42.9456L94.349 41.4798L93.2491 40.1216L94.9373 40.5739L95.8892 39.1081Z" fill="#E1CFDB"/>
<path d="M100.75 37.4962L100.818 38.7845L102.064 39.1185L100.859 39.5808L100.927 40.8691L100.115 39.8665L98.9107 40.3288L99.6133 39.2469L98.8014 38.2443L100.048 38.5782L100.75 37.4962Z" fill="#E1CFDB"/>
<circle r="0.953861" transform="matrix(0.866025 -0.5 -0.5 -0.866025 49.9298 11.753)" fill="#FFE7E3" stroke="#3C3C3C" stroke-width="0.546012"/>
<circle r="1.56729" transform="matrix(0.866025 -0.5 -0.5 -0.866025 56.4088 14.387)" fill="#FFE7E3" stroke="#3C3C3C" stroke-width="0.546012"/>
<circle r="1.56729" transform="matrix(0.866025 -0.5 -0.5 -0.866025 51.2608 20.1927)" fill="#FFE7E3" stroke="#3C3C3C" stroke-width="0.546012"/>
<circle r="0.953861" transform="matrix(0.866025 -0.5 -0.5 -0.866025 58.8024 22.2138)" fill="#FFE7E3" stroke="#3C3C3C" stroke-width="0.546012"/>
</svg>
