<svg width="54" height="48" viewBox="0 0 54 48" fill="none" xmlns="http://www.w3.org/2000/svg"><path d="M54 11.643a.739.739 0 0 0-.738-.739h-.95c-2.4 0-4.787.331-7.096.985a26.01 26.01 0 0 0-1.502-7.003l-.324-.893a.739.739 0 0 0-.947-.44l-.892.324a25.888 25.888 0 0 0-8.045 4.698A26.046 26.046 0 0 0 28.193.914l-.67-.671a.76.76 0 0 0-1.045 0l-.671.67a26.05 26.05 0 0 0-5.313 7.662 25.887 25.887 0 0 0-8.045-4.698l-.892-.325a.739.739 0 0 0-.947.441l-.324.892a26.009 26.009 0 0 0-1.502 7.003 26.059 26.059 0 0 0-7.097-.984H.739a.739.739 0 0 0-.738.739v.949a25.955 25.955 0 0 0 7.298 18.056 20.553 20.553 0 0 0-6.551 4.421l-.53.533a.737.737 0 0 0 0 1.043l.53.53a20.65 20.65 0 0 0 21.027 5.085 26.085 26.085 0 0 0 4.032 5.22 1.688 1.688 0 0 0 2.387 0 26.038 26.038 0 0 0 4.032-5.22 20.65 20.65 0 0 0 21.028-5.086l.53-.53a.736.736 0 0 0 0-1.044l-.53-.53a20.555 20.555 0 0 0-6.551-4.424A25.955 25.955 0 0 0 54 12.592v-.95zm-11.944-6.38.199-.072.072.198a24.52 24.52 0 0 1 1.434 6.957 25.973 25.973 0 0 0-8.053 4.548 25.895 25.895 0 0 0-1.603-6.88 24.417 24.417 0 0 1 7.951-4.751zM26.851 1.958 27 1.809l.15.15a24.529 24.529 0 0 1 5.403 8.138 24.543 24.543 0 0 1 1.792 9.24A24.413 24.413 0 0 1 27.15 36.71l-.15.15-.15-.149a24.614 24.614 0 0 1-5.378-26.683 24.523 24.523 0 0 1 5.38-8.07zM11.673 5.389l.072-.198.199.072a24.416 24.416 0 0 1 7.95 4.752 25.903 25.903 0 0 0-1.603 6.88 25.969 25.969 0 0 0-8.054-4.549 24.52 24.52 0 0 1 1.436-6.957zM1.477 12.381h.21a24.483 24.483 0 0 1 16.504 6.38c-.004.192-.014.38-.014.573a25.863 25.863 0 0 0 7.049 17.811 24.599 24.599 0 0 1-23.75-24.553v-.211zm.314 23.751-.009-.008.009-.009a19.082 19.082 0 0 1 6.66-4.336 25.946 25.946 0 0 0 17.48 6.86 19.304 19.304 0 0 1-3.97 1.992.71.71 0 0 0-.234.088A19.195 19.195 0 0 1 1.791 36.13v.002zm25.358 10.303a.184.184 0 0 1-.298 0 24.578 24.578 0 0 1-3.667-4.689A20.87 20.87 0 0 0 27 39.702a20.851 20.851 0 0 0 3.816 2.044 24.57 24.57 0 0 1-3.667 4.69zm25.069-10.313-.009.008a19.196 19.196 0 0 1-19.936 4.589l-.016-.011a.73.73 0 0 0-.217-.076 19.308 19.308 0 0 1-3.97-1.993 25.945 25.945 0 0 0 17.479-6.86c2.5.96 4.769 2.438 6.66 4.334l.009.009zm.305-23.53a24.6 24.6 0 0 1-23.749 24.553 25.86 25.86 0 0 0 7.05-17.81c0-.193-.01-.383-.015-.574a24.483 24.483 0 0 1 16.504-6.38h.21v.21z" fill="#3C3C3C"/></svg>