<svg width="561" height="98" viewBox="0 0 561 98" fill="none" xmlns="http://www.w3.org/2000/svg">
<path opacity="0.6" d="M25.3134 97.44C20.6734 97.44 16.4334 96.2 12.5934 93.72C8.75344 91.32 5.71344 87.88 3.47344 83.4C1.23344 78.92 0.113438 73.56 0.113438 67.32C0.113438 61.16 1.07344 54.96 2.99344 48.72C4.91344 42.4 7.55344 36.4 10.9134 30.72C14.2734 24.96 18.1934 19.84 22.6734 15.36C27.1534 10.8 31.9134 7.23999 36.9534 4.67999C42.0734 2.03999 47.3134 0.719995 52.6734 0.719995C53.4734 0.719995 54.6334 0.879995 56.1534 1.2C57.7534 1.52 59.3134 2.48 60.8334 4.07999C60.3534 4 59.7934 3.96 59.1534 3.96C58.5934 3.88 57.9934 3.84 57.3534 3.84C53.1934 3.84 48.9934 5.16 44.7534 7.8C40.5134 10.36 36.4734 13.84 32.6334 18.24C28.7934 22.64 25.3534 27.64 22.3134 33.24C19.3534 38.76 16.9934 44.52 15.2334 50.52C13.4734 56.52 12.5934 62.36 12.5934 68.04C12.5934 72.2 13.1534 76.08 14.2734 79.68C15.3934 83.28 17.1934 86.16 19.6734 88.32C22.1534 90.56 25.4334 91.68 29.5134 91.68C33.9134 91.68 38.0334 90.36 41.8734 87.72C45.7134 85.08 49.1934 81.56 52.3134 77.16C55.4334 72.68 58.1134 67.72 60.3534 62.28C62.5934 56.76 64.3134 51.12 65.5134 45.36C66.7134 39.52 67.3134 33.96 67.3134 28.68C67.3134 26.36 67.1534 23.88 66.8334 21.24C66.5134 18.52 65.9534 16.2 65.1534 14.28C64.4334 12.36 63.3534 11.4 61.9134 11.4C60.5534 11.4 59.0734 12.28 57.4734 14.04C55.8734 15.72 54.3134 17.88 52.7934 20.52C51.2734 23.16 49.9134 25.96 48.7134 28.92C47.5934 31.8 46.7934 34.4 46.3134 36.72C43.5934 36.16 41.6334 35.28 40.4334 34.08C39.3134 32.88 38.7534 31.44 38.7534 29.76C38.7534 27.6 39.5134 25.2 41.0334 22.56C42.5534 19.92 44.5134 17.4 46.9134 15C49.3934 12.52 51.9534 10.48 54.5934 8.88C57.3134 7.28 59.8334 6.48 62.1534 6.48C64.5534 6.48 66.4734 7.36 67.9134 9.11999C69.4334 10.8 70.5934 13 71.3934 15.72C72.1934 18.44 72.7534 21.36 73.0734 24.48C73.3934 27.52 73.5534 30.36 73.5534 33C73.5534 41.16 72.5534 48.64 70.5534 55.44C68.5534 62.16 65.8334 68.12 62.3934 73.32C59.0334 78.52 55.2334 82.92 50.9934 86.52C46.8334 90.12 42.5134 92.84 38.0334 94.68C33.6334 96.52 29.3934 97.44 25.3134 97.44ZM83.0888 90.6C80.3688 90.6 78.1288 89.36 76.3688 86.88C74.6888 84.32 73.8487 81.4 73.8487 78.12C73.8487 75.88 74.2088 73.24 74.9288 70.2C75.6488 67.16 76.5688 64.2 77.6888 61.32C78.8888 58.44 80.0888 56.04 81.2888 54.12C82.5688 52.2 83.7288 51.24 84.7688 51.24C85.3288 51.24 86.1688 51.56 87.2888 52.2C88.4888 52.76 89.5288 53.48 90.4088 54.36C89.5288 55.64 88.4488 57.6 87.1688 60.24C85.9688 62.88 84.8888 65.72 83.9288 68.76C82.9688 71.8 82.4888 74.56 82.4888 77.04C82.4888 77.36 82.5288 78.12 82.6088 79.32C82.7688 80.52 83.0888 81.64 83.5688 82.68C84.0488 83.72 84.8888 84.24 86.0888 84.24C87.4488 84.24 88.8888 83.52 90.4088 82.08C92.0088 80.56 93.6088 78.64 95.2088 76.32C96.8888 73.92 98.4888 71.36 100.009 68.64C101.609 65.92 103.009 63.28 104.209 60.72C105.489 58.16 106.529 56 107.329 54.24C108.049 54.32 108.969 54.52 110.089 54.84C111.289 55.16 112.329 55.6 113.209 56.16C114.089 56.64 114.529 57.36 114.529 58.32C114.529 58.56 114.129 59.56 113.329 61.32C112.609 63 111.729 65.04 110.689 67.44C109.729 69.84 108.849 72.32 108.049 74.88C107.329 77.36 106.969 79.56 106.969 81.48C106.969 82.6 107.169 83.6 107.569 84.48C108.049 85.28 108.929 85.68 110.209 85.68C111.889 85.68 113.889 84.92 116.209 83.4C118.529 81.88 120.929 79.68 123.409 76.8C125.889 73.92 128.089 70.48 130.009 66.48L131.809 67.92C130.049 72.24 127.769 76.12 124.969 79.56C122.169 83 119.169 85.68 115.969 87.6C112.769 89.6 109.649 90.6 106.609 90.6C104.289 90.6 102.529 90.04 101.329 88.92C100.209 87.88 99.4488 86.52 99.0488 84.84C98.6488 83.08 98.4088 81.32 98.3288 79.56C98.3288 79.16 98.3288 78.76 98.3288 78.36C98.3288 77.88 98.3288 77.48 98.3288 77.16C96.9688 79.32 95.4888 81.44 93.8888 83.52C92.2888 85.52 90.5688 87.2 88.7288 88.56C86.9688 89.92 85.0888 90.6 83.0888 90.6ZM149.138 90.12C146.178 90.12 143.778 89.32 141.938 87.72C140.098 86.2 139.178 84.12 139.178 81.48C139.178 79.24 139.738 76.84 140.858 74.28C141.978 71.72 143.098 69.2 144.218 66.72C145.418 64.24 146.018 62.04 146.018 60.12C146.018 58.28 145.418 56.76 144.218 55.56C143.018 54.28 141.618 53.24 140.018 52.44C138.258 56.84 136.258 61.12 134.018 65.28C131.858 69.36 130.098 72.56 128.738 74.88L126.938 71.4C128.058 69.32 129.538 66.36 131.378 62.52C133.218 58.68 134.978 54.4 136.658 49.68C135.858 48.88 135.458 47.8 135.458 46.44C135.458 44.36 136.098 42.4 137.378 40.56C138.658 38.72 139.898 37.8 141.098 37.8C142.058 37.8 142.738 38.36 143.138 39.48C143.618 40.52 143.858 41.24 143.858 41.64C143.858 42.04 143.658 42.76 143.258 43.8C142.938 44.84 142.698 45.6 142.538 46.08C142.618 46.96 143.298 47.84 144.577 48.72C145.938 49.52 147.458 50.48 149.138 51.6C150.818 52.72 152.298 54.12 153.578 55.8C154.858 57.48 155.498 59.6 155.498 62.16C155.498 64.48 154.978 66.84 153.938 69.24C152.898 71.64 151.858 73.88 150.818 75.96C149.778 78.04 149.258 79.84 149.258 81.36C149.258 82.48 149.538 83.24 150.098 83.64C150.738 83.96 151.458 84.12 152.258 84.12C154.178 84.12 156.178 83.56 158.258 82.44C160.338 81.24 162.378 79.72 164.378 77.88C166.378 76.04 168.138 74.12 169.658 72.12C171.178 70.04 172.338 68.16 173.138 66.48L176.018 68.64C174.498 72.08 172.298 75.48 169.418 78.84C166.538 82.12 163.338 84.84 159.818 87C156.298 89.08 152.738 90.12 149.138 90.12ZM229.663 97.44C225.023 97.44 220.583 96.64 216.343 95.04C212.183 93.44 208.783 91 206.143 87.72C203.503 84.44 202.183 80.36 202.183 75.48C202.183 71.16 203.143 67.8 205.063 65.4C206.983 62.92 209.383 61.2 212.263 60.24C215.143 59.28 217.943 58.8 220.663 58.8C218.103 61.52 216.143 64.32 214.783 67.2C213.503 70.08 212.863 72.84 212.863 75.48C212.863 78.2 213.543 80.76 214.903 83.16C216.343 85.48 218.463 87.36 221.263 88.8C224.063 90.32 227.543 91.08 231.703 91.08C235.303 91.08 238.783 90.48 242.143 89.28C245.583 88.08 248.383 86.28 250.543 83.88C252.783 81.48 253.903 78.48 253.903 74.88C253.903 71.6 252.943 68.8 251.023 66.48C249.183 64.08 246.783 61.96 243.823 60.12C240.863 58.2 237.743 56.4 234.463 54.72C231.183 52.96 228.063 51.08 225.103 49.08C222.143 47.08 219.703 44.76 217.783 42.12C215.943 39.48 215.023 36.32 215.023 32.64C215.023 29.36 215.823 25.88 217.423 22.2C219.103 18.44 221.463 14.92 224.503 11.64C227.543 8.36 231.223 5.72 235.543 3.72C239.863 1.64 244.663 0.599997 249.943 0.599997C255.463 0.599997 259.343 1.76 261.583 4.07999C263.823 6.39999 264.943 9.43999 264.943 13.2C264.943 16.16 264.423 19.32 263.383 22.68C262.343 26.04 261.063 29.24 259.543 32.28C258.103 35.32 256.703 37.92 255.343 40.08C253.583 39.68 252.263 39 251.383 38.04C250.503 37 250.063 35.64 250.063 33.96C250.063 32.28 250.383 30.4 251.023 28.32C251.743 26.24 252.543 24.08 253.423 21.84C254.383 19.6 255.183 17.44 255.823 15.36C256.543 13.2 256.903 11.32 256.903 9.71999C256.903 8.27999 256.463 7.15999 255.583 6.35999C254.783 5.55999 253.103 5.16 250.543 5.16C246.703 5.16 243.183 6 239.983 7.68C236.783 9.36 233.983 11.48 231.583 14.04C229.263 16.6 227.463 19.32 226.183 22.2C224.903 25 224.263 27.56 224.263 29.88C224.263 32.76 225.183 35.24 227.023 37.32C228.863 39.32 231.223 41.16 234.103 42.84C237.063 44.52 240.143 46.2 243.343 47.88C246.623 49.56 249.703 51.44 252.583 53.52C255.543 55.6 257.943 58.08 259.783 60.96C261.623 63.84 262.543 67.36 262.543 71.52C262.543 75.68 261.583 79.36 259.663 82.56C257.823 85.76 255.303 88.44 252.103 90.6C248.903 92.84 245.343 94.52 241.423 95.64C237.583 96.84 233.663 97.44 229.663 97.44ZM283.709 92.28C278.589 92.28 274.629 90.88 271.829 88.08C269.109 85.36 267.749 81.92 267.749 77.76C267.749 74.24 268.629 70.52 270.389 66.6C272.229 62.6 274.669 58.88 277.709 55.44C280.749 51.92 284.109 49.08 287.789 46.92C291.469 44.76 295.149 43.68 298.829 43.68C300.909 43.68 302.869 44.24 304.709 45.36C306.629 46.4 307.589 48.52 307.589 51.72C307.589 54.76 306.709 57.6 304.949 60.24C303.189 62.88 300.829 65.24 297.869 67.32C294.909 69.4 291.629 71.12 288.029 72.48C284.509 73.76 280.949 74.6 277.349 75C277.269 75.32 277.189 75.68 277.109 76.08C277.109 76.4 277.109 76.96 277.109 77.76C277.109 78.16 277.149 78.88 277.229 79.92C277.389 80.88 277.749 81.92 278.309 83.04C278.869 84.16 279.789 85.12 281.069 85.92C282.349 86.72 284.109 87.12 286.349 87.12C289.709 87.12 293.069 86.2 296.429 84.36C299.869 82.44 303.069 79.92 306.029 76.8C309.069 73.68 311.589 70.2 313.589 66.36L315.989 68.28C313.829 73.08 311.029 77.28 307.589 80.88C304.229 84.48 300.469 87.28 296.309 89.28C292.229 91.28 288.029 92.28 283.709 92.28ZM278.669 70.56C280.749 70.32 283.069 69.6 285.629 68.4C288.189 67.2 290.629 65.68 292.949 63.84C295.349 62 297.309 60 298.829 57.84C300.349 55.6 301.109 53.36 301.109 51.12C301.109 50.24 300.949 49.64 300.629 49.32C300.309 49 299.789 48.84 299.069 48.84C297.229 48.84 295.309 49.52 293.309 50.88C291.309 52.16 289.349 53.88 287.429 56.04C285.509 58.12 283.789 60.44 282.269 63C280.749 65.56 279.549 68.08 278.669 70.56ZM332.888 90.12C329.928 90.12 327.528 89.32 325.688 87.72C323.848 86.2 322.928 84.12 322.928 81.48C322.928 79.24 323.488 76.84 324.608 74.28C325.728 71.72 326.848 69.2 327.968 66.72C329.168 64.24 329.768 62.04 329.768 60.12C329.768 58.28 329.168 56.76 327.968 55.56C326.768 54.28 325.368 53.24 323.768 52.44C322.008 56.84 320.008 61.12 317.768 65.28C315.608 69.36 313.848 72.56 312.488 74.88L310.688 71.4C311.808 69.32 313.288 66.36 315.128 62.52C316.968 58.68 318.728 54.4 320.408 49.68C319.608 48.88 319.208 47.8 319.208 46.44C319.208 44.36 319.848 42.4 321.128 40.56C322.408 38.72 323.648 37.8 324.848 37.8C325.808 37.8 326.488 38.36 326.888 39.48C327.368 40.52 327.608 41.24 327.608 41.64C327.608 42.04 327.408 42.76 327.008 43.8C326.688 44.84 326.448 45.6 326.288 46.08C326.368 46.96 327.048 47.84 328.327 48.72C329.688 49.52 331.208 50.48 332.888 51.6C334.568 52.72 336.048 54.12 337.328 55.8C338.608 57.48 339.248 59.6 339.248 62.16C339.248 64.48 338.728 66.84 337.688 69.24C336.648 71.64 335.608 73.88 334.568 75.96C333.528 78.04 333.008 79.84 333.008 81.36C333.008 82.48 333.288 83.24 333.848 83.64C334.488 83.96 335.208 84.12 336.008 84.12C337.928 84.12 339.928 83.56 342.008 82.44C344.088 81.24 346.128 79.72 348.128 77.88C350.128 76.04 351.888 74.12 353.408 72.12C354.928 70.04 356.088 68.16 356.888 66.48L359.768 68.64C358.248 72.08 356.048 75.48 353.168 78.84C350.288 82.12 347.088 84.84 343.568 87C340.048 89.08 336.488 90.12 332.888 90.12ZM363.161 91.68C360.201 91.68 358.121 90.32 356.921 87.6C355.801 84.96 355.241 81.52 355.241 77.28C355.241 76.4 355.281 74.84 355.361 72.6C355.441 70.28 355.561 67.08 355.721 63C355.801 60.6 356.041 58.96 356.441 58.08C356.921 57.2 358.201 56.76 360.281 56.76C362.201 56.76 363.321 57.16 363.641 57.96C364.041 58.68 364.241 60.2 364.241 62.52C364.241 64.92 364.121 67.48 363.881 70.2C363.721 72.92 363.641 75.56 363.641 78.12C363.641 80.6 363.761 82.44 364.001 83.64C364.241 84.76 364.841 85.32 365.801 85.32C367.241 85.32 368.801 84.56 370.481 83.04C372.161 81.44 373.841 79.44 375.521 77.04C377.281 74.56 378.921 71.92 380.441 69.12C382.041 66.24 383.441 63.48 384.641 60.84C384.801 55.4 385.441 51.76 386.561 49.92C387.681 48.08 389.121 47.16 390.881 47.16C392.881 47.16 394.241 47.8 394.961 49.08C395.681 50.36 396.041 51.48 396.041 52.44C396.041 53.64 395.721 54.72 395.081 55.68C394.441 56.64 393.801 57.96 393.161 59.64C392.521 61.32 392.201 63.88 392.201 67.32C392.201 68.44 392.281 69.68 392.441 71.04C392.681 72.32 393.161 73.44 393.881 74.4C394.681 75.28 395.841 75.72 397.361 75.72C398.961 75.72 400.481 75.08 401.921 73.8C403.441 72.44 405.041 70.12 406.721 66.84L408.041 67.92C406.201 72.32 404.121 75.4 401.801 77.16C399.561 78.92 397.401 79.8 395.321 79.8C392.681 79.8 390.521 78.76 388.841 76.68C387.241 74.52 386.001 71.84 385.121 68.64C383.201 72.24 381.001 75.8 378.521 79.32C376.121 82.84 373.601 85.76 370.961 88.08C368.321 90.48 365.721 91.68 363.161 91.68ZM413.1 90.6C409.58 90.6 406.94 89.56 405.18 87.48C403.42 85.4 402.54 82.88 402.54 79.92C402.54 78.08 402.86 75.76 403.5 72.96C404.14 70.16 405.02 67.24 406.14 64.2C407.34 61.08 408.7 58.16 410.22 55.44C411.74 52.72 413.38 50.52 415.14 48.84C416.9 47.08 418.66 46.2 420.42 46.2C421.38 46.2 422.22 46.48 422.94 47.04C423.66 47.6 424.02 48.48 424.02 49.68C424.02 50.72 423.38 52.28 422.1 54.36C420.9 56.44 419.46 58.84 417.78 61.56C416.18 64.28 414.74 67.12 413.46 70.08C412.26 72.96 411.66 75.72 411.66 78.36C411.66 80.92 412.1 82.64 412.98 83.52C413.94 84.32 415.3 84.72 417.06 84.72C419.78 84.72 422.74 83.36 425.94 80.64C429.14 77.92 432.46 73.16 435.9 66.36L437.7 68.28C434.9 75.32 431.34 80.8 427.02 84.72C422.7 88.64 418.06 90.6 413.1 90.6ZM427.26 36.48C425.74 36.48 424.34 36.12 423.06 35.4C421.86 34.6 421.26 33.4 421.26 31.8C421.26 29.88 422.3 28.24 424.38 26.88C426.46 25.52 428.62 24.84 430.86 24.84C432.3 24.84 433.5 25.16 434.46 25.8C435.5 26.44 436.02 27.6 436.02 29.28C436.02 30.96 435.1 32.6 433.26 34.2C431.42 35.72 429.42 36.48 427.26 36.48ZM446.357 93.72C442.197 93.72 438.757 92.4 436.037 89.76C433.397 87.2 432.077 83.24 432.077 77.88C432.077 73.96 432.837 70.12 434.357 66.36C435.877 62.6 437.917 59.24 440.477 56.28C443.037 53.24 445.877 50.84 448.997 49.08C452.197 47.32 455.437 46.44 458.717 46.44C462.077 46.44 464.477 47.28 465.917 48.96C467.437 50.64 468.197 52.6 468.197 54.84C468.197 57.08 467.637 59.28 466.517 61.44C465.477 63.52 464.037 64.56 462.197 64.56C460.677 64.56 459.437 63.8 458.477 62.28C459.277 61.72 460.117 60.68 460.997 59.16C461.877 57.64 462.317 55.68 462.317 53.28C462.317 52.64 462.157 52.16 461.837 51.84C461.517 51.44 460.917 51.24 460.037 51.24C458.037 51.24 455.917 52.16 453.677 54C451.517 55.76 449.477 58.08 447.557 60.96C445.717 63.76 444.197 66.76 442.997 69.96C441.877 73.08 441.317 75.96 441.317 78.6C441.317 80.84 441.877 82.92 442.997 84.84C444.197 86.68 446.477 87.6 449.837 87.6C452.877 87.6 456.037 86.72 459.317 84.96C462.597 83.2 465.677 80.76 468.557 77.64C471.437 74.44 473.757 70.64 475.517 66.24L477.917 68.4C475.997 73.28 473.317 77.64 469.877 81.48C466.517 85.24 462.757 88.2 458.597 90.36C454.517 92.6 450.437 93.72 446.357 93.72ZM486.678 92.28C481.558 92.28 477.598 90.88 474.798 88.08C472.078 85.36 470.718 81.92 470.718 77.76C470.718 74.24 471.598 70.52 473.358 66.6C475.198 62.6 477.638 58.88 480.678 55.44C483.718 51.92 487.078 49.08 490.758 46.92C494.438 44.76 498.118 43.68 501.798 43.68C503.878 43.68 505.838 44.24 507.678 45.36C509.598 46.4 510.558 48.52 510.558 51.72C510.558 54.76 509.678 57.6 507.918 60.24C506.158 62.88 503.798 65.24 500.838 67.32C497.878 69.4 494.598 71.12 490.998 72.48C487.478 73.76 483.918 74.6 480.318 75C480.238 75.32 480.158 75.68 480.078 76.08C480.078 76.4 480.078 76.96 480.078 77.76C480.078 78.16 480.118 78.88 480.198 79.92C480.358 80.88 480.718 81.92 481.278 83.04C481.838 84.16 482.758 85.12 484.038 85.92C485.318 86.72 487.078 87.12 489.318 87.12C492.678 87.12 496.038 86.2 499.398 84.36C502.838 82.44 506.038 79.92 508.998 76.8C512.038 73.68 514.558 70.2 516.558 66.36L518.958 68.28C516.798 73.08 513.998 77.28 510.558 80.88C507.198 84.48 503.438 87.28 499.278 89.28C495.198 91.28 490.998 92.28 486.678 92.28ZM481.638 70.56C483.718 70.32 486.038 69.6 488.598 68.4C491.158 67.2 493.598 65.68 495.918 63.84C498.318 62 500.278 60 501.798 57.84C503.318 55.6 504.078 53.36 504.078 51.12C504.078 50.24 503.918 49.64 503.598 49.32C503.278 49 502.758 48.84 502.038 48.84C500.198 48.84 498.278 49.52 496.278 50.88C494.278 52.16 492.318 53.88 490.398 56.04C488.478 58.12 486.758 60.44 485.238 63C483.718 65.56 482.518 68.08 481.638 70.56ZM527.696 93.12C523.696 93.12 520.456 92.28 517.976 90.6C515.576 89 513.856 86.96 512.816 84.48C511.776 81.92 511.256 79.32 511.256 76.68C511.256 74.36 511.576 72.56 512.216 71.28C512.856 70 513.656 69.08 514.616 68.52C515.576 67.88 516.456 67.4 517.256 67.08C518.136 66.76 518.776 66.4 519.176 66C521.176 63.92 523.216 61.52 525.296 58.8C527.456 56 529.296 52.92 530.816 49.56V48.36C530.816 45.16 531.336 42.92 532.376 41.64C533.496 40.28 534.776 39.6 536.216 39.6C537.176 39.6 537.856 39.84 538.256 40.32C538.736 40.8 539.016 41.36 539.096 42C539.096 42.48 538.976 43.04 538.736 43.68C538.576 44.32 538.496 45.2 538.496 46.32C538.496 48.72 539.056 51.48 540.176 54.6C541.376 57.64 542.536 60.88 543.656 64.32C544.856 67.76 545.456 71.28 545.456 74.88C545.456 75.84 545.416 76.72 545.336 77.52C545.256 78.32 545.136 79.08 544.976 79.8C547.456 79.16 549.896 77.8 552.296 75.72C554.696 73.56 556.976 70.4 559.136 66.24L560.576 67.32C559.056 71.88 556.856 75.56 553.976 78.36C551.096 81.08 547.736 82.76 543.896 83.4C542.616 86.68 540.496 89.12 537.536 90.72C534.656 92.32 531.376 93.12 527.696 93.12ZM526.856 87.84C528.456 87.84 529.936 87.44 531.296 86.64C532.656 85.84 533.736 84.68 534.536 83.16C531.256 82.44 528.296 81.16 525.656 79.32C523.016 77.48 520.976 75.6 519.536 73.68C518.416 73.92 517.856 75 517.856 76.92C517.856 79.56 518.616 82.04 520.136 84.36C521.656 86.68 523.896 87.84 526.856 87.84ZM535.496 79.56C535.656 79 535.736 78.36 535.736 77.64C535.816 76.84 535.856 76.24 535.856 75.84C535.776 72.24 535.296 68.68 534.416 65.16C533.536 61.64 532.656 58.04 531.776 54.36C530.336 56.84 528.656 59.52 526.736 62.4C524.816 65.28 523.016 67.6 521.336 69.36C522.616 71.52 524.496 73.56 526.976 75.48C529.456 77.4 532.296 78.76 535.496 79.56Z" fill="#E1CFDB"/>
</svg>
