<svg width="561" height="98" viewBox="0 0 561 98" fill="none" xmlns="http://www.w3.org/2000/svg"><path opacity=".6" d="M25.313 97.44c-4.64 0-8.88-1.24-12.72-3.72-3.84-2.4-6.88-5.84-9.12-10.32-2.24-4.48-3.36-9.84-3.36-16.08 0-6.16.96-12.36 2.88-18.6a82.102 82.102 0 0 1 7.92-18c3.36-5.76 7.28-10.88 11.76-15.36 4.48-4.56 9.24-8.12 14.28-10.68 5.12-2.64 10.36-3.96 15.72-3.96.8 0 1.96.16 3.48.48 1.6.32 3.16 1.28 4.68 2.88-.48-.08-1.04-.12-1.68-.12-.56-.08-1.16-.12-1.8-.12-4.16 0-8.36 1.32-12.6 3.96-4.24 2.56-8.28 6.04-12.12 10.44-3.84 4.4-7.28 9.4-10.32 15a90.185 90.185 0 0 0-7.08 17.28c-1.76 6-2.64 11.84-2.64 17.52 0 4.16.56 8.04 1.68 11.64 1.12 3.6 2.92 6.48 5.4 8.64 2.48 2.24 5.76 3.36 9.84 3.36 4.4 0 8.52-1.32 12.36-3.96 3.84-2.64 7.32-6.16 10.44-10.56 3.12-4.48 5.8-9.44 8.04-14.88a98.157 98.157 0 0 0 5.16-16.92c1.2-5.84 1.8-11.4 1.8-16.68 0-2.32-.16-4.8-.48-7.44-.32-2.72-.88-5.04-1.68-6.96-.72-1.92-1.8-2.88-3.24-2.88-1.36 0-2.84.88-4.44 2.64-1.6 1.68-3.16 3.84-4.68 6.48a68.044 68.044 0 0 0-4.08 8.4c-1.12 2.88-1.92 5.48-2.4 7.8-2.72-.56-4.68-1.44-5.88-2.64-1.12-1.2-1.68-2.64-1.68-4.32 0-2.16.76-4.56 2.28-7.2 1.52-2.64 3.48-5.16 5.88-7.56 2.48-2.48 5.04-4.52 7.68-6.12 2.72-1.6 5.24-2.4 7.56-2.4 2.4 0 4.32.88 5.76 2.64 1.52 1.68 2.68 3.88 3.48 6.6.8 2.72 1.36 5.64 1.68 8.76.32 3.04.48 5.88.48 8.52 0 8.16-1 15.64-3 22.44-2 6.72-4.72 12.68-8.16 17.88-3.36 5.2-7.16 9.6-11.4 13.2-4.16 3.6-8.48 6.32-12.96 8.16-4.4 1.84-8.64 2.76-12.72 2.76zM83.09 90.6c-2.72 0-4.96-1.24-6.72-3.72-1.68-2.56-2.52-5.48-2.52-8.76 0-2.24.36-4.88 1.08-7.92.72-3.04 1.64-6 2.76-8.88 1.2-2.88 2.4-5.28 3.6-7.2 1.28-1.92 2.44-2.88 3.48-2.88.56 0 1.4.32 2.52.96 1.2.56 2.24 1.28 3.12 2.16-.88 1.28-1.96 3.24-3.24 5.88-1.2 2.64-2.28 5.48-3.24 8.52-.96 3.04-1.44 5.8-1.44 8.28 0 .32.04 1.08.12 2.28.16 1.2.48 2.32.96 3.36s1.32 1.56 2.52 1.56c1.36 0 2.8-.72 4.32-2.16 1.6-1.52 3.2-3.44 4.8-5.76 1.68-2.4 3.28-4.96 4.8-7.68 1.6-2.72 3-5.36 4.2-7.92 1.28-2.56 2.32-4.72 3.12-6.48.72.08 1.64.28 2.76.6 1.2.32 2.24.76 3.12 1.32.88.48 1.32 1.2 1.32 2.16 0 .24-.4 1.24-1.2 3-.72 1.68-1.6 3.72-2.64 6.12-.96 2.4-1.84 4.88-2.64 7.44-.72 2.48-1.08 4.68-1.08 6.6 0 1.12.2 2.12.6 3 .48.8 1.36 1.2 2.64 1.2 1.68 0 3.68-.76 6-2.28 2.32-1.52 4.72-3.72 7.2-6.6 2.48-2.88 4.68-6.32 6.6-10.32l1.8 1.44c-1.76 4.32-4.04 8.2-6.84 11.64-2.8 3.44-5.8 6.12-9 8.04-3.2 2-6.32 3-9.36 3-2.32 0-4.08-.56-5.28-1.68-1.12-1.04-1.88-2.4-2.28-4.08-.4-1.76-.64-3.52-.72-5.28v-2.4a82.711 82.711 0 0 1-4.44 6.36c-1.6 2-3.32 3.68-5.16 5.04-1.76 1.36-3.64 2.04-5.64 2.04zm66.049-.48c-2.96 0-5.36-.8-7.2-2.4-1.84-1.52-2.76-3.6-2.76-6.24 0-2.24.56-4.64 1.68-7.2 1.12-2.56 2.24-5.08 3.36-7.56 1.2-2.48 1.8-4.68 1.8-6.6 0-1.84-.6-3.36-1.8-4.56-1.2-1.28-2.6-2.32-4.2-3.12-1.76 4.4-3.76 8.68-6 12.84-2.16 4.08-3.92 7.28-5.28 9.6l-1.8-3.48c1.12-2.08 2.6-5.04 4.44-8.88 1.84-3.84 3.6-8.12 5.28-12.84-.8-.8-1.2-1.88-1.2-3.24 0-2.08.64-4.04 1.92-5.88 1.28-1.84 2.52-2.76 3.72-2.76.96 0 1.64.56 2.04 1.68.48 1.04.72 1.76.72 2.16 0 .4-.2 1.12-.6 2.16-.32 1.04-.56 1.8-.72 2.28.08.88.76 1.76 2.039 2.64 1.361.8 2.881 1.76 4.561 2.88 1.68 1.12 3.16 2.52 4.44 4.2 1.28 1.68 1.92 3.8 1.92 6.36 0 2.32-.52 4.68-1.56 7.08-1.04 2.4-2.08 4.64-3.12 6.72s-1.56 3.88-1.56 5.4c0 1.12.28 1.88.84 2.28.64.32 1.36.48 2.16.48 1.92 0 3.92-.56 6-1.68 2.08-1.2 4.12-2.72 6.12-4.56 2-1.84 3.76-3.76 5.28-5.76 1.52-2.08 2.68-3.96 3.48-5.64l2.88 2.16c-1.52 3.44-3.72 6.84-6.6 10.2-2.88 3.28-6.08 6-9.6 8.16-3.52 2.08-7.08 3.12-10.68 3.12zm80.525 7.32c-4.64 0-9.08-.8-13.32-2.4-4.16-1.6-7.56-4.04-10.2-7.32-2.64-3.28-3.96-7.36-3.96-12.24 0-4.32.96-7.68 2.88-10.08 1.92-2.48 4.32-4.2 7.2-5.16s5.68-1.44 8.4-1.44c-2.56 2.72-4.52 5.52-5.88 8.4-1.28 2.88-1.92 5.64-1.92 8.28 0 2.72.68 5.28 2.04 7.68 1.44 2.32 3.56 4.2 6.36 5.64 2.8 1.52 6.28 2.28 10.44 2.28 3.6 0 7.08-.6 10.44-1.8 3.44-1.2 6.24-3 8.4-5.4 2.24-2.4 3.36-5.4 3.36-9 0-3.28-.96-6.08-2.88-8.4-1.84-2.4-4.24-4.52-7.2-6.36-2.96-1.92-6.08-3.72-9.36-5.4-3.28-1.76-6.4-3.64-9.36-5.64-2.96-2-5.4-4.32-7.32-6.96-1.84-2.64-2.76-5.8-2.76-9.48 0-3.28.8-6.76 2.4-10.44 1.68-3.76 4.04-7.28 7.08-10.56 3.04-3.28 6.72-5.92 11.04-7.92 4.32-2.08 9.12-3.12 14.4-3.12 5.52 0 9.4 1.16 11.64 3.48 2.24 2.32 3.36 5.36 3.36 9.12 0 2.96-.52 6.12-1.56 9.48a63.227 63.227 0 0 1-3.84 9.6c-1.44 3.04-2.84 5.64-4.2 7.8-1.76-.4-3.08-1.08-3.96-2.04-.88-1.04-1.32-2.4-1.32-4.08 0-1.68.32-3.56.96-5.64.72-2.08 1.52-4.24 2.4-6.48.96-2.24 1.76-4.4 2.4-6.48.72-2.16 1.08-4.04 1.08-5.64 0-1.44-.44-2.56-1.32-3.36-.8-.8-2.48-1.2-5.04-1.2-3.84 0-7.36.84-10.56 2.52-3.2 1.68-6 3.8-8.4 6.36-2.32 2.56-4.12 5.28-5.4 8.16-1.28 2.8-1.92 5.36-1.92 7.68 0 2.88.92 5.36 2.76 7.44 1.84 2 4.2 3.84 7.08 5.52 2.96 1.68 6.04 3.36 9.24 5.04 3.28 1.68 6.36 3.56 9.24 5.64 2.96 2.08 5.36 4.56 7.2 7.44 1.84 2.88 2.76 6.4 2.76 10.56s-.96 7.84-2.88 11.04c-1.84 3.2-4.36 5.88-7.56 8.04-3.2 2.24-6.76 3.92-10.68 5.04-3.84 1.2-7.76 1.8-11.76 1.8zm54.046-5.16c-5.12 0-9.08-1.4-11.88-4.2-2.72-2.72-4.08-6.16-4.08-10.32 0-3.52.88-7.24 2.64-11.16 1.84-4 4.28-7.72 7.32-11.16 3.04-3.52 6.4-6.36 10.08-8.52 3.68-2.16 7.36-3.24 11.04-3.24 2.08 0 4.04.56 5.88 1.68 1.92 1.04 2.88 3.16 2.88 6.36 0 3.04-.88 5.88-2.64 8.52-1.76 2.64-4.12 5-7.08 7.08s-6.24 3.8-9.84 5.16A46.04 46.04 0 0 1 277.35 75c-.08.32-.16.68-.24 1.08v1.68c0 .4.04 1.12.12 2.16.16.96.52 2 1.08 3.12s1.48 2.08 2.76 2.88c1.28.8 3.04 1.2 5.28 1.2 3.36 0 6.72-.92 10.08-2.76 3.44-1.92 6.64-4.44 9.6-7.56a44.03 44.03 0 0 0 7.56-10.44l2.4 1.92c-2.16 4.8-4.96 9-8.4 12.6-3.36 3.6-7.12 6.4-11.28 8.4-4.08 2-8.28 3-12.6 3zm-5.04-21.72c2.08-.24 4.4-.96 6.96-2.16 2.56-1.2 5-2.72 7.32-4.56 2.4-1.84 4.36-3.84 5.88-6 1.52-2.24 2.28-4.48 2.28-6.72 0-.88-.16-1.48-.48-1.8-.32-.32-.84-.48-1.56-.48-1.84 0-3.76.68-5.76 2.04-2 1.28-3.96 3-5.88 5.16-1.92 2.08-3.64 4.4-5.16 6.96-1.52 2.56-2.72 5.08-3.6 7.56zm54.219 19.56c-2.96 0-5.36-.8-7.2-2.4-1.84-1.52-2.76-3.6-2.76-6.24 0-2.24.56-4.64 1.68-7.2 1.12-2.56 2.24-5.08 3.36-7.56 1.2-2.48 1.8-4.68 1.8-6.6 0-1.84-.6-3.36-1.8-4.56-1.2-1.28-2.6-2.32-4.2-3.12-1.76 4.4-3.76 8.68-6 12.84-2.16 4.08-3.92 7.28-5.28 9.6l-1.8-3.48c1.12-2.08 2.6-5.04 4.44-8.88 1.84-3.84 3.6-8.12 5.28-12.84-.8-.8-1.2-1.88-1.2-3.24 0-2.08.64-4.04 1.92-5.88 1.28-1.84 2.52-2.76 3.72-2.76.96 0 1.64.56 2.04 1.68.48 1.04.72 1.76.72 2.16 0 .4-.2 1.12-.6 2.16-.32 1.04-.56 1.8-.72 2.28.08.88.76 1.76 2.039 2.64 1.361.8 2.881 1.76 4.561 2.88 1.68 1.12 3.16 2.52 4.44 4.2 1.28 1.68 1.92 3.8 1.92 6.36 0 2.32-.52 4.68-1.56 7.08-1.04 2.4-2.08 4.64-3.12 6.72s-1.56 3.88-1.56 5.4c0 1.12.28 1.88.84 2.28.64.32 1.36.48 2.16.48 1.92 0 3.92-.56 6-1.68 2.08-1.2 4.12-2.72 6.12-4.56 2-1.84 3.76-3.76 5.28-5.76 1.52-2.08 2.68-3.96 3.48-5.64l2.88 2.16c-1.52 3.44-3.72 6.84-6.6 10.2-2.88 3.28-6.08 6-9.6 8.16-3.52 2.08-7.08 3.12-10.68 3.12zm30.273 1.56c-2.96 0-5.04-1.36-6.24-4.08-1.12-2.64-1.68-6.08-1.68-10.32 0-.88.04-2.44.12-4.68.08-2.32.2-5.52.36-9.6.08-2.4.32-4.04.72-4.92.48-.88 1.76-1.32 3.84-1.32 1.92 0 3.04.4 3.36 1.2.4.72.6 2.24.6 4.56 0 2.4-.12 4.96-.36 7.68-.16 2.72-.24 5.36-.24 7.92 0 2.48.12 4.32.36 5.52.24 1.12.84 1.68 1.8 1.68 1.44 0 3-.76 4.68-2.28 1.68-1.6 3.36-3.6 5.04-6 1.76-2.48 3.4-5.12 4.92-7.92 1.6-2.88 3-5.64 4.2-8.28.16-5.44.8-9.08 1.92-10.92 1.12-1.84 2.56-2.76 4.32-2.76 2 0 3.36.64 4.08 1.92.72 1.28 1.08 2.4 1.08 3.36 0 1.2-.32 2.28-.96 3.24-.64.96-1.28 2.28-1.92 3.96-.64 1.68-.96 4.24-.96 7.68 0 1.12.08 2.36.24 3.72.24 1.28.72 2.4 1.44 3.36.8.88 1.96 1.32 3.48 1.32 1.6 0 3.12-.64 4.56-1.92 1.52-1.36 3.12-3.68 4.8-6.96l1.32 1.08c-1.84 4.4-3.92 7.48-6.24 9.24-2.24 1.76-4.4 2.64-6.48 2.64-2.64 0-4.8-1.04-6.48-3.12-1.6-2.16-2.84-4.84-3.72-8.04-1.92 3.6-4.12 7.16-6.6 10.68-2.4 3.52-4.92 6.44-7.56 8.76-2.64 2.4-5.24 3.6-7.8 3.6zM413.1 90.6c-3.52 0-6.16-1.04-7.92-3.12-1.76-2.08-2.64-4.6-2.64-7.56 0-1.84.32-4.16.96-6.96.64-2.8 1.52-5.72 2.64-8.76 1.2-3.12 2.56-6.04 4.08-8.76 1.52-2.72 3.16-4.92 4.92-6.6 1.76-1.76 3.52-2.64 5.28-2.64.96 0 1.8.28 2.52.84.72.56 1.08 1.44 1.08 2.64 0 1.04-.64 2.6-1.92 4.68-1.2 2.08-2.64 4.48-4.32 7.2-1.6 2.72-3.04 5.56-4.32 8.52-1.2 2.88-1.8 5.64-1.8 8.28 0 2.56.44 4.28 1.32 5.16.96.8 2.32 1.2 4.08 1.2 2.72 0 5.68-1.36 8.88-4.08 3.2-2.72 6.52-7.48 9.96-14.28l1.8 1.92c-2.8 7.04-6.36 12.52-10.68 16.44-4.32 3.92-8.96 5.88-13.92 5.88zm14.16-54.12c-1.52 0-2.92-.36-4.2-1.08-1.2-.8-1.8-2-1.8-3.6 0-1.92 1.04-3.56 3.12-4.92 2.08-1.36 4.24-2.04 6.48-2.04 1.44 0 2.64.32 3.6.96 1.04.64 1.56 1.8 1.56 3.48s-.92 3.32-2.76 4.92c-1.84 1.52-3.84 2.28-6 2.28zm19.097 57.24c-4.16 0-7.6-1.32-10.32-3.96-2.64-2.56-3.96-6.52-3.96-11.88 0-3.92.76-7.76 2.28-11.52 1.52-3.76 3.56-7.12 6.12-10.08 2.56-3.04 5.4-5.44 8.52-7.2 3.2-1.76 6.44-2.64 9.72-2.64 3.36 0 5.76.84 7.2 2.52 1.52 1.68 2.28 3.64 2.28 5.88 0 2.24-.56 4.44-1.68 6.6-1.04 2.08-2.48 3.12-4.32 3.12-1.52 0-2.76-.76-3.72-2.28.8-.56 1.64-1.6 2.52-3.12.88-1.52 1.32-3.48 1.32-5.88 0-.64-.16-1.12-.48-1.44-.32-.4-.92-.6-1.8-.6-2 0-4.12.92-6.36 2.76-2.16 1.76-4.2 4.08-6.12 6.96a45.28 45.28 0 0 0-4.56 9c-1.12 3.12-1.68 6-1.68 8.64 0 2.24.56 4.32 1.68 6.24 1.2 1.84 3.48 2.76 6.84 2.76 3.04 0 6.2-.88 9.48-2.64 3.28-1.76 6.36-4.2 9.24-7.32 2.88-3.2 5.2-7 6.96-11.4l2.4 2.16c-1.92 4.88-4.6 9.24-8.04 13.08-3.36 3.76-7.12 6.72-11.28 8.88-4.08 2.24-8.16 3.36-12.24 3.36zm40.321-1.44c-5.12 0-9.08-1.4-11.88-4.2-2.72-2.72-4.08-6.16-4.08-10.32 0-3.52.88-7.24 2.64-11.16 1.84-4 4.28-7.72 7.32-11.16 3.04-3.52 6.4-6.36 10.08-8.52 3.68-2.16 7.36-3.24 11.04-3.24 2.08 0 4.04.56 5.88 1.68 1.92 1.04 2.88 3.16 2.88 6.36 0 3.04-.88 5.88-2.64 8.52-1.76 2.64-4.12 5-7.08 7.08s-6.24 3.8-9.84 5.16a46.04 46.04 0 0 1-10.68 2.52c-.08.32-.16.68-.24 1.08v1.68c0 .4.04 1.12.12 2.16.16.96.52 2 1.08 3.12s1.48 2.08 2.76 2.88c1.28.8 3.04 1.2 5.28 1.2 3.36 0 6.72-.92 10.08-2.76 3.44-1.92 6.64-4.44 9.6-7.56a44.03 44.03 0 0 0 7.56-10.44l2.4 1.92c-2.16 4.8-4.96 9-8.4 12.6-3.36 3.6-7.12 6.4-11.28 8.4-4.08 2-8.28 3-12.6 3zm-5.04-21.72c2.08-.24 4.4-.96 6.96-2.16 2.56-1.2 5-2.72 7.32-4.56 2.4-1.84 4.36-3.84 5.88-6 1.52-2.24 2.28-4.48 2.28-6.72 0-.88-.16-1.48-.48-1.8-.32-.32-.84-.48-1.56-.48-1.84 0-3.76.68-5.76 2.04-2 1.28-3.96 3-5.88 5.16-1.92 2.08-3.64 4.4-5.16 6.96-1.52 2.56-2.72 5.08-3.6 7.56zm46.058 22.56c-4 0-7.24-.84-9.72-2.52-2.4-1.6-4.12-3.64-5.16-6.12-1.04-2.56-1.56-5.16-1.56-7.8 0-2.32.32-4.12.96-5.4.64-1.28 1.44-2.2 2.4-2.76.96-.64 1.84-1.12 2.64-1.44.88-.32 1.52-.68 1.92-1.08 2-2.08 4.04-4.48 6.12-7.2 2.16-2.8 4-5.88 5.52-9.24v-1.2c0-3.2.52-5.44 1.56-6.72 1.12-1.36 2.4-2.04 3.84-2.04.96 0 1.64.24 2.04.72.48.48.76 1.04.84 1.68 0 .48-.12 1.04-.36 1.68-.16.64-.24 1.52-.24 2.64 0 2.4.56 5.16 1.68 8.28a169 169 0 0 1 3.48 9.72c1.2 3.44 1.8 6.96 1.8 10.56 0 .96-.04 1.84-.12 2.64-.08.8-.2 1.56-.36 2.28 2.48-.64 4.92-2 7.32-4.08 2.4-2.16 4.68-5.32 6.84-9.48l1.44 1.08c-1.52 4.56-3.72 8.24-6.6 11.04-2.88 2.72-6.24 4.4-10.08 5.04-1.28 3.28-3.4 5.72-6.36 7.32-2.88 1.6-6.16 2.4-9.84 2.4zm-.84-5.28c1.6 0 3.08-.4 4.44-1.2 1.36-.8 2.44-1.96 3.24-3.48-3.28-.72-6.24-2-8.88-3.84-2.64-1.84-4.68-3.72-6.12-5.64-1.12.24-1.68 1.32-1.68 3.24 0 2.64.76 5.12 2.28 7.44 1.52 2.32 3.76 3.48 6.72 3.48zm8.64-8.28c.16-.56.24-1.2.24-1.92.08-.8.12-1.4.12-1.8-.08-3.6-.56-7.16-1.44-10.68-.88-3.52-1.76-7.12-2.64-10.8-1.44 2.48-3.12 5.16-5.04 8.04-1.92 2.88-3.72 5.2-5.4 6.96 1.28 2.16 3.16 4.2 5.64 6.12 2.48 1.92 5.32 3.28 8.52 4.08z" fill="#E1CFDB"/></svg>