<svg width="1692" height="1060" viewBox="0 0 1692 1060" fill="none" xmlns="http://www.w3.org/2000/svg">
<path fill-rule="evenodd" clip-rule="evenodd" d="M949.752 -173.618C1101.58 -165.247 1208.79 -34.2715 1329.74 57.8089C1452.68 151.406 1614.97 219.113 1659.74 366.909C1704.66 515.231 1594.88 658.37 1557.16 808.675C1513.37 983.182 1441.87 1097.25 1296.85 1203.9C1152.39 1310.14 1069 1344.31 896.726 1294.38C757.632 1254.06 583.797 1180.12 458.207 1108.06C300.997 1017.85 155.894 979.734 70.2011 820.13C-16.6119 658.438 32.113 444.196 125.106 285.984C211.462 139.063 394.806 97.4824 543.744 14.4743C677.289 -59.9547 797.057 -182.037 949.752 -173.618Z" fill="#FFE7E3"/>
</svg>
