<svg width="284" height="80" viewBox="0 0 284 80" fill="none" xmlns="http://www.w3.org/2000/svg">
<path d="M20.1139 79.8697C19.5814 79.9004 18.8846 79.8604 18.0235 79.7498C17.1624 79.6392 16.2654 79.3704 15.3326 78.9434C14.4561 78.5665 13.6974 77.9158 13.0565 76.9911C12.4155 76.0665 12.049 74.8055 11.9569 73.2082C11.8801 71.877 12.0466 70.1312 12.4562 67.9707C12.8628 65.757 13.5853 62.5367 14.6237 58.3099C15.401 55.1132 16.1547 51.9713 16.8849 48.8842C17.6652 45.7407 18.253 42.5015 18.6484 39.1665C19.097 35.8285 19.2138 32.2959 18.9989 28.5688C18.8731 26.3857 18.634 24.5565 18.2818 23.081C17.9297 21.6054 17.3594 20.5165 16.5709 19.814C15.8327 19.0553 14.8247 18.7127 13.5468 18.7864C12.2689 18.8601 11.1707 19.2706 10.2522 20.0181C9.33372 20.7655 8.58877 21.7434 8.01737 22.9516C7.44291 24.1066 7.03585 25.3855 6.7962 26.7883C6.55656 28.191 6.47664 29.5846 6.55646 30.969C6.69155 33.3118 7.20294 35.2322 8.09065 36.7302C5.48165 36.8807 3.55615 36.3773 2.31415 35.2202C1.07215 34.0632 0.398959 32.5794 0.294576 30.7691C0.202473 29.1718 0.506637 27.4982 1.20707 25.7483C1.9075 23.9984 2.90999 22.3913 4.21453 20.9272C5.56925 19.4066 7.15384 18.1667 8.96829 17.2073C10.7797 16.1947 12.7503 15.627 14.8801 15.5042C18.5007 15.2954 21.3196 16.4685 23.3366 19.0232C25.407 21.575 26.5834 25.3001 26.8658 30.1986C27.0776 33.8725 26.7929 37.7353 26.0115 41.787C25.2802 45.7824 24.3043 50.1659 23.0836 54.9374C22.6494 56.6719 22.1194 58.5989 21.4937 60.7185C20.9182 62.7817 20.4005 64.9217 19.9407 67.1385C19.5311 69.299 19.3877 71.4442 19.5105 73.574C19.5688 74.5856 19.7152 75.2717 19.9497 75.6321C20.2404 76.0427 20.7319 76.228 21.4241 76.1881C22.8617 76.1052 24.3439 75.4054 25.8706 74.0887C27.4506 72.7689 29.006 71.0231 30.5369 68.8514C32.0678 66.6797 33.5049 64.273 34.8484 61.6312C36.2452 58.9864 37.5057 56.2961 38.6301 53.5602C39.7514 50.771 40.6689 48.1538 41.3827 45.7087C42.0934 43.2103 42.5297 41.0483 42.6915 39.2226C44.7148 39.1059 46.3178 39.5744 47.5004 40.6281C48.683 41.6818 49.3035 42.7144 49.3618 43.7261C49.3925 44.2585 49.2051 45.1775 48.7996 46.483C48.4473 47.7855 47.8108 49.7186 46.8902 52.2826C46.155 54.355 45.4008 56.5621 44.6276 58.9038C43.8514 61.1923 43.2083 63.4731 42.6983 65.7462C42.2385 67.963 42.0638 70.0298 42.1744 71.9466C42.2358 73.0115 42.4134 73.7759 42.7072 74.2398C43.0544 74.7005 43.6272 74.9079 44.4259 74.8619C45.9168 74.7759 47.5776 73.9322 49.4085 72.3308C51.2956 70.7796 53.2054 68.6929 55.1376 66.0707C57.0668 63.3952 58.9259 60.4299 60.7148 57.1749C62.5006 53.8666 64.094 50.4626 65.4949 46.9628C66.8957 43.463 67.9536 40.0364 68.6684 36.6831C69.4364 33.3266 69.7422 30.2906 69.5856 27.5752C69.4168 24.6467 68.7646 22.6008 67.6291 21.4376C66.5468 20.2713 65.2183 19.4664 63.6435 19.023C64.5128 17.4237 65.46 16.2472 66.485 15.4936C67.5602 14.6837 68.5237 14.2542 69.3756 14.2051C70.6003 14.1345 71.8976 14.861 73.2676 16.3846C74.6877 17.852 75.4945 20.2629 75.6879 23.6173C75.8506 26.4393 75.4788 29.7195 74.5725 33.4578C73.7195 37.1931 72.4496 41.1127 70.7631 45.2166C69.1267 49.2642 67.1929 53.2488 64.9616 57.1704C62.7805 61.0357 60.393 64.5657 57.7993 67.7603C55.2588 70.9518 52.6548 73.5059 49.9874 75.4226C47.3231 77.3926 44.7396 78.4497 42.2371 78.594C40.8528 78.6739 39.5846 78.4532 38.4327 77.9319C37.3371 77.4609 36.4391 76.7113 35.7388 75.6833C35.0948 74.7054 34.7328 73.5243 34.653 72.1399C34.6162 71.501 34.6577 70.8308 34.7775 70.1294C34.8973 69.428 35.0438 68.7251 35.2168 68.0206C32.7982 71.4722 30.3145 74.2598 27.7659 76.3834C25.2735 78.5571 22.7229 79.7192 20.1139 79.8697ZM83.7848 72.7527C80.3771 72.9492 77.6877 72.1694 75.7167 70.4133C73.802 68.7073 72.7648 66.47 72.6052 63.7012C72.4701 61.3585 72.913 58.8488 73.934 56.1723C75.0051 53.4394 76.4863 50.8699 78.3776 48.4637C80.2658 46.0042 82.3931 43.9851 84.7595 42.4063C87.1259 40.8274 89.5337 39.9674 91.983 39.8262C93.3673 39.7464 94.6933 40.0439 95.9609 40.7187C97.2787 41.3372 97.999 42.7113 98.1218 44.8411C98.2385 46.8644 97.7618 48.7884 96.6917 50.613C95.6216 52.4376 94.1415 54.0989 92.2512 55.5969C90.361 57.0949 88.244 58.3655 85.9001 59.4088C83.6065 60.3958 81.2693 61.0915 78.8887 61.4959C78.8477 61.7119 78.8083 61.9546 78.7704 62.2239C78.7826 62.4369 78.8041 62.8096 78.8348 63.342C78.8502 63.6083 78.9044 64.0859 78.9976 64.775C79.1409 65.4078 79.4204 66.0862 79.8361 66.8102C80.2518 67.5341 80.901 68.1377 81.7836 68.621C82.6662 69.1044 83.853 69.3031 85.3438 69.2171C87.5801 69.0882 89.7811 68.3469 91.9468 66.9933C94.1626 65.5834 96.1957 63.7834 98.046 61.5933C99.9496 59.4001 101.493 56.9872 102.677 54.3547L104.348 55.5405C103.095 58.818 101.392 61.7209 99.2409 64.2489C97.1427 66.7739 94.7477 68.7817 92.0557 70.2725C89.417 71.7602 86.66 72.5869 83.7848 72.7527ZM79.5968 58.4901C80.972 58.2506 82.4884 57.6823 84.1462 56.7854C85.804 55.8885 87.3696 54.7832 88.8431 53.4696C90.3699 52.1528 91.5976 50.7465 92.5264 49.2505C93.4521 47.7013 93.8719 46.1813 93.786 44.6905C93.7522 44.1048 93.6227 43.7116 93.3974 43.5109C93.1722 43.3102 92.8199 43.2236 92.3407 43.2513C91.1161 43.3219 89.8643 43.8481 88.5854 44.8301C87.3034 45.7587 86.0649 46.9787 84.8699 48.49C83.6718 49.9481 82.6161 51.5582 81.7027 53.3203C80.7893 55.0825 80.0873 56.8058 79.5968 58.4901ZM108.545 70.2032C106.042 70.3475 104.238 69.6235 103.131 68.0312C102.074 66.3827 101.48 64.4136 101.348 62.1241C101.197 59.5151 101.5 56.4259 102.256 52.8565C103.011 49.287 104.051 45.541 105.374 41.6183C106.747 37.6393 108.26 33.7592 109.911 29.9778C111.613 26.1402 113.337 22.6752 115.082 19.583C116.827 16.4907 118.447 14.02 119.943 12.1708C121.489 10.2653 122.768 9.28342 123.78 9.22509C124.472 9.18518 125.079 9.52412 125.601 10.2419C126.12 10.9065 126.542 11.7369 126.867 12.7332C127.242 13.6732 127.454 14.5691 127.503 15.4211C127.586 16.8587 127.322 18.7704 126.711 21.1561C126.151 23.4856 125.285 26.073 124.114 28.9185C122.996 31.7609 121.616 34.6986 119.974 37.7314C118.383 40.7079 116.571 43.5637 114.539 46.2985C112.559 49.0303 110.4 51.4253 108.061 53.4833C107.925 54.8267 107.789 56.1701 107.653 57.5135C107.567 58.8006 107.554 59.9766 107.616 61.0415C107.726 62.9583 108.127 64.3509 108.818 65.2192C109.506 66.0343 110.356 66.4126 111.368 66.3543C112.699 66.2776 114.021 65.5869 115.335 64.2825C116.699 62.9217 117.965 61.2461 119.132 59.2556C120.35 57.2088 121.378 55.1195 122.216 52.9877L124.193 53.9154C122.177 58.7862 119.837 62.6873 117.175 65.6188C114.51 68.497 111.633 70.0251 108.545 70.2032ZM109.214 48.4486C110.91 46.3742 112.491 44.1461 113.957 41.7645C115.472 39.3266 116.826 36.8712 118.019 34.3984C119.266 31.9226 120.33 29.5374 121.213 27.2427C122.095 24.9481 122.752 22.9069 123.183 21.1191C123.665 19.275 123.901 17.819 123.893 16.751C123.89 16.6978 123.889 16.6712 123.889 16.6712C123.886 16.6179 123.882 16.5647 123.879 16.5114C123.453 16.536 122.797 17.1882 121.909 18.4681C121.071 19.6917 120.073 21.3786 118.915 23.5288C117.757 25.6791 116.562 28.1252 115.332 30.8673C114.154 33.6063 113.012 36.5035 111.906 39.5589C110.85 42.558 109.953 45.5212 109.214 48.4486ZM130.398 71.0266C127.629 71.1863 125.289 70.4397 123.377 68.787C121.522 67.1845 120.491 64.5995 120.286 61.0321C120.135 58.4231 120.494 55.8382 121.361 53.2774C122.228 50.7165 123.457 48.402 125.047 46.3337C126.635 44.2121 128.433 42.5058 130.442 41.2146C132.504 39.9205 134.627 39.2104 136.81 39.0846C139.046 38.9556 140.675 39.4226 141.698 40.4855C142.774 41.5453 143.356 42.8206 143.441 44.3115C143.527 45.8023 143.239 47.288 142.577 48.7686C141.964 50.1929 141.046 50.9404 139.821 51.011C138.809 51.0693 137.955 50.6111 137.258 49.6363C137.769 49.2328 138.288 48.5084 138.815 47.463C139.343 46.4176 139.56 45.0962 139.468 43.4988C139.444 43.0729 139.319 42.7596 139.093 42.5589C138.865 42.3049 138.458 42.1948 137.872 42.2286C136.541 42.3053 135.166 42.999 133.745 44.3096C132.375 45.5639 131.107 47.1863 129.939 49.1768C128.822 51.111 127.925 53.166 127.25 55.3418C126.624 57.4614 126.362 59.3997 126.463 61.1567C126.549 62.6476 127.002 64.0105 127.821 65.2454C128.69 66.424 130.243 66.9488 132.479 66.8198C134.502 66.7032 136.572 65.9962 138.687 64.6989C140.803 63.4017 142.759 61.6595 144.556 59.4724C146.35 57.2321 147.748 54.614 148.751 51.6179L150.431 52.9635C149.341 56.2851 147.724 59.2898 145.582 61.9775C143.49 64.609 141.101 66.7234 138.415 68.3206C135.786 69.968 133.113 70.87 130.398 71.0266ZM153.13 67.7927C150.734 67.9309 149.037 67.2274 148.04 65.6822C147.099 64.1872 146.575 62.5079 146.467 60.6444C146.369 58.9405 146.536 57.1947 146.967 55.4069C147.395 53.5659 148.017 51.8473 148.833 50.251C149.702 48.6516 150.67 47.3671 151.736 46.3975C152.852 45.3715 153.996 44.8248 155.167 44.7572C155.54 44.7357 155.97 44.791 156.459 44.9231C156.997 44.9989 157.381 45.1638 157.609 45.4177C157.016 46.2533 156.408 47.2767 155.783 48.488C155.212 49.6962 154.671 50.9828 154.162 52.3476C153.704 53.6562 153.353 54.9853 153.11 56.3348C152.868 57.6844 152.778 58.9182 152.843 60.0364C152.904 61.1013 153.141 61.969 153.554 62.6397C154.02 63.3074 154.759 63.612 155.77 63.5537C156.782 63.4953 157.948 62.8672 159.268 61.6692C160.638 60.415 161.919 59.0055 163.111 57.441C161.318 55.9951 159.996 54.3885 159.146 52.6212C158.294 50.8006 157.792 48.5858 157.642 45.9768C157.577 44.8587 157.77 43.5654 158.219 42.0971C158.722 40.6257 159.555 39.3223 160.718 38.1868C161.935 37.0482 163.608 36.4175 165.738 36.2947C168.027 36.1627 169.661 36.7095 170.64 37.9352C171.672 39.1578 172.239 40.6477 172.34 42.4048C172.454 44.3748 172.049 46.6152 171.125 49.1259C170.255 51.6335 169.164 54.0202 167.852 56.2862C168.509 56.5688 169.264 56.6855 170.116 56.6364C170.914 56.5904 171.862 56.3487 172.959 55.9116C174.055 55.4744 175.112 54.7991 176.127 53.8858C177.14 52.9192 177.923 51.6721 178.476 50.1444L179.973 51.0998C178.959 53.8828 177.503 55.9701 175.607 57.3615C173.76 58.6967 171.906 59.418 170.042 59.5255C169.35 59.5654 168.655 59.552 167.956 59.4855C167.255 59.3656 166.605 59.2161 166.007 59.0369C164.32 61.2711 162.351 63.2544 160.1 64.9868C157.849 66.7193 155.526 67.6545 153.13 67.7927ZM165.04 54.7655C166.21 52.8283 167.187 50.7686 167.969 48.5867C168.751 46.4047 169.09 44.4085 168.986 42.5982C168.915 41.3736 168.678 40.5058 168.275 39.9948C167.868 39.4306 167.292 39.17 166.547 39.213C165.535 39.2713 164.538 40.05 163.556 41.549C162.574 43.048 162.146 44.889 162.272 47.0721C162.337 48.1902 162.601 49.5372 163.066 51.1131C163.584 52.6859 164.242 53.9033 165.04 54.7655ZM219.341 63.8949C217.264 64.0146 215.685 63.4913 214.603 62.325C213.52 61.1587 212.93 59.7236 212.832 58.0198C212.761 56.7952 212.877 55.5598 213.179 54.3137C213.481 53.0675 213.785 51.848 214.09 50.6552C214.392 49.409 214.516 48.3068 214.46 47.3484C214.408 46.4432 214.186 45.8416 213.795 45.5437C213.454 45.1894 213.018 45.0276 212.485 45.0583C211.261 45.1289 209.877 46.1436 208.334 48.1023C206.844 50.058 205.004 52.8886 202.813 56.5942C202.035 57.9212 201.315 59.3249 200.652 60.8055C199.986 62.2329 199.388 63.4427 198.858 64.4348C198.379 64.4625 197.735 64.4194 196.927 64.3058C196.173 64.189 195.493 63.9878 194.889 63.7021C194.288 63.4696 193.974 63.1138 193.946 62.6346C193.919 62.1554 194.131 61.2082 194.584 59.7932C195.036 58.3781 195.557 56.7455 196.144 54.8952C196.729 52.9917 197.237 51.1461 197.668 49.3583C198.096 47.5173 198.275 45.9845 198.204 44.7598C198.161 44.0144 197.994 43.4364 197.704 43.0258C197.413 42.6152 196.975 42.4268 196.389 42.4605C195.271 42.525 193.951 43.2688 192.431 44.6921C190.964 46.1122 189.414 47.9645 187.783 50.2488C186.202 52.4769 184.716 54.9665 183.326 57.7178C181.985 60.4128 180.913 63.119 180.108 65.8365C179.522 65.8703 178.795 65.7786 177.928 65.5615C177.064 65.3976 176.302 65.1478 175.641 64.8119C174.984 64.5293 174.648 64.2549 174.632 63.9886C174.629 63.9354 174.772 63.1792 175.062 61.7201C175.349 60.2078 175.696 58.3447 176.102 56.131C176.509 53.9172 176.939 51.6487 177.393 49.3254C177.846 47.0021 178.237 44.9763 178.565 43.2479C178.691 42.653 179.247 42.1134 180.234 41.6291C181.218 41.0915 182.083 40.8013 182.829 40.7583C183.574 40.7153 184.227 40.9181 184.787 41.3666C185.347 41.8151 185.65 42.4387 185.696 43.2373C185.727 43.7698 185.665 44.548 185.51 45.5719C185.355 46.5958 185.155 47.756 184.909 49.0523C185.942 47.4969 187.029 45.9652 188.17 44.4569C189.362 42.8924 190.59 41.4861 191.854 40.2379C193.17 38.9867 194.474 37.9766 195.766 37.2077C197.11 36.4357 198.448 36.0113 199.779 35.9346C201.749 35.821 203.122 36.463 203.897 37.8607C204.669 39.2052 205.102 40.7027 205.197 42.3533C205.237 43.0455 205.224 43.7407 205.157 44.4391C205.088 45.0841 204.966 45.7589 204.793 46.4634C204.67 47.1115 204.475 47.8974 204.208 48.821C205.134 47.2718 206.147 45.8511 207.248 44.5589C208.399 43.2104 209.645 42.1236 210.986 41.2983C212.328 40.4731 213.77 40.0159 215.315 39.9269C217.391 39.8072 218.866 40.3632 219.738 41.595C220.607 42.7736 221.085 44.1083 221.171 45.5992C221.251 46.9836 221.095 48.4616 220.705 50.0333C220.365 51.5488 219.996 53.0125 219.596 54.4245C219.247 55.7801 219.1 56.9372 219.155 57.8956C219.186 58.428 219.348 58.9262 219.642 59.3901C219.933 59.8007 220.478 59.9829 221.276 59.9369C222.714 59.854 224.06 59.1086 225.314 57.7007C226.569 56.2929 227.7 54.5983 228.707 52.617C229.765 50.5794 230.643 48.659 231.34 46.8559L232.794 48.4548C232.068 50.687 231.079 52.9877 229.827 55.3571C228.625 57.6701 227.161 59.6243 225.437 61.2195C223.716 62.868 221.684 63.7598 219.341 63.8949ZM239.62 63.7673C236.212 63.9638 233.523 63.184 231.552 61.4279C229.637 59.7219 228.6 57.4846 228.44 54.7159C228.305 52.3731 228.748 49.8634 229.769 47.1869C230.84 44.454 232.321 41.8845 234.213 39.4783C236.101 37.0189 238.228 34.9997 240.594 33.4209C242.961 31.8421 245.369 30.982 247.818 30.8408C249.202 30.761 250.528 31.0585 251.796 31.7333C253.114 32.3518 253.834 33.7259 253.957 35.8557C254.073 37.879 253.597 39.803 252.527 41.6276C251.457 43.4523 249.976 45.1135 248.086 46.6115C246.196 48.1095 244.079 49.3801 241.735 50.4234C239.441 51.4104 237.104 52.1061 234.724 52.5105C234.683 52.7265 234.643 52.9692 234.605 53.2385C234.618 53.4515 234.639 53.8242 234.67 54.3567C234.685 54.6229 234.739 55.1005 234.833 55.7897C234.976 56.4225 235.255 57.1008 235.671 57.8248C236.087 58.5487 236.736 59.1523 237.619 59.6357C238.501 60.119 239.688 60.3177 241.179 60.2317C243.415 60.1028 245.616 59.3615 247.782 58.0079C249.998 56.598 252.031 54.798 253.881 52.6079C255.785 50.4147 257.328 48.0018 258.512 45.3693L260.183 46.5551C258.93 49.8327 257.227 52.7355 255.076 55.2635C252.978 57.7885 250.583 59.7963 247.891 61.2871C245.252 62.7748 242.495 63.6015 239.62 63.7673ZM235.432 49.5047C236.807 49.2652 238.323 48.697 239.981 47.8C241.639 46.9031 243.205 45.7978 244.678 44.4842C246.205 43.1674 247.433 41.7611 248.361 40.2651C249.287 38.716 249.707 37.1959 249.621 35.7051C249.587 35.1194 249.458 34.7262 249.232 34.5255C249.007 34.3248 248.655 34.2383 248.176 34.2659C246.951 34.3365 245.699 34.8628 244.42 35.8447C243.138 36.7733 241.9 37.9933 240.705 39.5046C239.507 40.9627 238.451 42.5728 237.538 44.3349C236.624 46.0971 235.922 47.8204 235.432 49.5047ZM265.19 34.9676C266.186 31.8651 267.231 28.6797 268.325 25.4113C269.419 22.1429 270.522 19.0343 271.634 16.0854C272.743 13.0833 273.843 10.4021 274.936 8.04196C276.026 5.62857 277.091 3.72408 278.132 2.32849C279.227 0.929825 280.28 0.201327 281.292 0.142996C281.878 0.109225 282.397 0.319661 282.851 0.774305C283.355 1.17263 283.626 1.71789 283.666 2.41007C283.709 3.1555 283.341 4.64583 282.562 6.88106C281.836 9.11322 280.842 11.7882 279.579 14.9061C278.316 18.0239 276.905 21.3374 275.344 24.8463C273.783 28.3553 272.22 31.8111 270.653 35.2136C269.083 38.5628 267.602 41.5865 266.208 44.2845C264.814 46.9825 263.653 49.0795 262.724 50.5755C262.561 50.5314 262.399 50.4874 262.236 50.4434C262.073 50.3993 261.91 50.3553 261.747 50.3112C261.721 48.9238 261.87 47.3393 262.195 45.5576C262.572 43.7729 263.029 41.957 263.563 40.1098C264.148 38.2063 264.69 36.4923 265.19 34.9676ZM260.614 59.8323C259.762 59.8814 259.004 59.7114 258.34 59.3223C257.677 58.9332 257.318 58.2594 257.262 57.301C257.204 56.2894 257.686 55.3801 258.708 54.5733C259.783 53.7634 260.959 53.3216 262.237 53.2479C263.036 53.2019 263.686 53.3514 264.186 53.6965C264.74 54.0385 265.043 54.6621 265.096 55.5672C265.148 56.4724 264.721 57.4052 263.814 58.3656C262.905 59.2728 261.838 59.7617 260.614 59.8323Z" fill="#E1CFDB"/>
</svg>
