<svg width="284" height="80" viewBox="0 0 284 80" fill="none" xmlns="http://www.w3.org/2000/svg"><path d="M20.114 79.87c-.533.03-1.23-.01-2.09-.12-.862-.11-1.759-.38-2.691-.807-.877-.376-1.636-1.027-2.277-1.952-.64-.924-1.007-2.186-1.1-3.783-.076-1.331.09-3.077.5-5.237.407-2.214 1.13-5.434 2.168-9.661.777-3.197 1.53-6.339 2.26-9.426a78.816 78.816 0 0 0 1.764-9.718c.449-3.337.566-6.87.35-10.597-.125-2.183-.364-4.012-.716-5.488-.352-1.476-.923-2.564-1.711-3.267-.738-.759-1.746-1.101-3.024-1.028-1.278.074-2.376.485-3.295 1.232-.918.747-1.663 1.725-2.235 2.934-.574 1.155-.981 2.433-1.22 3.836a18.447 18.447 0 0 0-.24 4.181c.135 2.343.646 4.263 1.534 5.761-2.61.15-4.535-.353-5.777-1.51S.4 32.58.294 30.77c-.092-1.598.213-3.272.913-5.022.7-1.75 1.703-3.357 3.008-4.82a16.882 16.882 0 0 1 4.753-3.72c1.812-1.013 3.782-1.581 5.912-1.704 3.62-.209 6.44.964 8.457 3.52 2.07 2.551 3.246 6.276 3.529 11.175.212 3.674-.073 7.536-.854 11.588-.732 3.995-1.708 8.379-2.928 13.15a144.811 144.811 0 0 1-1.59 5.782 97.893 97.893 0 0 0-1.553 6.42 26.303 26.303 0 0 0-.43 6.435c.058 1.012.204 1.698.439 2.058.29.41.782.596 1.474.556 1.438-.083 2.92-.783 4.447-2.1 1.58-1.32 3.135-3.065 4.666-5.237 1.53-2.171 2.968-4.578 4.311-7.22a92.864 92.864 0 0 0 3.782-8.07c1.121-2.79 2.039-5.407 2.753-7.852.71-2.499 1.147-4.66 1.308-6.486 2.024-.117 3.627.351 4.81 1.405 1.182 1.054 1.803 2.086 1.86 3.098.032.532-.156 1.452-.561 2.757-.353 1.303-.99 3.236-1.91 5.8-.735 2.072-1.49 4.28-2.262 6.62a66.886 66.886 0 0 0-1.93 6.843c-.46 2.217-.634 4.284-.524 6.2.062 1.066.24 1.83.533 2.294.347.46.92.668 1.719.622 1.49-.086 3.152-.93 4.982-2.531 1.888-1.551 3.797-3.638 5.73-6.26 1.929-2.676 3.788-5.641 5.577-8.896a98.685 98.685 0 0 0 4.78-10.212c1.4-3.5 2.459-6.927 3.173-10.28.768-3.356 1.074-6.392.918-9.108-.17-2.928-.821-4.974-1.957-6.137-1.082-1.167-2.41-1.972-3.986-2.415.87-1.6 1.817-2.776 2.842-3.53 1.075-.81 2.039-1.239 2.89-1.288 1.225-.07 2.523.656 3.893 2.18 1.42 1.467 2.227 3.878 2.42 7.232.163 2.822-.21 6.102-1.115 9.84-.853 3.736-2.123 7.656-3.81 11.76a99.814 99.814 0 0 1-5.801 11.953c-2.181 3.866-4.569 7.396-7.163 10.59-2.54 3.192-5.144 5.746-7.812 7.663-2.664 1.97-5.247 3.027-7.75 3.171-1.384.08-2.652-.14-3.804-.662-1.096-.471-1.994-1.22-2.694-2.249-.644-.978-1.006-2.159-1.086-3.543a8.895 8.895 0 0 1 .125-2.01c.12-.702.266-1.405.439-2.11-2.419 3.452-4.902 6.24-7.451 8.363-2.492 2.174-5.043 3.336-7.652 3.487zm63.67-7.117c-3.407.196-6.096-.584-8.067-2.34-1.915-1.706-2.952-3.943-3.112-6.712-.135-2.343.308-4.852 1.329-7.529 1.071-2.733 2.552-5.302 4.444-7.708 1.888-2.46 4.015-4.479 6.382-6.058 2.366-1.579 4.774-2.439 7.223-2.58 1.384-.08 2.71.218 3.978.893 1.318.618 2.038 1.992 2.16 4.122.118 2.023-.36 3.947-1.43 5.772-1.07 1.825-2.55 3.486-4.44 4.984-1.89 1.498-4.007 2.768-6.35 3.812a30.694 30.694 0 0 1-7.012 2.087c-.041.216-.08.459-.119.728l.065 1.118c.015.266.07.744.163 1.433.143.633.422 1.311.838 2.035.416.724 1.065 1.328 1.948 1.811.882.483 2.069.682 3.56.596 2.236-.129 4.437-.87 6.603-2.224 2.216-1.41 4.249-3.21 6.099-5.4a29.36 29.36 0 0 0 4.631-7.238l1.671 1.186c-1.253 3.277-2.956 6.18-5.107 8.708-2.098 2.525-4.493 4.533-7.185 6.023-2.639 1.488-5.396 2.315-8.271 2.48zM79.598 58.49c1.375-.24 2.891-.808 4.55-1.705a24.746 24.746 0 0 0 4.696-3.315c1.527-1.317 2.755-2.724 3.683-4.22.926-1.549 1.346-3.069 1.26-4.56-.034-.585-.163-.978-.389-1.18-.225-.2-.577-.286-1.056-.259-1.225.07-2.477.597-3.756 1.58-1.282.928-2.52 2.148-3.715 3.659a27.546 27.546 0 0 0-3.167 4.83c-.914 1.763-1.616 3.486-2.106 5.17zm28.948 11.713c-2.503.144-4.307-.58-5.414-2.172-1.057-1.648-1.651-3.617-1.783-5.907-.151-2.609.152-5.698.908-9.268.755-3.569 1.795-7.315 3.118-11.238a157.349 157.349 0 0 1 4.537-11.64c1.702-3.838 3.426-7.303 5.171-10.395 1.745-3.092 3.365-5.563 4.861-7.412 1.546-1.906 2.825-2.888 3.837-2.946.692-.04 1.299.3 1.821 1.017.519.664.941 1.495 1.266 2.491.375.94.587 1.836.636 2.688.083 1.438-.181 3.35-.792 5.735-.56 2.33-1.426 4.917-2.597 7.763-1.118 2.842-2.498 5.78-4.14 8.812a68.462 68.462 0 0 1-5.435 8.567c-1.98 2.732-4.139 5.127-6.478 7.185l-.408 4.03a28.45 28.45 0 0 0-.037 3.529c.11 1.916.511 3.309 1.202 4.177.688.815 1.538 1.194 2.55 1.135 1.331-.076 2.653-.767 3.967-2.072 1.364-1.36 2.63-3.036 3.797-5.026a43.043 43.043 0 0 0 3.084-6.268l1.977.927c-2.016 4.871-4.356 8.772-7.018 11.704-2.665 2.878-5.542 4.406-8.63 4.584zm.669-21.754a61.348 61.348 0 0 0 4.743-6.684 78.978 78.978 0 0 0 4.062-7.367 79.136 79.136 0 0 0 3.194-7.155c.882-2.295 1.539-4.336 1.97-6.124.482-1.844.718-3.3.71-4.368l-.004-.08-.01-.16c-.426.025-1.082.677-1.97 1.957-.838 1.224-1.836 2.91-2.994 5.06-1.158 2.151-2.353 4.597-3.583 7.34a158.933 158.933 0 0 0-3.426 8.69c-1.056 3-1.953 5.963-2.692 8.89zm21.184 22.578c-2.769.16-5.109-.587-7.021-2.24-1.855-1.603-2.886-4.188-3.091-7.755-.151-2.609.208-5.194 1.075-7.755.867-2.56 2.096-4.875 3.686-6.943 1.588-2.122 3.386-3.828 5.395-5.12 2.062-1.294 4.185-2.004 6.368-2.13 2.236-.128 3.865.339 4.888 1.401 1.076 1.06 1.658 2.336 1.743 3.827.086 1.49-.202 2.976-.864 4.457-.613 1.424-1.531 2.171-2.756 2.242-1.012.058-1.866-.4-2.563-1.375.511-.403 1.03-1.128 1.557-2.173.528-1.045.745-2.367.653-3.964-.024-.426-.149-.74-.375-.94-.228-.254-.635-.364-1.221-.33-1.331.076-2.706.77-4.127 2.08-1.37 1.255-2.638 2.877-3.806 4.868a30.148 30.148 0 0 0-2.689 6.165c-.626 2.12-.888 4.058-.787 5.815a8.115 8.115 0 0 0 1.358 4.088c.869 1.179 2.422 1.704 4.658 1.575 2.023-.117 4.093-.824 6.208-2.121 2.116-1.297 4.072-3.04 5.869-5.227 1.794-2.24 3.192-4.858 4.195-7.854l1.68 1.346a28.696 28.696 0 0 1-4.849 9.014c-2.092 2.631-4.481 4.745-7.167 6.343-2.629 1.647-5.302 2.549-8.017 2.706zm22.732-3.234c-2.396.138-4.093-.566-5.09-2.11-.941-1.496-1.465-3.175-1.573-5.039-.098-1.703.069-3.45.5-5.237a22.444 22.444 0 0 1 1.866-5.156c.869-1.6 1.837-2.884 2.903-3.853 1.116-1.027 2.26-1.573 3.431-1.64.373-.022.803.033 1.292.165.538.076.922.24 1.15.495-.593.835-1.201 1.859-1.826 3.07a49.585 49.585 0 0 0-1.621 3.86 26.003 26.003 0 0 0-1.052 3.987c-.242 1.35-.332 2.583-.267 3.701.061 1.065.298 1.933.711 2.604.466.667 1.205.972 2.216.914 1.012-.059 2.178-.687 3.498-1.885a32.023 32.023 0 0 0 3.843-4.228c-1.793-1.446-3.115-3.053-3.965-4.82-.852-1.82-1.354-4.035-1.504-6.644-.065-1.118.128-2.412.577-3.88.503-1.471 1.336-2.775 2.499-3.91 1.217-1.139 2.89-1.77 5.02-1.892 2.289-.132 3.923.414 4.902 1.64 1.032 1.223 1.599 2.713 1.7 4.47.114 1.97-.291 4.21-1.215 6.72a41.215 41.215 0 0 1-3.273 7.161c.657.283 1.412.4 2.264.35.798-.046 1.746-.287 2.843-.724 1.096-.438 2.153-1.113 3.168-2.026 1.013-.967 1.796-2.214 2.349-3.742l1.497.956c-1.014 2.783-2.47 4.87-4.366 6.261-1.847 1.336-3.701 2.057-5.565 2.165-.692.04-1.387.026-2.086-.04a16.48 16.48 0 0 1-1.949-.45 31.226 31.226 0 0 1-5.907 5.95c-2.251 1.733-4.574 2.668-6.97 2.807zm11.91-13.028a34.307 34.307 0 0 0 2.929-6.178c.782-2.182 1.121-4.179 1.017-5.989-.071-1.224-.308-2.092-.711-2.603-.407-.564-.983-.825-1.728-.782-1.012.058-2.009.837-2.991 2.336-.982 1.499-1.41 3.34-1.284 5.523.065 1.118.329 2.465.794 4.041.518 1.573 1.176 2.79 1.974 3.653zm54.301 9.13c-2.077.12-3.656-.404-4.738-1.57-1.083-1.166-1.673-2.601-1.771-4.305-.071-1.225.045-2.46.347-3.706s.606-2.466.911-3.659c.302-1.246.426-2.348.37-3.307-.052-.905-.274-1.506-.665-1.804-.341-.355-.777-.516-1.31-.486-1.224.07-2.608 1.086-4.151 3.044-1.49 1.956-3.33 4.787-5.521 8.492a43.334 43.334 0 0 0-2.161 4.212 76.453 76.453 0 0 1-1.794 3.629c-.479.028-1.123-.016-1.931-.13a7.392 7.392 0 0 1-2.038-.603c-.601-.232-.915-.588-.943-1.067-.027-.48.185-1.427.638-2.842.452-1.415.973-3.047 1.56-4.898a93.327 93.327 0 0 0 1.524-5.537c.428-1.84.607-3.373.536-4.598-.043-.746-.21-1.324-.5-1.734-.291-.41-.729-.6-1.315-.566-1.118.065-2.438.809-3.958 2.232-1.467 1.42-3.017 3.273-4.648 5.557-1.581 2.228-3.067 4.718-4.457 7.469a50.27 50.27 0 0 0-3.218 8.118c-.586.034-1.313-.057-2.18-.275-.864-.163-1.626-.413-2.287-.75-.657-.282-.993-.556-1.009-.822-.003-.054.14-.81.43-2.269a943.34 943.34 0 0 0 1.04-5.589c.407-2.214.837-4.482 1.291-6.806a1261.8 1261.8 0 0 0 1.172-6.077c.126-.595.682-1.135 1.669-1.619.984-.537 1.849-.828 2.595-.87.745-.044 1.398.16 1.958.608.56.448.863 1.072.909 1.87.031.533-.031 1.311-.186 2.335a95.645 95.645 0 0 1-.601 3.48 91.788 91.788 0 0 1 3.261-4.595 39.895 39.895 0 0 1 3.684-4.22c1.316-1.25 2.62-2.26 3.912-3.03 1.344-.771 2.682-1.196 4.013-1.272 1.97-.114 3.343.528 4.118 1.926.772 1.344 1.205 2.842 1.3 4.492.04.692.027 1.388-.04 2.086a15.36 15.36 0 0 1-.364 2.024 26.572 26.572 0 0 1-.585 2.358 31.365 31.365 0 0 1 3.04-4.262c1.151-1.349 2.397-2.435 3.738-3.26a9.15 9.15 0 0 1 4.329-1.372c2.076-.12 3.551.436 4.423 1.668a7.314 7.314 0 0 1 1.433 4.004c.08 1.385-.076 2.863-.466 4.434a81.87 81.87 0 0 1-1.109 4.392c-.349 1.355-.496 2.512-.441 3.47.031.533.193 1.031.487 1.495.291.41.836.593 1.634.547 1.438-.083 2.784-.828 4.038-2.236 1.255-1.408 2.386-3.103 3.393-5.084 1.058-2.038 1.936-3.958 2.633-5.761l1.454 1.599c-.726 2.232-1.715 4.533-2.967 6.902-1.202 2.313-2.666 4.267-4.39 5.862-1.721 1.649-3.753 2.54-6.096 2.676zm20.279-.128c-3.408.197-6.097-.583-8.068-2.34-1.915-1.705-2.952-3.942-3.112-6.711-.135-2.343.308-4.853 1.329-7.53 1.071-2.732 2.552-5.301 4.444-7.708 1.888-2.46 4.015-4.478 6.381-6.057 2.367-1.579 4.775-2.439 7.224-2.58 1.384-.08 2.71.217 3.978.892 1.318.619 2.038 1.993 2.161 4.123.116 2.023-.36 3.947-1.43 5.772-1.07 1.824-2.551 3.486-4.441 4.983-1.89 1.498-4.007 2.77-6.351 3.812a30.706 30.706 0 0 1-7.011 2.087 15.65 15.65 0 0 0-.119.729l.065 1.118c.015.266.069.743.163 1.433.143.633.422 1.31.838 2.035.416.724 1.065 1.327 1.948 1.81.882.484 2.069.683 3.56.597 2.236-.13 4.437-.87 6.603-2.224 2.216-1.41 4.249-3.21 6.099-5.4a29.348 29.348 0 0 0 4.631-7.239l1.671 1.186c-1.253 3.278-2.956 6.18-5.107 8.709-2.098 2.524-4.493 4.532-7.185 6.023-2.639 1.488-5.396 2.315-8.271 2.48zm-4.188-14.262c1.375-.24 2.891-.808 4.549-1.705a24.725 24.725 0 0 0 4.697-3.316c1.527-1.317 2.755-2.723 3.683-4.219.926-1.549 1.346-3.07 1.26-4.56-.034-.586-.163-.979-.389-1.18-.225-.2-.577-.287-1.056-.26-1.225.072-2.477.598-3.756 1.58-1.282.928-2.52 2.148-3.715 3.66a27.528 27.528 0 0 0-3.167 4.83c-.914 1.762-1.616 3.485-2.106 5.17zm29.758-14.537a814.18 814.18 0 0 1 3.135-9.557 263.543 263.543 0 0 1 3.309-9.326c1.109-3.002 2.209-5.683 3.302-8.043 1.09-2.413 2.155-4.318 3.196-5.714C279.227.93 280.28.201 281.292.143c.586-.034 1.105.177 1.559.631.504.399.775.944.815 1.636.043.745-.325 2.236-1.104 4.471-.726 2.232-1.72 4.907-2.983 8.025a321.646 321.646 0 0 1-4.235 9.94 874.228 874.228 0 0 1-4.691 10.368 264.063 264.063 0 0 1-4.445 9.07c-1.394 2.699-2.555 4.796-3.484 6.291l-.488-.132-.489-.132c-.026-1.387.123-2.972.448-4.753a76.685 76.685 0 0 1 1.368-5.448 290.966 290.966 0 0 1 1.627-5.142zm-4.576 24.864c-.852.05-1.61-.12-2.274-.51-.663-.389-1.022-1.063-1.078-2.021-.058-1.012.424-1.92 1.446-2.728 1.075-.81 2.251-1.251 3.529-1.325.799-.046 1.449.103 1.949.449.554.341.857.965.91 1.87.052.905-.375 1.838-1.282 2.799-.909.907-1.976 1.396-3.2 1.466z" fill="#E1CFDB"/></svg>